<svg width="602" height="50" viewBox="0 0 602 50" fill="none" xmlns="http://www.w3.org/2000/svg">
<path d="M14.4118 10.8876L20.5543 28.6494M20.5543 28.6494L20.1103 46.0645M20.5543 28.6494L0.868652 42.079M20.5543 28.6494L39.7219 29.8623M20.5543 28.6494L31.2112 1.35693M20.5543 28.6494L46.9005 42.8587M20.5543 28.6494L10.1194 47.2775M20.5543 28.6494L1.83073 12.1006M20.5543 28.6494L38.5378 15.8262M20.5543 28.6494L4.34695 27.1764M20.5543 28.6494L31.2112 49.3569" stroke="#FE64FA" stroke-width="2.4"/>
<mask id="path-2-outside-1_1_1409" maskUnits="userSpaceOnUse" x="78.9005" y="8.35681" width="135" height="34" fill="black">
<rect fill="white" x="78.9005" y="8.35681" width="135" height="34"/>
<path d="M80.3405 21.0368C80.5005 18.7168 81.2605 16.7168 82.6205 15.0368C83.9805 13.3301 85.7805 12.0235 88.0205 11.1168C90.2871 10.1835 92.8471 9.71681 95.7005 9.71681C98.4205 9.71681 100.794 10.1301 102.82 10.9568C104.847 11.7835 106.434 12.9435 107.58 14.4368C108.727 15.9301 109.3 17.6501 109.3 19.5968C109.3 21.1168 108.9 22.5301 108.1 23.8368C107.3 25.1168 106.034 26.3968 104.3 27.6768C102.567 28.9568 100.287 30.3168 97.4605 31.7568L88.7805 36.3168L88.3805 34.3568H110.14V40.3568H80.8605V35.0768L93.7405 27.6768C95.7938 26.5035 97.3938 25.5035 98.5405 24.6768C99.7138 23.8235 100.54 23.0368 101.02 22.3168C101.5 21.5968 101.74 20.8235 101.74 19.9968C101.74 19.1435 101.5 18.3835 101.02 17.7168C100.567 17.0501 99.8738 16.5301 98.9405 16.1568C98.0071 15.7835 96.8338 15.5968 95.4205 15.5968C93.7405 15.5968 92.3538 15.8501 91.2605 16.3568C90.1671 16.8368 89.3538 17.4901 88.8205 18.3168C88.2871 19.1435 87.9671 20.0501 87.8605 21.0368H80.3405ZM130.19 40.9968C126.803 40.9968 123.87 40.3435 121.39 39.0368C118.91 37.7301 116.99 35.9168 115.63 33.5968C114.27 31.2501 113.59 28.5035 113.59 25.3568C113.59 22.2368 114.27 19.5035 115.63 17.1568C116.99 14.8101 118.91 12.9835 121.39 11.6768C123.87 10.3701 126.803 9.71681 130.19 9.71681C133.55 9.71681 136.47 10.3701 138.95 11.6768C141.43 12.9835 143.35 14.8101 144.71 17.1568C146.07 19.4768 146.75 22.2101 146.75 25.3568C146.75 28.4768 146.07 31.2101 144.71 33.5568C143.35 35.9035 141.43 37.7301 138.95 39.0368C136.47 40.3435 133.55 40.9968 130.19 40.9968ZM130.19 34.8368C133.043 34.8368 135.257 34.0101 136.83 32.3568C138.43 30.7035 139.23 28.3701 139.23 25.3568C139.23 22.3435 138.43 20.0101 136.83 18.3568C135.257 16.7035 133.043 15.8768 130.19 15.8768C127.337 15.8768 125.11 16.7035 123.51 18.3568C121.91 20.0101 121.11 22.3435 121.11 25.3568C121.11 28.3701 121.91 30.7035 123.51 32.3568C125.11 34.0101 127.337 34.8368 130.19 34.8368ZM149.95 21.0368C150.11 18.7168 150.87 16.7168 152.23 15.0368C153.59 13.3301 155.39 12.0235 157.63 11.1168C159.896 10.1835 162.456 9.71681 165.31 9.71681C168.03 9.71681 170.403 10.1301 172.43 10.9568C174.456 11.7835 176.043 12.9435 177.19 14.4368C178.336 15.9301 178.91 17.6501 178.91 19.5968C178.91 21.1168 178.51 22.5301 177.71 23.8368C176.91 25.1168 175.643 26.3968 173.91 27.6768C172.176 28.9568 169.896 30.3168 167.07 31.7568L158.39 36.3168L157.99 34.3568H179.75V40.3568H150.47V35.0768L163.35 27.6768C165.403 26.5035 167.003 25.5035 168.15 24.6768C169.323 23.8235 170.15 23.0368 170.63 22.3168C171.11 21.5968 171.35 20.8235 171.35 19.9968C171.35 19.1435 171.11 18.3835 170.63 17.7168C170.176 17.0501 169.483 16.5301 168.55 16.1568C167.616 15.7835 166.443 15.5968 165.03 15.5968C163.35 15.5968 161.963 15.8501 160.87 16.3568C159.776 16.8368 158.963 17.4901 158.43 18.3168C157.896 19.1435 157.576 20.0501 157.47 21.0368H149.95ZM183.44 19.9568C183.573 18.0635 184.24 16.3435 185.44 14.7968C186.64 13.2501 188.346 12.0235 190.56 11.1168C192.8 10.1835 195.493 9.71681 198.64 9.71681C201.386 9.71681 203.76 10.0768 205.76 10.7968C207.786 11.4901 209.36 12.4635 210.48 13.7168C211.6 14.9435 212.16 16.3968 212.16 18.0768C212.16 19.4368 211.746 20.6768 210.92 21.7968C210.12 22.8901 208.853 23.7701 207.12 24.4368C205.386 25.0768 203.173 25.3835 200.48 25.3568V24.5568C203.04 24.4235 205.24 24.6101 207.08 25.1168C208.92 25.6235 210.333 26.4235 211.32 27.5168C212.306 28.6101 212.8 29.9835 212.8 31.6368C212.8 33.4501 212.226 35.0635 211.08 36.4768C209.933 37.8635 208.253 38.9701 206.04 39.7968C203.853 40.5968 201.186 40.9968 198.04 40.9968C194.973 40.9968 192.293 40.5701 190 39.7168C187.733 38.8368 185.96 37.6235 184.68 36.0768C183.426 34.5035 182.746 32.6635 182.64 30.5568H190.16C190.373 32.0235 191.12 33.1568 192.4 33.9568C193.706 34.7301 195.586 35.1168 198.04 35.1168C200.36 35.1168 202.12 34.7701 203.32 34.0768C204.546 33.3568 205.16 32.3568 205.16 31.0768C205.16 30.3301 204.96 29.7168 204.56 29.2368C204.16 28.7301 203.48 28.3435 202.52 28.0768C201.56 27.8101 200.226 27.6768 198.52 27.6768H193.32V22.5168H198.52C200.733 22.5168 202.293 22.2101 203.2 21.5968C204.106 20.9568 204.56 20.1301 204.56 19.1168C204.56 17.9968 204.026 17.1301 202.96 16.5168C201.92 15.9035 200.346 15.5968 198.24 15.5968C196.053 15.5968 194.346 15.9701 193.12 16.7168C191.92 17.4635 191.2 18.5435 190.96 19.9568H183.44Z"/>
</mask>
<path d="M80.3405 21.0368L79.3428 20.968L79.2691 22.0368H80.3405V21.0368ZM82.6205 15.0368L83.3977 15.666L83.4025 15.66L82.6205 15.0368ZM88.0205 11.1168L88.3957 12.0438L88.4012 12.0415L88.0205 11.1168ZM102.82 10.9568L102.443 11.8827L102.82 10.9568ZM107.58 14.4368L106.787 15.0458V15.0458L107.58 14.4368ZM108.1 23.8368L108.948 24.3668L108.953 24.359L108.1 23.8368ZM104.3 27.6768L104.894 28.4812L104.3 27.6768ZM97.4605 31.7568L97.0065 30.8657L96.9954 30.8715L97.4605 31.7568ZM88.7805 36.3168L87.8006 36.5168L88.0669 37.8213L89.2455 37.2021L88.7805 36.3168ZM88.3805 34.3568V33.3568H87.1558L87.4006 34.5568L88.3805 34.3568ZM110.14 34.3568H111.14V33.3568H110.14V34.3568ZM110.14 40.3568V41.3568H111.14V40.3568H110.14ZM80.8605 40.3568H79.8605V41.3568H80.8605V40.3568ZM80.8605 35.0768L80.3623 34.2097L79.8605 34.4981V35.0768H80.8605ZM93.7405 27.6768L93.2443 26.8086L93.2423 26.8097L93.7405 27.6768ZM98.5405 24.6768L99.1253 25.488L99.1286 25.4855L98.5405 24.6768ZM101.02 22.3168L100.188 21.7621L101.02 22.3168ZM101.02 17.7168L100.194 18.2791L100.201 18.2902L100.209 18.3011L101.02 17.7168ZM98.9405 16.1568L99.3118 15.2283L98.9405 16.1568ZM91.2605 16.3568L91.6624 17.2725L91.6717 17.2684L91.6809 17.2641L91.2605 16.3568ZM88.8205 18.3168L89.6607 18.8589L88.8205 18.3168ZM87.8605 21.0368V22.0368H88.7582L88.8547 21.1443L87.8605 21.0368ZM81.3381 21.1056C81.4851 18.9742 82.177 17.174 83.3977 15.666L81.8432 14.4076C80.3439 16.2596 79.5158 18.4594 79.3428 20.968L81.3381 21.1056ZM83.4025 15.66C84.6441 14.102 86.2976 12.893 88.3956 12.0438L87.6453 10.1899C85.2633 11.154 83.3168 12.5583 81.8384 14.4136L83.4025 15.66ZM88.4012 12.0415C90.529 11.1654 92.9566 10.7168 95.7005 10.7168V8.71681C92.7376 8.71681 90.0453 9.2016 87.6397 10.1921L88.4012 12.0415ZM95.7005 10.7168C98.3213 10.7168 100.561 11.1153 102.443 11.8827L103.198 10.0309C101.026 9.145 98.5196 8.71681 95.7005 8.71681V10.7168ZM102.443 11.8827C104.332 12.6535 105.765 13.7145 106.787 15.0458L108.374 13.8278C107.103 12.1724 105.362 10.9135 103.198 10.0309L102.443 11.8827ZM106.787 15.0458C107.795 16.3582 108.3 17.8623 108.3 19.5968H110.3C110.3 17.4379 109.659 15.5021 108.374 13.8278L106.787 15.0458ZM108.3 19.5968C108.3 20.931 107.952 22.1638 107.248 23.3147L108.953 24.359C109.849 22.8965 110.3 21.3026 110.3 19.5968H108.3ZM107.252 23.3068C106.541 24.445 105.378 25.6377 103.706 26.8724L104.894 28.4812C106.689 27.1559 108.06 25.7886 108.948 24.3668L107.252 23.3068ZM103.706 26.8724C102.033 28.1084 99.8048 29.4402 97.0065 30.8658L97.9144 32.6479C100.769 31.1934 103.102 29.8053 104.894 28.4812L103.706 26.8724ZM96.9954 30.8715L88.3154 35.4315L89.2455 37.2021L97.9255 32.6421L96.9954 30.8715ZM89.7603 36.1169L89.3603 34.1569L87.4006 34.5568L87.8006 36.5168L89.7603 36.1169ZM88.3805 35.3568H110.14V33.3568H88.3805V35.3568ZM109.14 34.3568V40.3568H111.14V34.3568H109.14ZM110.14 39.3568H80.8605V41.3568H110.14V39.3568ZM81.8605 40.3568V35.0768H79.8605V40.3568H81.8605ZM81.3586 35.9439L94.2386 28.5439L93.2423 26.8097L80.3623 34.2097L81.3586 35.9439ZM94.2366 28.5451C96.3031 27.3642 97.9375 26.3443 99.1253 25.488L97.9557 23.8656C96.8501 24.6627 95.2845 25.6428 93.2443 26.8086L94.2366 28.5451ZM99.1286 25.4855C100.342 24.6032 101.277 23.7344 101.853 22.8715L100.188 21.7621C99.8037 22.3392 99.0857 23.0438 97.9523 23.8681L99.1286 25.4855ZM101.853 22.8715C102.437 21.9954 102.74 21.0304 102.74 19.9968H100.74C100.74 20.6165 100.564 21.1983 100.188 21.7621L101.853 22.8715ZM102.74 19.9968C102.74 18.9424 102.439 17.9763 101.832 17.1325L100.209 18.3011C100.561 18.7907 100.74 19.3445 100.74 19.9968H102.74ZM101.847 17.1545C101.257 16.2866 100.384 15.6573 99.3118 15.2283L98.5691 17.0853C99.3633 17.403 99.877 17.8137 100.194 18.2791L101.847 17.1545ZM99.3118 15.2283C98.2229 14.7928 96.9132 14.5968 95.4205 14.5968V16.5968C96.7544 16.5968 97.7913 16.7742 98.5691 17.0853L99.3118 15.2283ZM95.4205 14.5968C93.6488 14.5968 92.1063 14.8627 90.84 15.4495L91.6809 17.2641C92.6013 16.8376 93.8321 16.5968 95.4205 16.5968V14.5968ZM90.8585 15.4412C89.6243 15.983 88.6407 16.7509 87.9802 17.7747L89.6607 18.8589C90.0669 18.2294 90.7099 17.6906 91.6624 17.2725L90.8585 15.4412ZM87.9802 17.7747C87.3616 18.7335 86.9895 19.7892 86.8662 20.9293L88.8547 21.1443C88.9447 20.3111 89.2126 19.5535 89.6607 18.8589L87.9802 17.7747ZM87.8605 20.0368H80.3405V22.0368H87.8605V20.0368ZM121.39 39.0368L120.924 39.9215L121.39 39.0368ZM115.63 33.5968L114.765 34.0982L114.767 34.1025L115.63 33.5968ZM115.63 17.1568L114.765 16.6554L115.63 17.1568ZM121.39 11.6768L121.856 12.5615V12.5615L121.39 11.6768ZM138.95 11.6768L138.484 12.5615V12.5615L138.95 11.6768ZM144.71 17.1568L143.845 17.6582L143.847 17.6625L144.71 17.1568ZM144.71 33.5568L145.575 34.0582L144.71 33.5568ZM138.95 39.0368L139.416 39.9215L138.95 39.0368ZM136.83 32.3568L136.112 31.6614L136.106 31.6674L136.83 32.3568ZM136.83 18.3568L136.106 19.0462L136.112 19.0522L136.83 18.3568ZM123.51 18.3568L124.229 19.0522L123.51 18.3568ZM123.51 32.3568L122.792 33.0522L123.51 32.3568ZM130.19 39.9968C126.932 39.9968 124.166 39.3688 121.856 38.1521L120.924 39.9215C123.575 41.3181 126.675 41.9968 130.19 41.9968V39.9968ZM121.856 38.1521C119.534 36.9285 117.754 35.2433 116.493 33.0911L114.767 34.1025C116.226 36.5904 118.286 38.5318 120.924 39.9215L121.856 38.1521ZM116.495 33.0954C115.237 30.924 114.59 28.3559 114.59 25.3568H112.59C112.59 28.651 113.303 31.5763 114.765 34.0982L116.495 33.0954ZM114.59 25.3568C114.59 22.3861 115.236 19.8309 116.495 17.6582L114.765 16.6554C113.304 19.1761 112.59 22.0876 112.59 25.3568H114.59ZM116.495 17.6582C117.758 15.48 119.537 13.7836 121.856 12.5615L120.924 10.7921C118.283 12.1834 116.223 14.1403 114.765 16.6554L116.495 17.6582ZM121.856 12.5615C124.166 11.3448 126.932 10.7168 130.19 10.7168V8.71681C126.675 8.71681 123.575 9.39549 120.924 10.7921L121.856 12.5615ZM130.19 10.7168C133.42 10.7168 136.174 11.3442 138.484 12.5615L139.416 10.7921C136.767 9.39606 133.681 8.71681 130.19 8.71681V10.7168ZM138.484 12.5615C140.803 13.7836 142.583 15.48 143.845 17.6582L145.575 16.6554C144.118 14.1403 142.057 12.1834 139.416 10.7921L138.484 12.5615ZM143.847 17.6625C145.103 19.8048 145.75 22.3574 145.75 25.3568H147.75C147.75 22.0629 147.037 19.1488 145.573 16.6511L143.847 17.6625ZM145.75 25.3568C145.75 28.3276 145.104 30.8827 143.845 33.0554L145.575 34.0582C147.036 31.5375 147.75 28.6261 147.75 25.3568H145.75ZM143.845 33.0554C142.583 35.2337 140.803 36.93 138.484 38.1521L139.416 39.9215C142.057 38.5303 144.118 36.5733 145.575 34.0582L143.845 33.0554ZM138.484 38.1521C136.174 39.3694 133.42 39.9968 130.19 39.9968V41.9968C133.681 41.9968 136.767 41.3176 139.416 39.9215L138.484 38.1521ZM130.19 35.8368C133.244 35.8368 135.747 34.9451 137.555 33.0462L136.106 31.6674C134.766 33.0752 132.843 33.8368 130.19 33.8368V35.8368ZM137.549 33.0522C139.38 31.1601 140.23 28.5465 140.23 25.3568H138.23C138.23 28.1938 137.48 30.2468 136.112 31.6614L137.549 33.0522ZM140.23 25.3568C140.23 22.1671 139.38 19.5535 137.549 17.6614L136.112 19.0522C137.48 20.4668 138.23 22.5199 138.23 25.3568H140.23ZM137.555 17.6674C135.747 15.7685 133.244 14.8768 130.19 14.8768V16.8768C132.843 16.8768 134.766 17.6385 136.106 19.0462L137.555 17.6674ZM130.19 14.8768C127.135 14.8768 124.623 15.7687 122.792 17.6614L124.229 19.0522C125.597 17.6383 127.538 16.8768 130.19 16.8768V14.8768ZM122.792 17.6614C120.96 19.5535 120.11 22.1671 120.11 25.3568H122.11C122.11 22.5199 122.86 20.4668 124.229 19.0522L122.792 17.6614ZM120.11 25.3568C120.11 28.5465 120.96 31.1601 122.792 33.0522L124.229 31.6614C122.86 30.2468 122.11 28.1938 122.11 25.3568H120.11ZM122.792 33.0522C124.623 34.9449 127.135 35.8368 130.19 35.8368V33.8368C127.538 33.8368 125.597 33.0753 124.229 31.6614L122.792 33.0522ZM149.95 21.0368L148.952 20.968L148.878 22.0368H149.95V21.0368ZM152.23 15.0368L153.007 15.666L153.012 15.66L152.23 15.0368ZM157.63 11.1168L158.005 12.0438L158.011 12.0415L157.63 11.1168ZM172.43 10.9568L172.052 11.8827L172.43 10.9568ZM177.19 14.4368L176.397 15.0458V15.0458L177.19 14.4368ZM177.71 23.8368L178.558 24.3668L178.563 24.359L177.71 23.8368ZM173.91 27.6768L174.504 28.4812L173.91 27.6768ZM167.07 31.7568L166.616 30.8657L166.605 30.8715L167.07 31.7568ZM158.39 36.3168L157.41 36.5168L157.676 37.8213L158.855 37.2021L158.39 36.3168ZM157.99 34.3568V33.3568H156.765L157.01 34.5568L157.99 34.3568ZM179.75 34.3568H180.75V33.3568H179.75V34.3568ZM179.75 40.3568V41.3568H180.75V40.3568H179.75ZM150.47 40.3568H149.47V41.3568H150.47V40.3568ZM150.47 35.0768L149.972 34.2097L149.47 34.4981V35.0768H150.47ZM163.35 27.6768L162.854 26.8086L162.852 26.8097L163.35 27.6768ZM168.15 24.6768L168.735 25.488L168.738 25.4855L168.15 24.6768ZM170.63 22.3168L169.798 21.7621L170.63 22.3168ZM170.63 17.7168L169.803 18.2791L169.81 18.2902L169.818 18.3011L170.63 17.7168ZM168.55 16.1568L168.921 15.2283L168.55 16.1568ZM160.87 16.3568L161.272 17.2725L161.281 17.2684L161.29 17.2641L160.87 16.3568ZM158.43 18.3168L159.27 18.8589L158.43 18.3168ZM157.47 21.0368V22.0368H158.368L158.464 21.1443L157.47 21.0368ZM150.947 21.1056C151.094 18.9742 151.786 17.174 153.007 15.666L151.453 14.4076C149.953 16.2596 149.125 18.4594 148.952 20.968L150.947 21.1056ZM153.012 15.66C154.253 14.102 155.907 12.893 158.005 12.0438L157.255 10.1899C154.873 11.154 152.926 12.5583 151.448 14.4136L153.012 15.66ZM158.011 12.0415C160.138 11.1654 162.566 10.7168 165.31 10.7168V8.71681C162.347 8.71681 159.655 9.2016 157.249 10.1921L158.011 12.0415ZM165.31 10.7168C167.931 10.7168 170.171 11.1153 172.052 11.8827L172.808 10.0309C170.636 9.145 168.129 8.71681 165.31 8.71681V10.7168ZM172.052 11.8827C173.942 12.6535 175.374 13.7145 176.397 15.0458L177.983 13.8278C176.712 12.1724 174.971 10.9135 172.808 10.0309L172.052 11.8827ZM176.397 15.0458C177.404 16.3582 177.91 17.8623 177.91 19.5968H179.91C179.91 17.4379 179.269 15.5021 177.983 13.8278L176.397 15.0458ZM177.91 19.5968C177.91 20.931 177.562 22.1638 176.857 23.3147L178.563 24.359C179.458 22.8965 179.91 21.3026 179.91 19.5968H177.91ZM176.862 23.3068C176.15 24.445 174.988 25.6377 173.316 26.8724L174.504 28.4812C176.299 27.1559 177.669 25.7886 178.558 24.3668L176.862 23.3068ZM173.316 26.8724C171.642 28.1084 169.414 29.4402 166.616 30.8658L167.524 32.6479C170.379 31.1934 172.711 29.8053 174.504 28.4812L173.316 26.8724ZM166.605 30.8715L157.925 35.4315L158.855 37.2021L167.535 32.6421L166.605 30.8715ZM159.37 36.1169L158.97 34.1569L157.01 34.5568L157.41 36.5168L159.37 36.1169ZM157.99 35.3568H179.75V33.3568H157.99V35.3568ZM178.75 34.3568V40.3568H180.75V34.3568H178.75ZM179.75 39.3568H150.47V41.3568H179.75V39.3568ZM151.47 40.3568V35.0768H149.47V40.3568H151.47ZM150.968 35.9439L163.848 28.5439L162.852 26.8097L149.972 34.2097L150.968 35.9439ZM163.846 28.5451C165.912 27.3642 167.547 26.3443 168.735 25.488L167.565 23.8656C166.459 24.6627 164.894 25.6428 162.854 26.8086L163.846 28.5451ZM168.738 25.4855C169.951 24.6032 170.887 23.7344 171.462 22.8715L169.798 21.7621C169.413 22.3392 168.695 23.0438 167.562 23.8681L168.738 25.4855ZM171.462 22.8715C172.046 21.9954 172.35 21.0304 172.35 19.9968H170.35C170.35 20.6165 170.174 21.1983 169.798 21.7621L171.462 22.8715ZM172.35 19.9968C172.35 18.9424 172.049 17.9763 171.441 17.1325L169.818 18.3011C170.171 18.7907 170.35 19.3445 170.35 19.9968H172.35ZM171.457 17.1545C170.867 16.2866 169.994 15.6573 168.921 15.2283L168.178 17.0853C168.973 17.403 169.486 17.8137 169.803 18.2791L171.457 17.1545ZM168.921 15.2283C167.832 14.7928 166.523 14.5968 165.03 14.5968V16.5968C166.364 16.5968 167.401 16.7742 168.178 17.0853L168.921 15.2283ZM165.03 14.5968C163.258 14.5968 161.716 14.8627 160.449 15.4495L161.29 17.2641C162.211 16.8376 163.441 16.5968 165.03 16.5968V14.5968ZM160.468 15.4412C159.234 15.983 158.25 16.7509 157.59 17.7747L159.27 18.8589C159.676 18.2294 160.319 17.6906 161.272 17.2725L160.468 15.4412ZM157.59 17.7747C156.971 18.7335 156.599 19.7892 156.476 20.9293L158.464 21.1443C158.554 20.3111 158.822 19.5535 159.27 18.8589L157.59 17.7747ZM157.47 20.0368H149.95V22.0368H157.47V20.0368ZM183.44 19.9568L182.442 19.8866L182.367 20.9568H183.44V19.9568ZM185.44 14.7968L184.649 14.1838L185.44 14.7968ZM190.56 11.1168L190.939 12.0422L190.944 12.0399L190.56 11.1168ZM205.76 10.7968L205.421 11.7377L205.428 11.7404L205.436 11.743L205.76 10.7968ZM210.48 13.7168L209.734 14.3832L209.741 14.3911L210.48 13.7168ZM210.92 21.7968L210.115 21.203L210.112 21.2063L210.92 21.7968ZM207.12 24.4368L207.466 25.375L207.479 25.3702L207.12 24.4368ZM200.48 25.3568H199.48V26.347L200.47 26.3568L200.48 25.3568ZM200.48 24.5568L200.428 23.5582L199.48 23.6075V24.5568H200.48ZM211.08 36.4768L211.85 37.1141L211.856 37.1069L211.08 36.4768ZM206.04 39.7968L206.383 40.736L206.389 40.7336L206.04 39.7968ZM190 39.7168L189.638 40.6491L189.651 40.654L190 39.7168ZM184.68 36.0768L183.897 36.6999L183.903 36.7072L183.909 36.7144L184.68 36.0768ZM182.64 30.5568V29.5568H181.588L181.641 30.6074L182.64 30.5568ZM190.16 30.5568L191.149 30.4129L191.025 29.5568H190.16V30.5568ZM192.4 33.9568L191.87 34.8048L191.88 34.8112L191.89 34.8174L192.4 33.9568ZM203.32 34.0768L203.82 34.9427L203.826 34.9392L203.32 34.0768ZM204.56 29.2368L203.775 29.8565L203.783 29.8668L203.791 29.877L204.56 29.2368ZM202.52 28.0768L202.252 29.0403L202.52 28.0768ZM193.32 27.6768H192.32V28.6768H193.32V27.6768ZM193.32 22.5168V21.5168H192.32V22.5168H193.32ZM203.2 21.5968L203.76 22.4251L203.768 22.4195L203.776 22.4138L203.2 21.5968ZM202.96 16.5168L202.451 17.3782L202.461 17.3837L202.96 16.5168ZM193.12 16.7168L192.6 15.8626L192.591 15.8678L193.12 16.7168ZM190.96 19.9568V20.9568H191.804L191.945 20.1242L190.96 19.9568ZM184.437 20.0271C184.556 18.3377 185.147 16.8053 186.23 15.4098L184.649 14.1838C183.332 15.8817 182.59 17.7893 182.442 19.8866L184.437 20.0271ZM186.23 15.4098C187.301 14.0291 188.851 12.8971 190.939 12.0422L190.18 10.1914C187.841 11.1498 185.978 12.4712 184.649 14.1838L186.23 15.4098ZM190.944 12.0399C193.032 11.17 195.587 10.7168 198.64 10.7168V8.71681C195.398 8.71681 192.567 9.19699 190.175 10.1937L190.944 12.0399ZM198.64 10.7168C201.303 10.7168 203.556 11.0664 205.421 11.7377L206.098 9.85592C203.963 9.08726 201.47 8.71681 198.64 8.71681V10.7168ZM205.436 11.743C207.344 12.3957 208.755 13.2882 209.734 14.3831L211.225 13.0505C209.964 11.6387 208.229 10.5846 206.083 9.85065L205.436 11.743ZM209.741 14.3911C210.691 15.4312 211.16 16.6432 211.16 18.0768H213.16C213.16 16.1505 212.508 14.4558 211.218 13.0425L209.741 14.3911ZM211.16 18.0768C211.16 19.2177 210.818 20.2506 210.115 21.203L211.724 22.3907C212.674 21.103 213.16 19.6559 213.16 18.0768H211.16ZM210.112 21.2063C209.461 22.0972 208.379 22.881 206.761 23.5035L207.479 25.3702C209.327 24.6593 210.778 23.6831 211.727 22.3873L210.112 21.2063ZM206.773 23.4987C205.193 24.082 203.112 24.3828 200.489 24.3569L200.47 26.3568C203.234 26.3841 205.579 26.0716 207.466 25.3749L206.773 23.4987ZM201.48 25.3568V24.5568H199.48V25.3568H201.48ZM200.532 25.5555C203.019 25.4259 205.106 25.6106 206.814 26.0809L207.345 24.1527C205.373 23.6097 203.06 23.421 200.428 23.5582L200.532 25.5555ZM206.814 26.0809C208.524 26.5517 209.751 27.2712 210.577 28.1868L212.062 26.8468C210.915 25.5758 209.315 24.6952 207.345 24.1527L206.814 26.0809ZM210.577 28.1868C211.377 29.0735 211.8 30.1983 211.8 31.6368H213.8C213.8 29.7686 213.235 28.1468 212.062 26.8468L210.577 28.1868ZM211.8 31.6368C211.8 33.2198 211.306 34.6109 210.303 35.8468L211.856 37.1069C213.147 35.5161 213.8 33.6805 213.8 31.6368H211.8ZM210.309 35.8395C209.303 37.0554 207.789 38.076 205.69 38.86L206.389 40.7336C208.717 39.8643 210.562 38.6716 211.85 37.1141L210.309 35.8395ZM205.696 38.8577C203.65 39.606 201.107 39.9968 198.04 39.9968V41.9968C201.265 41.9968 204.055 41.5876 206.383 40.7359L205.696 38.8577ZM198.04 39.9968C195.063 39.9968 192.506 39.5824 190.348 38.7796L189.651 40.654C192.08 41.5579 194.883 41.9968 198.04 41.9968V39.9968ZM190.361 38.7846C188.22 37.9534 186.6 36.8293 185.45 35.4392L183.909 36.7144C185.319 38.4176 187.245 39.7202 189.638 40.649L190.361 38.7846ZM185.462 35.4537C184.345 34.0522 183.735 32.4149 183.638 30.5062L181.641 30.6074C181.757 32.912 182.507 34.9548 183.897 36.6999L185.462 35.4537ZM182.64 31.5568H190.16V29.5568H182.64V31.5568ZM189.17 30.7008C189.426 32.4644 190.346 33.8524 191.87 34.8048L192.93 33.1088C191.893 32.4613 191.319 31.5826 191.149 30.4129L189.17 30.7008ZM191.89 34.8174C193.419 35.7219 195.506 36.1168 198.04 36.1168V34.1168C195.666 34.1168 193.994 33.7383 192.909 33.0962L191.89 34.8174ZM198.04 36.1168C200.43 36.1168 202.397 35.7646 203.82 34.9427L202.819 33.2109C201.842 33.7757 200.289 34.1168 198.04 34.1168V36.1168ZM203.826 34.9392C205.317 34.0637 206.16 32.7566 206.16 31.0768H204.16C204.16 31.957 203.775 32.6499 202.813 33.2144L203.826 34.9392ZM206.16 31.0768C206.16 30.1438 205.905 29.2898 205.328 28.5966L203.791 29.877C204.014 30.1438 204.16 30.5165 204.16 31.0768H206.16ZM205.344 28.6172C204.759 27.8754 203.848 27.4078 202.787 27.1133L202.252 29.0403C203.111 29.2791 203.56 29.5849 203.775 29.8565L205.344 28.6172ZM202.787 27.1133C201.7 26.8112 200.262 26.6768 198.52 26.6768V28.6768C200.19 28.6768 201.419 28.8091 202.252 29.0403L202.787 27.1133ZM198.52 26.6768H193.32V28.6768H198.52V26.6768ZM194.32 27.6768V22.5168H192.32V27.6768H194.32ZM193.32 23.5168H198.52V21.5168H193.32V23.5168ZM198.52 23.5168C200.765 23.5168 202.589 23.2173 203.76 22.4251L202.639 20.7685C201.997 21.203 200.701 21.5168 198.52 21.5168V23.5168ZM203.776 22.4138C204.919 21.6072 205.56 20.4896 205.56 19.1168H203.56C203.56 19.7707 203.294 20.3064 202.623 20.7798L203.776 22.4138ZM205.56 19.1168C205.56 17.598 204.798 16.4203 203.458 15.6499L202.461 17.3837C203.255 17.84 203.56 18.3956 203.56 19.1168H205.56ZM203.467 15.6554C202.198 14.9065 200.409 14.5968 198.24 14.5968V16.5968C200.283 16.5968 201.641 16.9004 202.452 17.3782L203.467 15.6554ZM198.24 14.5968C195.958 14.5968 194.044 14.9831 192.6 15.8626L193.639 17.571C194.648 16.9571 196.148 16.5968 198.24 16.5968V14.5968ZM192.591 15.8678C191.144 16.7681 190.261 18.0985 189.974 19.7894L191.945 20.1242C192.138 18.9885 192.695 18.1588 193.648 17.5659L192.591 15.8678ZM190.96 18.9568H183.44V20.9568H190.96V18.9568Z" fill="#8F8FFF" mask="url(#path-2-outside-1_1_1409)"/>
<mask id="path-4-outside-2_1_1409" maskUnits="userSpaceOnUse" x="238.901" y="8.35681" width="364" height="34" fill="black">
<rect fill="white" x="238.901" y="8.35681" width="364" height="34"/>
<path d="M261.621 25.6368L262.261 24.1568C264.607 24.2101 266.527 24.5701 268.021 25.2368C269.541 25.9035 270.661 26.8235 271.381 27.9968C272.127 29.1435 272.501 30.4768 272.501 31.9968C272.501 33.5968 272.127 35.0368 271.381 36.3168C270.634 37.5701 269.514 38.5568 268.021 39.2768C266.554 39.9968 264.714 40.3568 262.501 40.3568H240.901L243.221 24.9568L240.901 10.3568H261.741C264.514 10.3568 266.661 11.0101 268.181 12.3168C269.727 13.5968 270.501 15.3701 270.501 17.6368C270.501 18.8901 270.207 20.0901 269.621 21.2368C269.034 22.3835 268.101 23.3568 266.821 24.1568C265.541 24.9301 263.807 25.4235 261.621 25.6368ZM248.341 38.5168L245.461 34.9568H260.701C262.007 34.9568 263.021 34.6501 263.741 34.0368C264.487 33.3968 264.861 32.5035 264.861 31.3568C264.861 30.2101 264.447 29.3035 263.621 28.6368C262.821 27.9435 261.621 27.5968 260.021 27.5968H247.541V22.3168H259.061C260.154 22.3168 261.061 22.0101 261.781 21.3968C262.501 20.7568 262.861 19.8901 262.861 18.7968C262.861 17.9168 262.554 17.1968 261.941 16.6368C261.327 16.0501 260.434 15.7568 259.261 15.7568H245.501L248.341 12.1968L250.461 24.9568L248.341 38.5168ZM284.341 10.3568V36.9968L280.941 33.6768H303.421V40.3568H276.781V10.3568H284.341ZM312.455 34.3168V28.2368H333.175V34.3168H312.455ZM327.895 10.3568L341.735 40.3568H333.695L321.815 13.5168H324.135L312.295 40.3568H304.255L318.095 10.3568H327.895ZM375.951 27.9568C375.658 30.5435 374.765 32.8235 373.271 34.7968C371.778 36.7435 369.805 38.2635 367.351 39.3568C364.898 40.4501 362.098 40.9968 358.951 40.9968C355.511 40.9968 352.485 40.3435 349.871 39.0368C347.285 37.7301 345.271 35.9035 343.831 33.5568C342.391 31.2101 341.671 28.4768 341.671 25.3568C341.671 22.2368 342.391 19.5035 343.831 17.1568C345.271 14.8101 347.285 12.9835 349.871 11.6768C352.485 10.3701 355.511 9.71681 358.951 9.71681C362.098 9.71681 364.898 10.2635 367.351 11.3568C369.805 12.4501 371.778 13.9701 373.271 15.9168C374.765 17.8635 375.658 20.1435 375.951 22.7568H368.351C368.085 21.3968 367.538 20.2368 366.711 19.2768C365.911 18.3168 364.845 17.5835 363.511 17.0768C362.205 16.5435 360.685 16.2768 358.951 16.2768C356.951 16.2768 355.231 16.6501 353.791 17.3968C352.351 18.1168 351.245 19.1568 350.471 20.5168C349.698 21.8768 349.311 23.4901 349.311 25.3568C349.311 27.2235 349.698 28.8368 350.471 30.1968C351.245 31.5568 352.351 32.6101 353.791 33.3568C355.231 34.0768 356.951 34.4368 358.951 34.4368C360.685 34.4368 362.205 34.1835 363.511 33.6768C364.845 33.1701 365.911 32.4368 366.711 31.4768C367.538 30.5168 368.085 29.3435 368.351 27.9568H375.951ZM380.18 40.3568V10.3568H387.7V34.3168L385.66 32.7568L403.42 10.3568H411.42L386.98 40.3568H380.18ZM394.54 25.8368L399.98 21.1568L411.82 40.3568H403.26L394.54 25.8368ZM427.649 22.8368L449.369 22.8368V29.2768L427.649 29.2768V22.8368ZM450.089 10.3568V16.7968H427.809L431.529 13.0768V40.3568H423.969V10.3568H450.089ZM459.717 23.5568H470.957C472.37 23.5568 473.49 23.2368 474.317 22.5968C475.143 21.9301 475.557 21.0101 475.557 19.8368C475.557 18.6635 475.143 17.7568 474.317 17.1168C473.49 16.4501 472.37 16.1168 470.957 16.1168H458.637L462.037 12.3968V40.3568H454.477V10.3568L471.957 10.3568C474.197 10.3568 476.157 10.7568 477.837 11.5568C479.517 12.3568 480.823 13.4635 481.757 14.8768C482.69 16.2901 483.157 17.9435 483.157 19.8368C483.157 21.7035 482.69 23.3435 481.757 24.7568C480.823 26.1701 479.517 27.2768 477.837 28.0768C476.157 28.8501 474.197 29.2368 471.957 29.2368H459.717V23.5568ZM464.557 26.3168H473.077L484.117 40.3568H475.357L464.557 26.3168ZM488.071 10.3568H495.631V40.3568H488.071V10.3568ZM516.109 10.3568C519.629 10.3568 522.709 10.9835 525.349 12.2368C527.989 13.4901 530.042 15.2368 531.509 17.4768C533.002 19.7168 533.749 22.3435 533.749 25.3568C533.749 28.3435 533.002 30.9701 531.509 33.2368C530.042 35.4768 527.989 37.2235 525.349 38.4768C522.709 39.7301 519.629 40.3568 516.109 40.3568H501.469V10.3568H516.109ZM508.989 37.2768L505.309 33.6768H516.669C518.589 33.6768 520.256 33.3301 521.669 32.6368C523.082 31.9435 524.176 30.9835 524.949 29.7568C525.722 28.5035 526.109 27.0368 526.109 25.3568C526.109 23.6501 525.722 22.1835 524.949 20.9568C524.176 19.7301 523.082 18.7701 521.669 18.0768C520.256 17.3835 518.589 17.0368 516.669 17.0368H505.309L508.989 13.4368V37.2768ZM541.752 34.3168V28.2368L562.472 28.2368V34.3168H541.752ZM557.192 10.3568L571.032 40.3568H562.992L551.112 13.5168H553.432L541.592 40.3568H533.552L547.392 10.3568H557.192ZM579.278 40.3568V25.8368H586.838V40.3568H579.278ZM565.198 10.3568H573.558L584.758 24.5968H581.278L592.478 10.3568H600.838L585.478 29.8768L580.598 29.9568L565.198 10.3568Z"/>
</mask>
<path d="M261.621 25.6368L260.703 25.2399L260.029 26.7968L261.718 26.6321L261.621 25.6368ZM262.261 24.1568L262.283 23.1571L261.61 23.1418L261.343 23.7599L262.261 24.1568ZM268.021 25.2368L267.613 26.15L267.619 26.1526L268.021 25.2368ZM271.381 27.9968L270.528 28.5198L270.535 28.5313L270.543 28.5425L271.381 27.9968ZM271.381 36.3168L272.24 36.8286L272.244 36.8207L271.381 36.3168ZM268.021 39.2768L267.586 38.376L267.58 38.3791L268.021 39.2768ZM240.901 40.3568L239.912 40.2078L239.739 41.3568H240.901V40.3568ZM243.221 24.9568L244.209 25.1058L244.232 24.9527L244.208 24.7999L243.221 24.9568ZM240.901 10.3568V9.35681H239.729L239.913 10.5137L240.901 10.3568ZM268.181 12.3168L267.529 13.0751L267.536 13.0812L267.543 13.0872L268.181 12.3168ZM269.621 21.2368L268.73 20.7813L269.621 21.2368ZM266.821 24.1568L267.338 25.0127L267.344 25.0088L267.351 25.0048L266.821 24.1568ZM248.341 38.5168L247.563 39.1458L248.98 40.8978L249.329 38.6713L248.341 38.5168ZM245.461 34.9568V33.9568H243.365L244.683 35.5858L245.461 34.9568ZM263.741 34.0368L264.389 34.7981L264.391 34.7961L263.741 34.0368ZM263.621 28.6368L262.966 29.3925L262.979 29.4041L262.993 29.4152L263.621 28.6368ZM247.541 27.5968H246.541V28.5968H247.541V27.5968ZM247.541 22.3168V21.3168H246.541V22.3168H247.541ZM261.781 21.3968L262.429 22.1581L262.437 22.1512L262.445 22.1442L261.781 21.3968ZM261.941 16.6368L261.249 17.3595L261.258 17.3675L261.266 17.3753L261.941 16.6368ZM245.501 15.7568L244.719 15.1332L243.424 16.7568H245.501V15.7568ZM248.341 12.1968L249.327 12.0329L248.959 9.818L247.559 11.5732L248.341 12.1968ZM250.461 24.9568L251.449 25.1113L251.473 24.952L251.447 24.7929L250.461 24.9568ZM262.538 26.0337L263.178 24.5537L261.343 23.7599L260.703 25.2399L262.538 26.0337ZM262.238 25.1566C264.505 25.2081 266.281 25.5556 267.613 26.1499L268.428 24.3237C266.773 23.5847 264.709 23.2122 262.283 23.1571L262.238 25.1566ZM267.619 26.1526C268.991 26.7545 269.935 27.5535 270.528 28.5198L272.233 27.4738C271.386 26.0935 270.09 25.0525 268.422 24.321L267.619 26.1526ZM270.543 28.5425C271.172 29.5091 271.501 30.6483 271.501 31.9968H273.501C273.501 30.3053 273.082 28.7779 272.219 27.4511L270.543 28.5425ZM271.501 31.9968C271.501 33.4343 271.167 34.698 270.517 35.8129L272.244 36.8207C273.087 35.3756 273.501 33.7593 273.501 31.9968H271.501ZM270.521 35.805C269.888 36.8676 268.928 37.7293 267.586 38.376L268.455 40.1776C270.1 39.3844 271.379 38.2727 272.24 36.8286L270.521 35.805ZM267.58 38.3791C266.29 39.0123 264.613 39.3568 262.501 39.3568V41.3568C264.815 41.3568 266.818 40.9813 268.461 40.1745L267.58 38.3791ZM262.501 39.3568H240.901V41.3568H262.501V39.3568ZM241.889 40.5058L244.209 25.1058L242.232 24.8078L239.912 40.2078L241.889 40.5058ZM244.208 24.7999L241.888 10.1999L239.913 10.5137L242.233 25.1137L244.208 24.7999ZM240.901 11.3568H261.741V9.35681H240.901V11.3568ZM261.741 11.3568C264.366 11.3568 266.249 11.9752 267.529 13.0751L268.832 11.5585C267.072 10.0451 264.662 9.35681 261.741 9.35681V11.3568ZM267.543 13.0872C268.829 14.1513 269.501 15.6248 269.501 17.6368H271.501C271.501 15.1154 270.626 13.0424 268.818 11.5464L267.543 13.0872ZM269.501 17.6368C269.501 18.7273 269.247 19.7716 268.73 20.7813L270.511 21.6923C271.167 20.4087 271.501 19.053 271.501 17.6368H269.501ZM268.73 20.7813C268.239 21.7411 267.444 22.588 266.291 23.3088L267.351 25.0048C268.757 24.1256 269.828 23.0258 270.511 21.6923L268.73 20.7813ZM266.303 23.3009C265.197 23.9694 263.626 24.4364 261.523 24.6415L261.718 26.6321C263.989 26.4105 265.884 25.8909 267.338 25.0127L266.303 23.3009ZM249.118 37.8879L246.238 34.3279L244.683 35.5858L247.563 39.1458L249.118 37.8879ZM245.461 35.9568H260.701V33.9568H245.461V35.9568ZM260.701 35.9568C262.154 35.9568 263.429 35.6154 264.389 34.7981L263.092 33.2756C262.612 33.6849 261.86 33.9568 260.701 33.9568V35.9568ZM264.391 34.7961C265.397 33.9337 265.861 32.7417 265.861 31.3568H263.861C263.861 32.2652 263.577 32.8599 263.09 33.2776L264.391 34.7961ZM265.861 31.3568C265.861 29.9353 265.331 28.7316 264.248 27.8584L262.993 29.4152C263.563 29.8754 263.861 30.4849 263.861 31.3568H265.861ZM264.275 27.8811C263.22 26.9668 261.742 26.5968 260.021 26.5968V28.5968C261.499 28.5968 262.421 28.9202 262.966 29.3925L264.275 27.8811ZM260.021 26.5968H247.541V28.5968H260.021V26.5968ZM248.541 27.5968V22.3168H246.541V27.5968H248.541ZM247.541 23.3168H259.061V21.3168H247.541V23.3168ZM259.061 23.3168C260.352 23.3168 261.5 22.9491 262.429 22.1581L261.132 20.6356C260.621 21.0711 259.955 21.3168 259.061 21.3168V23.3168ZM262.445 22.1442C263.408 21.2878 263.861 20.133 263.861 18.7968H261.861C261.861 19.6473 261.593 20.2259 261.116 20.6494L262.445 22.1442ZM263.861 18.7968C263.861 17.6547 263.449 16.6601 262.615 15.8983L261.266 17.3753C261.659 17.7335 261.861 18.1789 261.861 18.7968H263.861ZM262.632 15.9142C261.771 15.0908 260.592 14.7568 259.261 14.7568V16.7568C260.276 16.7568 260.883 17.0095 261.249 17.3595L262.632 15.9142ZM259.261 14.7568H245.501V16.7568H259.261V14.7568ZM246.282 16.3804L249.122 12.8204L247.559 11.5732L244.719 15.1332L246.282 16.3804ZM247.354 12.3607L249.474 25.1207L251.447 24.7929L249.327 12.0329L247.354 12.3607ZM249.473 24.8023L247.353 38.3623L249.329 38.6713L251.449 25.1113L249.473 24.8023ZM284.341 10.3568H285.341V9.35681H284.341V10.3568ZM284.341 36.9968L283.643 37.7123L285.341 39.371V36.9968H284.341ZM280.941 33.6768V32.6768H278.486L280.243 34.3923L280.941 33.6768ZM303.421 33.6768H304.421V32.6768H303.421V33.6768ZM303.421 40.3568V41.3568H304.421V40.3568H303.421ZM276.781 40.3568H275.781V41.3568H276.781V40.3568ZM276.781 10.3568V9.35681H275.781V10.3568H276.781ZM283.341 10.3568V36.9968H285.341V10.3568H283.341ZM285.04 36.2813L281.64 32.9613L280.243 34.3923L283.643 37.7123L285.04 36.2813ZM280.941 34.6768H303.421V32.6768H280.941V34.6768ZM302.421 33.6768V40.3568H304.421V33.6768H302.421ZM303.421 39.3568H276.781V41.3568H303.421V39.3568ZM277.781 40.3568V10.3568H275.781V40.3568H277.781ZM276.781 11.3568H284.341V9.35681H276.781V11.3568ZM312.455 34.3168H311.455V35.3168H312.455V34.3168ZM312.455 28.2368V27.2368H311.455V28.2368H312.455ZM333.175 28.2368H334.175V27.2368H333.175V28.2368ZM333.175 34.3168V35.3168H334.175V34.3168H333.175ZM327.895 10.3568L328.803 9.9379L328.535 9.35681H327.895V10.3568ZM341.735 40.3568V41.3568H343.298L342.643 39.9379L341.735 40.3568ZM333.695 40.3568L332.78 40.7616L333.044 41.3568H333.695V40.3568ZM321.815 13.5168V12.5168H320.279L320.9 13.9216L321.815 13.5168ZM324.135 13.5168L325.05 13.9204L325.669 12.5168H324.135V13.5168ZM312.295 40.3568V41.3568H312.947L313.21 40.7604L312.295 40.3568ZM304.255 40.3568L303.347 39.9379L302.692 41.3568H304.255V40.3568ZM318.095 10.3568V9.35681H317.455L317.187 9.9379L318.095 10.3568ZM313.455 34.3168V28.2368H311.455V34.3168H313.455ZM312.455 29.2368H333.175V27.2368H312.455V29.2368ZM332.175 28.2368V34.3168H334.175V28.2368H332.175ZM333.175 33.3168H312.455V35.3168H333.175V33.3168ZM326.987 10.7757L340.827 40.7757L342.643 39.9379L328.803 9.9379L326.987 10.7757ZM341.735 39.3568H333.695V41.3568H341.735V39.3568ZM334.609 39.9521L322.729 13.1121L320.9 13.9216L332.78 40.7616L334.609 39.9521ZM321.815 14.5168H324.135V12.5168H321.815V14.5168ZM323.22 13.1132L311.38 39.9532L313.21 40.7604L325.05 13.9204L323.22 13.1132ZM312.295 39.3568H304.255V41.3568H312.295V39.3568ZM305.163 40.7757L319.003 10.7757L317.187 9.9379L303.347 39.9379L305.163 40.7757ZM318.095 11.3568H327.895V9.35681L318.095 9.35681V11.3568ZM375.951 27.9568L376.945 28.0695L377.071 26.9568H375.951V27.9568ZM373.271 34.7968L374.065 35.4055L374.069 35.4003L373.271 34.7968ZM367.351 39.3568L366.944 38.4434L367.351 39.3568ZM349.871 39.0368L349.421 39.9294L349.424 39.9312L349.871 39.0368ZM343.831 33.5568L342.979 34.0798L343.831 33.5568ZM343.831 17.1568L342.979 16.6338L343.831 17.1568ZM349.871 11.6768L349.424 10.7824L349.421 10.7842L349.871 11.6768ZM373.271 15.9168L372.478 16.5255V16.5255L373.271 15.9168ZM375.951 22.7568V23.7568H377.07L376.945 22.6453L375.951 22.7568ZM368.351 22.7568L367.37 22.9492L367.528 23.7568H368.351V22.7568ZM366.711 19.2768L365.943 19.917L365.948 19.9232L365.954 19.9293L366.711 19.2768ZM363.511 17.0768L363.134 18.0027L363.145 18.0073L363.156 18.0116L363.511 17.0768ZM353.791 17.3968L354.239 18.2912L354.245 18.288L354.252 18.2846L353.791 17.3968ZM350.471 20.5168L351.341 21.0111L350.471 20.5168ZM350.471 30.1968L349.602 30.6911V30.6911L350.471 30.1968ZM353.791 33.3568L353.331 34.2446L353.338 34.248L353.344 34.2512L353.791 33.3568ZM363.511 33.6768L363.156 32.742L363.15 32.7444L363.511 33.6768ZM366.711 31.4768L365.954 30.8243L365.948 30.8304L365.943 30.8366L366.711 31.4768ZM368.351 27.9568V26.9568H367.525L367.369 27.768L368.351 27.9568ZM374.958 27.8441C374.684 30.2622 373.853 32.3706 372.474 34.1934L374.069 35.4003C375.676 33.2763 376.633 30.8247 376.945 28.0695L374.958 27.8441ZM372.478 34.1882C371.095 35.9904 369.26 37.4113 366.944 38.4434L367.759 40.2702C370.349 39.1156 372.461 37.4966 374.065 35.4055L372.478 34.1882ZM366.944 38.4434C364.639 39.4707 361.982 39.9968 358.951 39.9968V41.9968C362.215 41.9968 365.157 41.4296 367.759 40.2702L366.944 38.4434ZM358.951 39.9968C355.639 39.9968 352.771 39.3683 350.319 38.1424L349.424 39.9312C352.199 41.3186 355.384 41.9968 358.951 41.9968V39.9968ZM350.322 38.1442C347.892 36.9166 346.022 35.214 344.684 33.0338L342.979 34.0798C344.521 36.593 346.678 38.5437 349.421 39.9294L350.322 38.1442ZM344.684 33.0338C343.353 30.8647 342.671 28.3174 342.671 25.3568H340.671C340.671 28.6363 341.43 31.5556 342.979 34.0798L344.684 33.0338ZM342.671 25.3568C342.671 22.3963 343.353 19.849 344.684 17.6798L342.979 16.6338C341.43 19.158 340.671 22.0774 340.671 25.3568H342.671ZM344.684 17.6798C346.022 15.4996 347.892 13.7971 350.322 12.5694L349.421 10.7842C346.678 12.1699 344.521 14.1206 342.979 16.6338L344.684 17.6798ZM350.319 12.5712C352.771 11.3453 355.639 10.7168 358.951 10.7168V8.71681C355.384 8.71681 352.199 9.39499 349.424 10.7824L350.319 12.5712ZM358.951 10.7168C361.982 10.7168 364.639 11.2429 366.944 12.2702L367.759 10.4434C365.157 9.28403 362.215 8.71681 358.951 8.71681V10.7168ZM366.944 12.2702C369.26 13.3023 371.095 14.7232 372.478 16.5255L374.065 15.3082C372.461 13.2171 370.349 11.598 367.759 10.4434L366.944 12.2702ZM372.478 16.5255C373.853 18.3173 374.683 20.4224 374.958 22.8684L376.945 22.6453C376.633 19.8646 375.677 17.4096 374.065 15.3082L372.478 16.5255ZM375.951 21.7568H368.351V23.7568H375.951V21.7568ZM369.333 22.5644C369.036 21.0507 368.419 19.7278 367.469 18.6243L365.954 19.9293C366.657 20.7458 367.134 21.743 367.37 22.9492L369.333 22.5644ZM367.48 18.6366C366.555 17.5268 365.338 16.701 363.867 16.142L363.156 18.0116C364.352 18.466 365.268 19.1068 365.943 19.917L367.48 18.6366ZM363.889 16.151C362.439 15.5589 360.786 15.2768 358.951 15.2768V17.2768C360.584 17.2768 361.971 17.5281 363.134 18.0027L363.889 16.151ZM358.951 15.2768C356.828 15.2768 354.943 15.6734 353.331 16.5091L354.252 18.2846C355.52 17.6269 357.075 17.2768 358.951 17.2768V15.2768ZM353.344 16.5024C351.732 17.3083 350.476 18.485 349.602 20.0225L351.341 21.0111C352.013 19.8286 352.97 18.9254 354.239 18.2912L353.344 16.5024ZM349.602 20.0225C348.728 21.5598 348.311 23.3504 348.311 25.3568H350.311C350.311 23.6299 350.668 22.1938 351.341 21.0111L349.602 20.0225ZM348.311 25.3568C348.311 27.3633 348.728 29.1538 349.602 30.6911L351.341 29.7025C350.668 28.5198 350.311 27.0837 350.311 25.3568H348.311ZM349.602 30.6911C350.475 32.2254 351.726 33.4124 353.331 34.2446L354.252 32.4691C352.977 31.8078 352.015 30.8882 351.341 29.7025L349.602 30.6911ZM353.344 34.2512C354.953 35.0554 356.833 35.4368 358.951 35.4368V33.4368C357.07 33.4368 355.51 33.0982 354.239 32.4624L353.344 34.2512ZM358.951 35.4368C360.78 35.4368 362.427 35.1697 363.873 34.6092L363.15 32.7444C361.982 33.1972 360.589 33.4368 358.951 33.4368V35.4368ZM363.867 34.6116C365.338 34.0526 366.555 33.2268 367.48 32.117L365.943 30.8366C365.268 31.6468 364.352 32.2877 363.156 32.742L363.867 34.6116ZM367.469 32.1293C368.422 31.0223 369.038 29.6837 369.333 28.1457L367.369 27.768C367.132 29.0032 366.654 30.0113 365.954 30.8243L367.469 32.1293ZM368.351 28.9568H375.951V26.9568H368.351V28.9568ZM380.18 40.3568H379.18V41.3568H380.18V40.3568ZM380.18 10.3568V9.35681H379.18V10.3568H380.18ZM387.7 10.3568H388.7V9.35681H387.7V10.3568ZM387.7 34.3168L387.092 35.1112L388.7 36.3404V34.3168H387.7ZM385.66 32.7568L384.876 32.1355L384.244 32.933L385.052 33.5512L385.66 32.7568ZM403.42 10.3568V9.35681H402.937L402.636 9.73553L403.42 10.3568ZM411.42 10.3568L412.195 10.9884L413.524 9.35681H411.42V10.3568ZM386.98 40.3568V41.3568H387.455L387.755 40.9884L386.98 40.3568ZM394.54 25.8368L393.888 25.0787L393.248 25.6287L393.683 26.3517L394.54 25.8368ZM399.98 21.1568L400.831 20.6319L400.216 19.6345L399.328 20.3987L399.98 21.1568ZM411.82 40.3568V41.3568H413.611L412.671 39.8319L411.82 40.3568ZM403.26 40.3568L402.403 40.8717L402.694 41.3568H403.26V40.3568ZM381.18 40.3568V10.3568H379.18V40.3568H381.18ZM380.18 11.3568H387.7V9.35681H380.18V11.3568ZM386.7 10.3568V34.3168H388.7V10.3568H386.7ZM388.307 33.5225L386.267 31.9625L385.052 33.5512L387.092 35.1112L388.307 33.5225ZM386.443 33.3781L404.203 10.9781L402.636 9.73553L384.876 32.1355L386.443 33.3781ZM403.42 11.3568H411.42V9.35681H403.42V11.3568ZM410.645 9.72521L386.205 39.7252L387.755 40.9884L412.195 10.9884L410.645 9.72521ZM386.98 39.3568H380.18V41.3568H386.98V39.3568ZM395.192 26.5949L400.632 21.9149L399.328 20.3987L393.888 25.0787L395.192 26.5949ZM399.129 21.6817L410.969 40.8817L412.671 39.8319L400.831 20.6319L399.129 21.6817ZM411.82 39.3568H403.26V41.3568H411.82V39.3568ZM404.117 39.842L395.397 25.322L393.683 26.3517L402.403 40.8717L404.117 39.842ZM427.649 22.8368V21.8368H426.649V22.8368H427.649ZM449.369 22.8368H450.369V21.8368H449.369V22.8368ZM449.369 29.2768V30.2768H450.369V29.2768H449.369ZM427.649 29.2768H426.649V30.2768H427.649V29.2768ZM450.089 10.3568H451.089V9.35681H450.089V10.3568ZM450.089 16.7968V17.7968H451.089V16.7968H450.089ZM427.809 16.7968L427.102 16.0897L425.395 17.7968H427.809V16.7968ZM431.529 13.0768H432.529V10.6626L430.822 12.3697L431.529 13.0768ZM431.529 40.3568V41.3568H432.529V40.3568H431.529ZM423.969 40.3568H422.969V41.3568H423.969V40.3568ZM423.969 10.3568V9.35681H422.969V10.3568H423.969ZM427.649 23.8368L449.369 23.8368V21.8368L427.649 21.8368V23.8368ZM448.369 22.8368V29.2768H450.369V22.8368H448.369ZM449.369 28.2768L427.649 28.2768V30.2768L449.369 30.2768V28.2768ZM428.649 29.2768V22.8368H426.649V29.2768H428.649ZM449.089 10.3568V16.7968H451.089V10.3568H449.089ZM450.089 15.7968H427.809V17.7968L450.089 17.7968V15.7968ZM428.516 17.5039L432.236 13.7839L430.822 12.3697L427.102 16.0897L428.516 17.5039ZM430.529 13.0768V40.3568H432.529V13.0768H430.529ZM431.529 39.3568H423.969V41.3568H431.529V39.3568ZM424.969 40.3568V10.3568H422.969V40.3568H424.969ZM423.969 11.3568H450.089V9.35681L423.969 9.35681V11.3568ZM459.717 23.5568V22.5568H458.717V23.5568H459.717ZM474.317 22.5968L474.929 23.3875L474.937 23.3815L474.945 23.3752L474.317 22.5968ZM474.317 17.1168L473.689 17.8952L473.697 17.9015L473.705 17.9075L474.317 17.1168ZM458.637 16.1168L457.899 15.4422L456.368 17.1168H458.637V16.1168ZM462.037 12.3968L463.037 12.3968V9.82043L461.299 11.7222L462.037 12.3968ZM462.037 40.3568V41.3568H463.037V40.3568H462.037ZM454.477 40.3568H453.477V41.3568H454.477V40.3568ZM454.477 10.3568V9.35681H453.477V10.3568H454.477ZM477.837 11.5568L477.407 12.4597L477.837 11.5568ZM481.757 14.8768L482.591 14.3257L481.757 14.8768ZM481.757 24.7568L482.591 25.3079L481.757 24.7568ZM477.837 28.0768L478.255 28.9853L478.267 28.9797L477.837 28.0768ZM459.717 29.2368H458.717V30.2368H459.717V29.2368ZM464.557 26.3168V25.3168H462.526L463.764 26.9265L464.557 26.3168ZM473.077 26.3168L473.863 25.6987L473.563 25.3168H473.077V26.3168ZM484.117 40.3568V41.3568H486.175L484.903 39.7387L484.117 40.3568ZM475.357 40.3568L474.564 40.9665L474.864 41.3568H475.357V40.3568ZM459.717 24.5568H470.957V22.5568H459.717V24.5568ZM470.957 24.5568C472.514 24.5568 473.874 24.204 474.929 23.3875L473.705 21.8061C473.106 22.2697 472.226 22.5568 470.957 22.5568V24.5568ZM474.945 23.3752C476.033 22.4972 476.557 21.2765 476.557 19.8368H474.557C474.557 20.7438 474.254 21.3631 473.689 21.8184L474.945 23.3752ZM476.557 19.8368C476.557 18.3973 476.032 17.1804 474.929 16.3261L473.705 17.9075C474.254 18.3332 474.557 18.9297 474.557 19.8368H476.557ZM474.945 16.3384C473.889 15.4871 472.523 15.1168 470.957 15.1168V17.1168C472.217 17.1168 473.091 17.4132 473.689 17.8952L474.945 16.3384ZM470.957 15.1168L458.637 15.1168V17.1168H470.957V15.1168ZM459.375 16.7915L462.775 13.0715L461.299 11.7222L457.899 15.4422L459.375 16.7915ZM461.037 12.3968V40.3568H463.037V12.3968L461.037 12.3968ZM462.037 39.3568H454.477V41.3568H462.037V39.3568ZM455.477 40.3568V10.3568H453.477V40.3568H455.477ZM454.477 11.3568L471.957 11.3568V9.35681H454.477V11.3568ZM471.957 11.3568C474.078 11.3568 475.886 11.7353 477.407 12.4597L478.267 10.6539C476.428 9.77829 474.316 9.35681 471.957 9.35681V11.3568ZM477.407 12.4597C478.939 13.1894 480.099 14.1812 480.922 15.4279L482.591 14.3257C481.548 12.7458 480.094 11.5242 478.267 10.6539L477.407 12.4597ZM480.922 15.4279C481.735 16.6588 482.157 18.1155 482.157 19.8368H484.157C484.157 17.7715 483.645 15.9215 482.591 14.3257L480.922 15.4279ZM482.157 19.8368C482.157 21.5283 481.737 22.9725 480.922 24.2057L482.591 25.3079C483.643 23.7145 484.157 21.8786 484.157 19.8368H482.157ZM480.922 24.2057C480.099 25.4524 478.939 26.4443 477.407 27.174L478.267 28.9797C480.094 28.1094 481.548 26.8879 482.591 25.3079L480.922 24.2057ZM477.419 27.1684C475.894 27.87 474.082 28.2368 471.957 28.2368V30.2368C474.311 30.2368 476.419 29.8303 478.255 28.9852L477.419 27.1684ZM471.957 28.2368H459.717V30.2368H471.957V28.2368ZM460.717 29.2368V23.5568H458.717V29.2368H460.717ZM464.557 27.3168H473.077V25.3168H464.557V27.3168ZM472.291 26.9349L483.331 40.9749L484.903 39.7387L473.863 25.6987L472.291 26.9349ZM484.117 39.3568H475.357V41.3568H484.117V39.3568ZM476.149 39.7471L465.349 25.7071L463.764 26.9265L474.564 40.9665L476.149 39.7471ZM488.071 10.3568V9.35681H487.071V10.3568H488.071ZM495.631 10.3568H496.631V9.35681H495.631V10.3568ZM495.631 40.3568V41.3568H496.631V40.3568H495.631ZM488.071 40.3568H487.071V41.3568H488.071V40.3568ZM488.071 11.3568H495.631V9.35681H488.071V11.3568ZM494.631 10.3568V40.3568H496.631V10.3568H494.631ZM495.631 39.3568H488.071V41.3568H495.631V39.3568ZM489.071 40.3568V10.3568H487.071V40.3568H489.071ZM525.349 12.2368L524.92 13.1402L525.349 12.2368ZM531.509 17.4768L530.672 18.0246L530.677 18.0315L531.509 17.4768ZM531.509 33.2368L530.674 32.6867L530.672 32.689L531.509 33.2368ZM525.349 38.4768L524.92 37.5734L525.349 38.4768ZM501.469 40.3568H500.469V41.3568H501.469V40.3568ZM501.469 10.3568V9.35681H500.469V10.3568H501.469ZM508.989 37.2768L508.29 37.9916L509.989 39.654V37.2768H508.989ZM505.309 33.6768V32.6768H502.857L504.61 34.3916L505.309 33.6768ZM521.669 32.6368L521.229 31.739L521.669 32.6368ZM524.949 29.7568L525.795 30.2901L525.8 30.2819L524.949 29.7568ZM524.949 20.9568L524.103 21.4901L524.949 20.9568ZM521.669 18.0768L522.109 17.179V17.179L521.669 18.0768ZM505.309 17.0368L504.61 16.322L502.857 18.0368H505.309V17.0368ZM508.989 13.4368H509.989V11.0596L508.29 12.722L508.989 13.4368ZM516.109 11.3568C519.51 11.3568 522.439 11.9621 524.92 13.1402L525.778 11.3334C522.979 10.0048 519.747 9.35681 516.109 9.35681V11.3568ZM524.92 13.1402C527.41 14.3222 529.315 15.9523 530.672 18.0246L532.346 16.929C530.769 14.5214 528.568 12.6581 525.778 11.3334L524.92 13.1402ZM530.677 18.0315C532.048 20.088 532.749 22.5165 532.749 25.3568H534.749C534.749 22.1705 533.957 19.3456 532.341 16.9221L530.677 18.0315ZM532.749 25.3568C532.749 28.1683 532.049 30.5995 530.674 32.6867L532.344 33.787C533.956 31.3407 534.749 28.5186 534.749 25.3568H532.749ZM530.672 32.689C529.315 34.7614 527.41 36.3915 524.92 37.5734L525.778 39.3802C528.568 38.0555 530.769 36.1923 532.346 33.7846L530.672 32.689ZM524.92 37.5734C522.439 38.7515 519.51 39.3568 516.109 39.3568V41.3568C519.747 41.3568 522.979 40.7088 525.778 39.3802L524.92 37.5734ZM516.109 39.3568H501.469V41.3568H516.109V39.3568ZM502.469 40.3568V10.3568H500.469V40.3568H502.469ZM501.469 11.3568H516.109V9.35681H501.469V11.3568ZM509.688 36.562L506.008 32.962L504.61 34.3916L508.29 37.9916L509.688 36.562ZM505.309 34.6768H516.669V32.6768H505.309V34.6768ZM516.669 34.6768C518.709 34.6768 520.532 34.3083 522.109 33.5346L521.229 31.739C519.979 32.352 518.469 32.6768 516.669 32.6768V34.6768ZM522.109 33.5346C523.674 32.7669 524.914 31.6868 525.795 30.2901L524.103 29.2235C523.437 30.2801 522.49 31.12 521.229 31.739L522.109 33.5346ZM525.8 30.2819C526.684 28.8495 527.109 27.1956 527.109 25.3568H525.109C525.109 26.878 524.761 28.1575 524.098 29.2317L525.8 30.2819ZM527.109 25.3568C527.109 23.4953 526.686 21.8363 525.795 20.4235L524.103 21.4901C524.759 22.5307 525.109 23.805 525.109 25.3568H527.109ZM525.795 20.4235C524.914 19.0268 523.674 17.9467 522.109 17.179L521.229 18.9746C522.49 19.5936 523.437 20.4335 524.103 21.4901L525.795 20.4235ZM522.109 17.179C520.532 16.4053 518.709 16.0368 516.669 16.0368V18.0368C518.469 18.0368 519.979 18.3617 521.229 18.9746L522.109 17.179ZM516.669 16.0368H505.309V18.0368H516.669V16.0368ZM506.008 17.7516L509.688 14.1516L508.29 12.722L504.61 16.322L506.008 17.7516ZM507.989 13.4368V37.2768H509.989V13.4368H507.989ZM541.752 34.3168H540.752V35.3168H541.752V34.3168ZM541.752 28.2368V27.2368H540.752V28.2368H541.752ZM562.472 28.2368H563.472V27.2368H562.472V28.2368ZM562.472 34.3168V35.3168H563.472V34.3168H562.472ZM557.192 10.3568L558.1 9.9379L557.832 9.35681H557.192V10.3568ZM571.032 40.3568V41.3568H572.594L571.94 39.9379L571.032 40.3568ZM562.992 40.3568L562.077 40.7616L562.341 41.3568H562.992V40.3568ZM551.112 13.5168V12.5168H549.576L550.197 13.9216L551.112 13.5168ZM553.432 13.5168L554.347 13.9204L554.966 12.5168H553.432V13.5168ZM541.592 40.3568V41.3568H542.244L542.507 40.7604L541.592 40.3568ZM533.552 40.3568L532.644 39.9379L531.989 41.3568H533.552V40.3568ZM547.392 10.3568V9.35681H546.752L546.484 9.9379L547.392 10.3568ZM542.752 34.3168V28.2368H540.752V34.3168H542.752ZM541.752 29.2368L562.472 29.2368V27.2368L541.752 27.2368V29.2368ZM561.472 28.2368V34.3168H563.472V28.2368H561.472ZM562.472 33.3168L541.752 33.3168V35.3168H562.472V33.3168ZM556.284 10.7757L570.124 40.7757L571.94 39.9379L558.1 9.9379L556.284 10.7757ZM571.032 39.3568H562.992V41.3568H571.032V39.3568ZM563.906 39.9521L552.026 13.1121L550.197 13.9216L562.077 40.7616L563.906 39.9521ZM551.112 14.5168H553.432V12.5168H551.112V14.5168ZM552.517 13.1132L540.677 39.9532L542.507 40.7604L554.347 13.9204L552.517 13.1132ZM541.592 39.3568H533.552V41.3568H541.592V39.3568ZM534.46 40.7757L548.3 10.7757L546.484 9.9379L532.644 39.9379L534.46 40.7757ZM547.392 11.3568H557.192V9.35681H547.392V11.3568ZM579.278 40.3568H578.278V41.3568H579.278V40.3568ZM579.278 25.8368V24.8368H578.278V25.8368H579.278ZM586.838 25.8368H587.838V24.8368H586.838V25.8368ZM586.838 40.3568V41.3568H587.838V40.3568H586.838ZM565.198 10.3568V9.35681H563.141L564.412 10.9746L565.198 10.3568ZM573.558 10.3568L574.344 9.7386L574.044 9.35681H573.558V10.3568ZM584.758 24.5968V25.5968H586.817L585.544 23.9786L584.758 24.5968ZM581.278 24.5968L580.492 23.9786L579.219 25.5968H581.278V24.5968ZM592.478 10.3568V9.35681H591.992L591.692 9.7386L592.478 10.3568ZM600.838 10.3568L601.624 10.9752L602.897 9.35681H600.838V10.3568ZM585.478 29.8768L585.494 30.8767L585.97 30.8689L586.264 30.4952L585.478 29.8768ZM580.598 29.9568L579.812 30.5746L580.118 30.9648L580.614 30.9567L580.598 29.9568ZM580.278 40.3568V25.8368H578.278V40.3568H580.278ZM579.278 26.8368H586.838V24.8368H579.278V26.8368ZM585.838 25.8368V40.3568H587.838V25.8368H585.838ZM586.838 39.3568H579.278V41.3568H586.838V39.3568ZM565.198 11.3568H573.558V9.35681H565.198V11.3568ZM572.772 10.975L583.972 25.215L585.544 23.9786L574.344 9.7386L572.772 10.975ZM584.758 23.5968H581.278V25.5968H584.758V23.5968ZM582.064 25.215L593.264 10.975L591.692 9.7386L580.492 23.9786L582.064 25.215ZM592.478 11.3568H600.838V9.35681H592.478V11.3568ZM600.052 9.73842L584.692 29.2584L586.264 30.4952L601.624 10.9752L600.052 9.73842ZM585.462 28.8769L580.582 28.9569L580.614 30.9567L585.494 30.8767L585.462 28.8769ZM581.384 29.339L565.984 9.73899L564.412 10.9746L579.812 30.5746L581.384 29.339Z" fill="#8F8FFF" mask="url(#path-4-outside-2_1_1409)"/>
</svg>
