<svg width="603" height="50" viewBox="0 0 603 50" fill="none" xmlns="http://www.w3.org/2000/svg">
<path d="M15.2027 10.2317L21.3452 27.9935M21.3452 27.9935L20.9012 45.4086M21.3452 27.9935L1.65955 41.4231M21.3452 27.9935L40.5128 29.2065M21.3452 27.9935L32.0021 0.70105M21.3452 27.9935L47.6914 42.2029M21.3452 27.9935L10.9103 46.6216M21.3452 27.9935L2.62163 11.4447M21.3452 27.9935L39.3287 15.1704M21.3452 27.9935L5.13784 26.5205M21.3452 27.9935L32.0021 48.701" stroke="#8F8FFF" stroke-width="2.4"/>
<mask id="path-2-outside-1_2201_125" maskUnits="userSpaceOnUse" x="79.6914" y="7.70105" width="135" height="34" fill="black">
<rect fill="white" x="79.6914" y="7.70105" width="135" height="34"/>
<path d="M81.1314 20.381C81.2914 18.061 82.0514 16.061 83.4114 14.381C84.7714 12.6744 86.5714 11.3677 88.8114 10.461C91.0781 9.52771 93.6381 9.06105 96.4914 9.06105C99.2114 9.06105 101.585 9.47438 103.611 10.301C105.638 11.1277 107.225 12.2877 108.371 13.781C109.518 15.2744 110.091 16.9944 110.091 18.941C110.091 20.461 109.691 21.8744 108.891 23.181C108.091 24.461 106.825 25.741 105.091 27.021C103.358 28.301 101.078 29.661 98.2514 31.101L89.5714 35.661L89.1714 33.701H110.931V39.701H81.6514V34.421L94.5314 27.021C96.5847 25.8477 98.1847 24.8477 99.3314 24.021C100.505 23.1677 101.331 22.381 101.811 21.661C102.291 20.941 102.531 20.1677 102.531 19.341C102.531 18.4877 102.291 17.7277 101.811 17.061C101.358 16.3944 100.665 15.8744 99.7314 15.501C98.7981 15.1277 97.6247 14.941 96.2114 14.941C94.5314 14.941 93.1447 15.1944 92.0514 15.701C90.9581 16.181 90.1447 16.8344 89.6114 17.661C89.0781 18.4877 88.7581 19.3944 88.6514 20.381H81.1314ZM130.981 40.341C127.594 40.341 124.661 39.6877 122.181 38.381C119.701 37.0744 117.781 35.261 116.421 32.941C115.061 30.5944 114.381 27.8477 114.381 24.701C114.381 21.581 115.061 18.8477 116.421 16.501C117.781 14.1544 119.701 12.3277 122.181 11.021C124.661 9.71438 127.594 9.06105 130.981 9.06105C134.341 9.06105 137.261 9.71438 139.741 11.021C142.221 12.3277 144.141 14.1544 145.501 16.501C146.861 18.821 147.541 21.5544 147.541 24.701C147.541 27.821 146.861 30.5544 145.501 32.901C144.141 35.2477 142.221 37.0744 139.741 38.381C137.261 39.6877 134.341 40.341 130.981 40.341ZM130.981 34.181C133.834 34.181 136.048 33.3544 137.621 31.701C139.221 30.0477 140.021 27.7144 140.021 24.701C140.021 21.6877 139.221 19.3544 137.621 17.701C136.048 16.0477 133.834 15.221 130.981 15.221C128.128 15.221 125.901 16.0477 124.301 17.701C122.701 19.3544 121.901 21.6877 121.901 24.701C121.901 27.7144 122.701 30.0477 124.301 31.701C125.901 33.3544 128.128 34.181 130.981 34.181ZM150.741 20.381C150.901 18.061 151.661 16.061 153.021 14.381C154.381 12.6744 156.181 11.3677 158.421 10.461C160.687 9.52771 163.247 9.06105 166.101 9.06105C168.821 9.06105 171.194 9.47438 173.221 10.301C175.247 11.1277 176.834 12.2877 177.981 13.781C179.127 15.2744 179.701 16.9944 179.701 18.941C179.701 20.461 179.301 21.8744 178.501 23.181C177.701 24.461 176.434 25.741 174.701 27.021C172.967 28.301 170.687 29.661 167.861 31.101L159.181 35.661L158.781 33.701H180.541V39.701H151.261V34.421L164.141 27.021C166.194 25.8477 167.794 24.8477 168.941 24.021C170.114 23.1677 170.941 22.381 171.421 21.661C171.901 20.941 172.141 20.1677 172.141 19.341C172.141 18.4877 171.901 17.7277 171.421 17.061C170.967 16.3944 170.274 15.8744 169.341 15.501C168.407 15.1277 167.234 14.941 165.821 14.941C164.141 14.941 162.754 15.1944 161.661 15.701C160.567 16.181 159.754 16.8344 159.221 17.661C158.687 18.4877 158.367 19.3944 158.261 20.381H150.741ZM184.23 19.301C184.364 17.4077 185.03 15.6877 186.23 14.141C187.43 12.5944 189.137 11.3677 191.35 10.461C193.59 9.52771 196.284 9.06105 199.43 9.06105C202.177 9.06105 204.55 9.42105 206.55 10.141C208.577 10.8344 210.15 11.8077 211.27 13.061C212.39 14.2877 212.95 15.741 212.95 17.421C212.95 18.781 212.537 20.021 211.71 21.141C210.91 22.2344 209.644 23.1144 207.91 23.781C206.177 24.421 203.964 24.7277 201.27 24.701V23.901C203.83 23.7677 206.03 23.9544 207.87 24.461C209.71 24.9677 211.124 25.7677 212.11 26.861C213.097 27.9544 213.59 29.3277 213.59 30.981C213.59 32.7944 213.017 34.4077 211.87 35.821C210.724 37.2077 209.044 38.3144 206.83 39.141C204.644 39.941 201.977 40.341 198.83 40.341C195.764 40.341 193.084 39.9144 190.79 39.061C188.524 38.181 186.75 36.9677 185.47 35.421C184.217 33.8477 183.537 32.0077 183.43 29.901H190.95C191.164 31.3677 191.91 32.501 193.19 33.301C194.497 34.0744 196.377 34.461 198.83 34.461C201.15 34.461 202.91 34.1144 204.11 33.421C205.337 32.701 205.95 31.701 205.95 30.421C205.95 29.6744 205.75 29.061 205.35 28.581C204.95 28.0744 204.27 27.6877 203.31 27.421C202.35 27.1544 201.017 27.021 199.31 27.021H194.11V21.861H199.31C201.524 21.861 203.084 21.5544 203.99 20.941C204.897 20.301 205.35 19.4744 205.35 18.461C205.35 17.341 204.817 16.4744 203.75 15.861C202.71 15.2477 201.137 14.941 199.03 14.941C196.844 14.941 195.137 15.3144 193.91 16.061C192.71 16.8077 191.99 17.8877 191.75 19.301H184.23Z"/>
</mask>
<path d="M81.1314 20.381L80.1338 20.3122L80.0601 21.381H81.1314V20.381ZM83.4114 14.381L84.1887 15.0103L84.1935 15.0043L83.4114 14.381ZM88.8114 10.461L89.1866 11.388L89.1922 11.3857L88.8114 10.461ZM103.611 10.301L103.234 11.227L103.611 10.301ZM108.371 13.781L107.578 14.3901V14.3901L108.371 13.781ZM108.891 23.181L109.739 23.7111L109.744 23.7032L108.891 23.181ZM105.091 27.021L105.685 27.8255L105.091 27.021ZM98.2514 31.101L97.7974 30.2099L97.7863 30.2158L98.2514 31.101ZM89.5714 35.661L88.5916 35.861L88.8578 37.1655L90.0365 36.5463L89.5714 35.661ZM89.1714 33.701V32.701H87.9467L88.1916 33.901L89.1714 33.701ZM110.931 33.701H111.931V32.701H110.931V33.701ZM110.931 39.701V40.701H111.931V39.701H110.931ZM81.6514 39.701H80.6514V40.701H81.6514V39.701ZM81.6514 34.421L81.1532 33.554L80.6514 33.8423V34.421H81.6514ZM94.5314 27.021L94.0353 26.1528L94.0332 26.154L94.5314 27.021ZM99.3314 24.021L99.9162 24.8322L99.9196 24.8298L99.3314 24.021ZM101.811 21.661L100.979 21.1063L101.811 21.661ZM101.811 17.061L100.984 17.6234L100.992 17.6345L101 17.6454L101.811 17.061ZM99.7314 15.501L100.103 14.5726L99.7314 15.501ZM92.0514 15.701L92.4534 16.6167L92.4627 16.6126L92.4719 16.6084L92.0514 15.701ZM89.6114 17.661L90.4517 18.2032L89.6114 17.661ZM88.6514 20.381V21.381H89.5491L89.6456 20.4885L88.6514 20.381ZM82.129 20.4499C82.276 18.3185 82.9679 16.5182 84.1887 15.0102L82.6342 13.7519C81.1349 15.6039 80.3068 17.8036 80.1338 20.3122L82.129 20.4499ZM84.1935 15.0043C85.435 13.4462 87.0886 12.2372 89.1866 11.388L88.4362 9.5341C86.0542 10.4982 84.1078 11.9026 82.6293 13.7578L84.1935 15.0043ZM89.1922 11.3857C91.3199 10.5096 93.7475 10.061 96.4914 10.061V8.06105C93.5286 8.06105 90.8362 8.54584 88.4307 9.53637L89.1922 11.3857ZM96.4914 10.061C99.1123 10.061 101.352 10.4595 103.234 11.227L103.989 9.37511C101.817 8.48924 99.3105 8.06105 96.4914 8.06105V10.061ZM103.234 11.227C105.123 11.9977 106.556 13.0588 107.578 14.3901L109.165 13.172C107.893 11.5167 106.153 10.2577 103.989 9.37511L103.234 11.227ZM107.578 14.3901C108.586 15.7024 109.091 17.2066 109.091 18.941H111.091C111.091 16.7822 110.45 14.8463 109.165 13.172L107.578 14.3901ZM109.091 18.941C109.091 20.2752 108.743 21.5081 108.039 22.6589L109.744 23.7032C110.64 22.2407 111.091 20.6469 111.091 18.941H109.091ZM108.043 22.651C107.332 23.7893 106.169 24.9819 104.497 26.2166L105.685 27.8255C107.48 26.5002 108.851 25.1328 109.739 23.711L108.043 22.651ZM104.497 26.2166C102.824 27.4526 100.596 28.7845 97.7975 30.21L98.7053 31.9921C101.56 30.5376 103.893 29.1495 105.685 27.8255L104.497 26.2166ZM97.7863 30.2158L89.1063 34.7758L90.0365 36.5463L98.7165 31.9863L97.7863 30.2158ZM90.5512 35.4611L90.1512 33.5011L88.1916 33.901L88.5916 35.861L90.5512 35.4611ZM89.1714 34.701H110.931V32.701H89.1714V34.701ZM109.931 33.701V39.701H111.931V33.701H109.931ZM110.931 38.701H81.6514V40.701H110.931V38.701ZM82.6514 39.701V34.421H80.6514V39.701H82.6514ZM82.1496 35.2881L95.0296 27.8881L94.0332 26.154L81.1532 33.554L82.1496 35.2881ZM95.0275 27.8893C97.0941 26.7084 98.7284 25.6885 99.9162 24.8322L98.7466 23.2099C97.6411 24.0069 96.0754 24.987 94.0353 26.1528L95.0275 27.8893ZM99.9196 24.8298C101.133 23.9474 102.068 23.0787 102.643 22.2157L100.979 21.1063C100.595 21.6834 99.8766 22.388 98.7432 23.2123L99.9196 24.8298ZM102.643 22.2157C103.228 21.3396 103.531 20.3747 103.531 19.341H101.531C101.531 19.9608 101.355 20.5425 100.979 21.1063L102.643 22.2157ZM103.531 19.341C103.531 18.2867 103.23 17.3205 102.623 16.4767L101 17.6454C101.352 18.1349 101.531 18.6888 101.531 19.341H103.531ZM102.638 16.4987C102.048 15.6308 101.175 15.0015 100.103 14.5726L99.36 16.4295C100.154 16.7472 100.668 17.1579 100.984 17.6234L102.638 16.4987ZM100.103 14.5726C99.0139 14.137 97.7041 13.941 96.2114 13.941V15.941C97.5453 15.941 98.5823 16.1184 99.36 16.4295L100.103 14.5726ZM96.2114 13.941C94.4398 13.941 92.8973 14.2069 91.6309 14.7937L92.4719 16.6084C93.3922 16.1819 94.623 15.941 96.2114 15.941V13.941ZM91.6494 14.7854C90.4153 15.3272 89.4316 16.0952 88.7711 17.1189L90.4517 18.2032C90.8579 17.5736 91.5008 17.0349 92.4534 16.6167L91.6494 14.7854ZM88.7711 17.1189C88.1525 18.0777 87.7805 19.1334 87.6572 20.2736L89.6456 20.4885C89.7357 19.6553 90.0036 18.8977 90.4517 18.2032L88.7711 17.1189ZM88.6514 19.381H81.1314V21.381H88.6514V19.381ZM122.181 38.381L121.715 39.2658L122.181 38.381ZM116.421 32.941L115.556 33.4425L115.558 33.4468L116.421 32.941ZM116.421 16.501L115.556 15.9996L116.421 16.501ZM122.181 11.021L122.647 11.9058V11.9058L122.181 11.021ZM139.741 11.021L139.275 11.9058V11.9058L139.741 11.021ZM145.501 16.501L144.636 17.0025L144.638 17.0068L145.501 16.501ZM145.501 32.901L146.366 33.4025L145.501 32.901ZM139.741 38.381L140.207 39.2658L139.741 38.381ZM137.621 31.701L136.902 31.0056L136.897 31.0117L137.621 31.701ZM137.621 17.701L136.897 18.3904L136.902 18.3965L137.621 17.701ZM124.301 17.701L125.02 18.3965L124.301 17.701ZM124.301 31.701L123.582 32.3965L124.301 31.701ZM130.981 39.341C127.723 39.341 124.957 38.7131 122.647 37.4963L121.715 39.2658C124.366 40.6624 127.466 41.341 130.981 41.341V39.341ZM122.647 37.4963C120.325 36.2727 118.545 34.5875 117.284 32.4353L115.558 33.4468C117.017 35.9346 119.077 37.8761 121.715 39.2658L122.647 37.4963ZM117.286 32.4396C116.028 30.2682 115.381 27.7002 115.381 24.701H113.381C113.381 27.9953 114.094 30.9205 115.556 33.4425L117.286 32.4396ZM115.381 24.701C115.381 21.7303 116.027 19.1751 117.286 17.0025L115.556 15.9996C114.095 18.5203 113.381 21.4318 113.381 24.701H115.381ZM117.286 17.0025C118.549 14.8242 120.328 13.1278 122.647 11.9058L121.715 10.1363C119.074 11.5276 117.013 13.4846 115.556 15.9996L117.286 17.0025ZM122.647 11.9058C124.957 10.689 127.723 10.061 130.981 10.061V8.06105C127.466 8.06105 124.366 8.73973 121.715 10.1363L122.647 11.9058ZM130.981 10.061C134.211 10.061 136.965 10.6885 139.275 11.9058L140.207 10.1363C137.558 8.74029 134.471 8.06105 130.981 8.06105V10.061ZM139.275 11.9058C141.594 13.1278 143.373 14.8242 144.636 17.0025L146.366 15.9996C144.909 13.4846 142.848 11.5276 140.207 10.1363L139.275 11.9058ZM144.638 17.0068C145.894 19.149 146.541 21.7016 146.541 24.701H148.541C148.541 21.4071 147.828 18.4931 146.364 15.9953L144.638 17.0068ZM146.541 24.701C146.541 27.6718 145.895 30.227 144.636 32.3996L146.366 33.4025C147.827 30.8818 148.541 27.9703 148.541 24.701H146.541ZM144.636 32.3996C143.373 34.5779 141.594 36.2743 139.275 37.4963L140.207 39.2658C142.848 37.8745 144.909 35.9175 146.366 33.4025L144.636 32.3996ZM139.275 37.4963C136.965 38.7136 134.211 39.341 130.981 39.341V41.341C134.471 41.341 137.558 40.6618 140.207 39.2658L139.275 37.4963ZM130.981 35.181C134.035 35.181 136.538 34.2894 138.346 32.3904L136.897 31.0117C135.557 32.4194 133.634 33.181 130.981 33.181V35.181ZM138.34 32.3965C140.171 30.5044 141.021 27.8908 141.021 24.701H139.021C139.021 27.538 138.271 29.591 136.902 31.0056L138.34 32.3965ZM141.021 24.701C141.021 21.5113 140.171 18.8977 138.34 17.0056L136.902 18.3965C138.271 19.811 139.021 21.8641 139.021 24.701H141.021ZM138.346 17.0117C136.538 15.1127 134.035 14.221 130.981 14.221V16.221C133.634 16.221 135.557 16.9827 136.897 18.3904L138.346 17.0117ZM130.981 14.221C127.926 14.221 125.414 15.1129 123.582 17.0056L125.02 18.3965C126.388 16.9825 128.329 16.221 130.981 16.221V14.221ZM123.582 17.0056C121.751 18.8977 120.901 21.5113 120.901 24.701H122.901C122.901 21.8641 123.651 19.811 125.02 18.3965L123.582 17.0056ZM120.901 24.701C120.901 27.8908 121.751 30.5044 123.582 32.3965L125.02 31.0056C123.651 29.591 122.901 27.538 122.901 24.701H120.901ZM123.582 32.3965C125.414 34.2892 127.926 35.181 130.981 35.181V33.181C128.329 33.181 126.388 32.4196 125.02 31.0056L123.582 32.3965ZM150.741 20.381L149.743 20.3122L149.669 21.381H150.741V20.381ZM153.021 14.381L153.798 15.0103L153.803 15.0043L153.021 14.381ZM158.421 10.461L158.796 11.388L158.802 11.3857L158.421 10.461ZM173.221 10.301L172.843 11.227L173.221 10.301ZM177.981 13.781L177.188 14.3901V14.3901L177.981 13.781ZM178.501 23.181L179.349 23.7111L179.354 23.7032L178.501 23.181ZM174.701 27.021L175.295 27.8255L174.701 27.021ZM167.861 31.101L167.407 30.2099L167.396 30.2158L167.861 31.101ZM159.181 35.661L158.201 35.861L158.467 37.1655L159.646 36.5463L159.181 35.661ZM158.781 33.701V32.701H157.556L157.801 33.901L158.781 33.701ZM180.541 33.701H181.541V32.701H180.541V33.701ZM180.541 39.701V40.701H181.541V39.701H180.541ZM151.261 39.701H150.261V40.701H151.261V39.701ZM151.261 34.421L150.763 33.554L150.261 33.8423V34.421H151.261ZM164.141 27.021L163.645 26.1528L163.643 26.154L164.141 27.021ZM168.941 24.021L169.526 24.8322L169.529 24.8298L168.941 24.021ZM171.421 21.661L170.589 21.1063L171.421 21.661ZM171.421 17.061L170.594 17.6234L170.601 17.6345L170.609 17.6454L171.421 17.061ZM169.341 15.501L169.712 14.5726L169.341 15.501ZM161.661 15.701L162.063 16.6167L162.072 16.6126L162.081 16.6084L161.661 15.701ZM159.221 17.661L160.061 18.2032L159.221 17.661ZM158.261 20.381V21.381H159.158L159.255 20.4885L158.261 20.381ZM151.738 20.4499C151.885 18.3185 152.577 16.5182 153.798 15.0102L152.244 13.7519C150.744 15.6039 149.916 17.8036 149.743 20.3122L151.738 20.4499ZM153.803 15.0043C155.044 13.4462 156.698 12.2372 158.796 11.388L158.046 9.5341C155.664 10.4982 153.717 11.9026 152.239 13.7578L153.803 15.0043ZM158.802 11.3857C160.929 10.5096 163.357 10.061 166.101 10.061V8.06105C163.138 8.06105 160.446 8.54584 158.04 9.53637L158.802 11.3857ZM166.101 10.061C168.722 10.061 170.962 10.4595 172.843 11.227L173.598 9.37511C171.427 8.48924 168.92 8.06105 166.101 8.06105V10.061ZM172.843 11.227C174.733 11.9977 176.165 13.0588 177.188 14.3901L178.774 13.172C177.503 11.5167 175.762 10.2577 173.598 9.37511L172.843 11.227ZM177.188 14.3901C178.195 15.7024 178.701 17.2066 178.701 18.941H180.701C180.701 16.7822 180.06 14.8463 178.774 13.172L177.188 14.3901ZM178.701 18.941C178.701 20.2752 178.353 21.5081 177.648 22.6589L179.354 23.7032C180.249 22.2407 180.701 20.6469 180.701 18.941H178.701ZM177.653 22.651C176.941 23.7893 175.779 24.9819 174.107 26.2166L175.295 27.8255C177.09 26.5002 178.46 25.1328 179.349 23.711L177.653 22.651ZM174.107 26.2166C172.433 27.4526 170.205 28.7845 167.407 30.21L168.315 31.9921C171.17 30.5376 173.502 29.1495 175.295 27.8255L174.107 26.2166ZM167.396 30.2158L158.716 34.7758L159.646 36.5463L168.326 31.9863L167.396 30.2158ZM160.161 35.4611L159.761 33.5011L157.801 33.901L158.201 35.861L160.161 35.4611ZM158.781 34.701H180.541V32.701H158.781V34.701ZM179.541 33.701V39.701H181.541V33.701H179.541ZM180.541 38.701H151.261V40.701H180.541V38.701ZM152.261 39.701V34.421H150.261V39.701H152.261ZM151.759 35.2881L164.639 27.8881L163.643 26.154L150.763 33.554L151.759 35.2881ZM164.637 27.8893C166.703 26.7084 168.338 25.6885 169.526 24.8322L168.356 23.2099C167.25 24.0069 165.685 24.987 163.645 26.1528L164.637 27.8893ZM169.529 24.8298C170.742 23.9474 171.678 23.0787 172.253 22.2157L170.589 21.1063C170.204 21.6834 169.486 22.388 168.353 23.2123L169.529 24.8298ZM172.253 22.2157C172.837 21.3396 173.141 20.3747 173.141 19.341H171.141C171.141 19.9608 170.965 20.5425 170.589 21.1063L172.253 22.2157ZM173.141 19.341C173.141 18.2867 172.84 17.3205 172.232 16.4767L170.609 17.6454C170.962 18.1349 171.141 18.6888 171.141 19.341H173.141ZM172.248 16.4987C171.658 15.6308 170.785 15.0015 169.712 14.5726L168.969 16.4295C169.764 16.7472 170.277 17.1579 170.594 17.6234L172.248 16.4987ZM169.712 14.5726C168.623 14.137 167.314 13.941 165.821 13.941V15.941C167.155 15.941 168.192 16.1184 168.969 16.4295L169.712 14.5726ZM165.821 13.941C164.049 13.941 162.507 14.2069 161.24 14.7937L162.081 16.6084C163.002 16.1819 164.232 15.941 165.821 15.941V13.941ZM161.259 14.7854C160.025 15.3272 159.041 16.0952 158.38 17.1189L160.061 18.2032C160.467 17.5736 161.11 17.0349 162.063 16.6167L161.259 14.7854ZM158.38 17.1189C157.762 18.0777 157.39 19.1334 157.267 20.2736L159.255 20.4885C159.345 19.6553 159.613 18.8977 160.061 18.2032L158.38 17.1189ZM158.261 19.381H150.741V21.381H158.261V19.381ZM184.23 19.301L183.233 19.2308L183.158 20.301H184.23V19.301ZM186.23 14.141L185.44 13.528L186.23 14.141ZM191.35 10.461L191.73 11.3864L191.735 11.3841L191.35 10.461ZM206.55 10.141L206.212 11.0819L206.219 11.0846L206.227 11.0872L206.55 10.141ZM211.27 13.061L210.525 13.7274L210.532 13.7353L211.27 13.061ZM211.71 21.141L210.906 20.5472L210.903 20.5505L211.71 21.141ZM207.91 23.781L208.257 24.7192L208.269 24.7144L207.91 23.781ZM201.27 24.701H200.27V25.6912L201.261 25.701L201.27 24.701ZM201.27 23.901L201.218 22.9024L200.27 22.9518V23.901H201.27ZM211.87 35.821L212.641 36.4583L212.647 36.4511L211.87 35.821ZM206.83 39.141L207.174 40.0802L207.18 40.0778L206.83 39.141ZM190.79 39.061L190.429 39.9933L190.442 39.9983L190.79 39.061ZM185.47 35.421L184.688 36.0441L184.694 36.0514L184.7 36.0586L185.47 35.421ZM183.43 29.901V28.901H182.379L182.432 29.9516L183.43 29.901ZM190.95 29.901L191.94 29.7571L191.816 28.901H190.95V29.901ZM193.19 33.301L192.66 34.149L192.671 34.1555L192.681 34.1616L193.19 33.301ZM204.11 33.421L204.611 34.2869L204.617 34.2835L204.11 33.421ZM205.35 28.581L204.566 29.2007L204.574 29.2111L204.582 29.2212L205.35 28.581ZM203.31 27.421L203.043 28.3846L203.31 27.421ZM194.11 27.021H193.11V28.021H194.11V27.021ZM194.11 21.861V20.861H193.11V21.861H194.11ZM203.99 20.941L204.551 21.7693L204.559 21.7638L204.567 21.758L203.99 20.941ZM203.75 15.861L203.242 16.7225L203.252 16.728L203.75 15.861ZM193.91 16.061L193.39 15.2068L193.382 15.212L193.91 16.061ZM191.75 19.301V20.301H192.595L192.736 19.4685L191.75 19.301ZM185.228 19.3713C185.347 17.6819 185.938 16.1495 187.021 14.754L185.44 13.528C184.123 15.2259 183.381 17.1335 183.233 19.2308L185.228 19.3713ZM187.021 14.754C188.092 13.3733 189.642 12.2414 191.73 11.3864L190.971 9.53568C188.632 10.4941 186.769 11.8155 185.44 13.528L187.021 14.754ZM191.735 11.3841C193.823 10.5142 196.378 10.061 199.43 10.061V8.06105C196.189 8.06105 193.358 8.54122 190.966 9.53797L191.735 11.3841ZM199.43 10.061C202.094 10.061 204.347 10.4106 206.212 11.0819L206.889 9.20016C204.754 8.4315 202.261 8.06105 199.43 8.06105V10.061ZM206.227 11.0872C208.135 11.7399 209.546 12.6324 210.525 13.7274L212.016 12.3947C210.755 10.983 209.02 9.92883 206.874 9.19488L206.227 11.0872ZM210.532 13.7353C211.482 14.7754 211.95 15.9874 211.95 17.421H213.95C213.95 15.4947 213.299 13.8 212.009 12.3868L210.532 13.7353ZM211.95 17.421C211.95 18.562 211.609 19.5948 210.906 20.5472L212.515 21.7349C213.465 20.4473 213.95 19.0001 213.95 17.421H211.95ZM210.903 20.5505C210.252 21.4415 209.17 22.2252 207.551 22.8477L208.269 24.7144C210.118 24.0035 211.569 23.0273 212.517 21.7316L210.903 20.5505ZM207.564 22.843C205.984 23.4263 203.903 23.7271 201.28 23.7011L201.261 25.701C204.025 25.7284 206.37 25.4158 208.257 24.7191L207.564 22.843ZM202.27 24.701V23.901H200.27V24.701H202.27ZM201.322 24.8997C203.81 24.7701 205.897 24.9548 207.605 25.4252L208.136 23.4969C206.164 22.9539 203.851 22.7653 201.218 22.9024L201.322 24.8997ZM207.605 25.4252C209.315 25.896 210.542 26.6154 211.368 27.531L212.853 26.1911C211.706 24.92 210.106 24.0394 208.136 23.4969L207.605 25.4252ZM211.368 27.531C212.168 28.4177 212.59 29.5426 212.59 30.981H214.59C214.59 29.1129 214.026 27.491 212.853 26.1911L211.368 27.531ZM212.59 30.981C212.59 32.564 212.097 33.9551 211.094 35.191L212.647 36.4511C213.938 34.8603 214.59 33.0247 214.59 30.981H212.59ZM211.1 35.1838C210.094 36.3996 208.58 37.4202 206.481 38.2043L207.18 40.0778C209.508 39.2085 211.353 38.0158 212.641 36.4583L211.1 35.1838ZM206.487 38.2019C204.441 38.9503 201.898 39.341 198.83 39.341V41.341C202.056 41.341 204.846 40.9318 207.174 40.0802L206.487 38.2019ZM198.83 39.341C195.854 39.341 193.297 38.9266 191.139 38.1238L190.442 39.9983C192.871 40.9021 195.674 41.341 198.83 41.341V39.341ZM191.152 38.1288C189.011 37.2976 187.391 36.1736 186.241 34.7835L184.7 36.0586C186.11 37.7618 188.036 39.0645 190.429 39.9933L191.152 38.1288ZM186.253 34.798C185.136 33.3964 184.526 31.7592 184.429 29.8505L182.432 29.9516C182.548 32.2563 183.298 34.299 184.688 36.0441L186.253 34.798ZM183.43 30.901H190.95V28.901H183.43V30.901ZM189.961 30.045C190.217 31.8086 191.137 33.1966 192.66 34.149L193.72 32.453C192.684 31.8055 192.11 30.9268 191.94 29.7571L189.961 30.045ZM192.681 34.1616C194.21 35.0662 196.297 35.461 198.83 35.461V33.461C196.457 33.461 194.785 33.0826 193.7 32.4405L192.681 34.1616ZM198.83 35.461C201.221 35.461 203.188 35.1088 204.611 34.2869L203.61 32.5552C202.633 33.1199 201.08 33.461 198.83 33.461V35.461ZM204.617 34.2835C206.108 33.408 206.95 32.1009 206.95 30.421H204.95C204.95 31.3012 204.566 31.9941 203.604 32.5586L204.617 34.2835ZM206.95 30.421C206.95 29.4881 206.696 28.634 206.119 27.9409L204.582 29.2212C204.805 29.4881 204.95 29.8607 204.95 30.421H206.95ZM206.135 27.9614C205.55 27.2196 204.638 26.7521 203.578 26.4575L203.043 28.3846C203.902 28.6233 204.351 28.9291 204.566 29.2007L206.135 27.9614ZM203.578 26.4575C202.491 26.1555 201.053 26.021 199.31 26.021V28.021C200.981 28.021 202.21 28.1533 203.043 28.3846L203.578 26.4575ZM199.31 26.021H194.11V28.021H199.31V26.021ZM195.11 27.021V21.861H193.11V27.021H195.11ZM194.11 22.861H199.31V20.861H194.11V22.861ZM199.31 22.861C201.556 22.861 203.38 22.5615 204.551 21.7693L203.43 20.1128C202.788 20.5472 201.492 20.861 199.31 20.861V22.861ZM204.567 21.758C205.71 20.9515 206.35 19.8338 206.35 18.461H204.35C204.35 19.1149 204.085 19.6506 203.414 20.1241L204.567 21.758ZM206.35 18.461C206.35 16.9423 205.589 15.7645 204.249 14.9941L203.252 16.728C204.046 17.1842 204.35 17.7398 204.35 18.461H206.35ZM204.258 14.9997C202.989 14.2508 201.2 13.941 199.03 13.941V15.941C201.074 15.941 202.432 16.2447 203.242 16.7224L204.258 14.9997ZM199.03 13.941C196.749 13.941 194.835 14.3274 193.391 15.2068L194.43 16.9152C195.439 16.3014 196.939 15.941 199.03 15.941V13.941ZM193.382 15.212C191.935 16.1124 191.052 17.4427 190.765 19.1336L192.736 19.4685C192.929 18.3327 193.486 17.5031 194.439 16.9101L193.382 15.212ZM191.75 18.301H184.23V20.301H191.75V18.301Z" fill="#FFEB1C" mask="url(#path-2-outside-1_2201_125)"/>
<mask id="path-4-outside-2_2201_125" maskUnits="userSpaceOnUse" x="239.691" y="7.70105" width="364" height="34" fill="black">
<rect fill="white" x="239.691" y="7.70105" width="364" height="34"/>
<path d="M262.411 24.981L263.051 23.501C265.398 23.5544 267.318 23.9144 268.811 24.581C270.331 25.2477 271.451 26.1677 272.171 27.341C272.918 28.4877 273.291 29.821 273.291 31.341C273.291 32.941 272.918 34.381 272.171 35.661C271.425 36.9144 270.305 37.901 268.811 38.621C267.345 39.341 265.505 39.701 263.291 39.701H241.691L244.011 24.301L241.691 9.70105H262.531C265.305 9.70105 267.451 10.3544 268.971 11.661C270.518 12.941 271.291 14.7144 271.291 16.981C271.291 18.2344 270.998 19.4344 270.411 20.581C269.825 21.7277 268.891 22.701 267.611 23.501C266.331 24.2744 264.598 24.7677 262.411 24.981ZM249.131 37.861L246.251 34.301H261.491C262.798 34.301 263.811 33.9944 264.531 33.381C265.278 32.741 265.651 31.8477 265.651 30.701C265.651 29.5544 265.238 28.6477 264.411 27.981C263.611 27.2877 262.411 26.941 260.811 26.941H248.331V21.661H259.851C260.945 21.661 261.851 21.3544 262.571 20.741C263.291 20.101 263.651 19.2344 263.651 18.141C263.651 17.261 263.345 16.541 262.731 15.981C262.118 15.3944 261.225 15.101 260.051 15.101H246.291L249.131 11.541L251.251 24.301L249.131 37.861ZM285.132 9.70105V36.341L281.732 33.021H304.212V39.701H277.572V9.70105H285.132ZM313.246 33.661V27.581H333.966V33.661H313.246ZM328.686 9.70105L342.526 39.701H334.486L322.606 12.861H324.926L313.086 39.701H305.046L318.886 9.70105H328.686ZM376.742 27.301C376.449 29.8877 375.556 32.1677 374.062 34.141C372.569 36.0877 370.596 37.6077 368.142 38.701C365.689 39.7944 362.889 40.341 359.742 40.341C356.302 40.341 353.276 39.6877 350.662 38.381C348.076 37.0744 346.062 35.2477 344.622 32.901C343.182 30.5544 342.462 27.821 342.462 24.701C342.462 21.581 343.182 18.8477 344.622 16.501C346.062 14.1544 348.076 12.3277 350.662 11.021C353.276 9.71438 356.302 9.06105 359.742 9.06105C362.889 9.06105 365.689 9.60771 368.142 10.701C370.596 11.7944 372.569 13.3144 374.062 15.261C375.556 17.2077 376.449 19.4877 376.742 22.101H369.142C368.876 20.741 368.329 19.581 367.502 18.621C366.702 17.661 365.636 16.9277 364.302 16.421C362.996 15.8877 361.476 15.621 359.742 15.621C357.742 15.621 356.022 15.9944 354.582 16.741C353.142 17.461 352.036 18.501 351.262 19.861C350.489 21.221 350.102 22.8344 350.102 24.701C350.102 26.5677 350.489 28.181 351.262 29.541C352.036 30.901 353.142 31.9544 354.582 32.701C356.022 33.421 357.742 33.781 359.742 33.781C361.476 33.781 362.996 33.5277 364.302 33.021C365.636 32.5144 366.702 31.781 367.502 30.821C368.329 29.861 368.876 28.6877 369.142 27.301H376.742ZM380.971 39.701V9.70105H388.491V33.661L386.451 32.101L404.211 9.70105H412.211L387.771 39.701H380.971ZM395.331 25.181L400.771 20.501L412.611 39.701H404.051L395.331 25.181ZM428.44 22.181H450.16V28.621H428.44V22.181ZM450.88 9.70105V16.141H428.6L432.32 12.421V39.701H424.76V9.70105H450.88ZM460.508 22.901H471.748C473.161 22.901 474.281 22.581 475.108 21.941C475.934 21.2744 476.348 20.3544 476.348 19.181C476.348 18.0077 475.934 17.101 475.108 16.461C474.281 15.7944 473.161 15.461 471.748 15.461H459.428L462.828 11.741V39.701H455.268V9.70105H472.748C474.988 9.70105 476.948 10.101 478.628 10.901C480.308 11.701 481.614 12.8077 482.548 14.221C483.481 15.6344 483.948 17.2877 483.948 19.181C483.948 21.0477 483.481 22.6877 482.548 24.101C481.614 25.5144 480.308 26.621 478.628 27.421C476.948 28.1944 474.988 28.581 472.748 28.581H460.508V22.901ZM465.348 25.661H473.868L484.908 39.701H476.148L465.348 25.661ZM488.861 9.70105H496.421V39.701H488.861V9.70105ZM516.9 9.70105C520.42 9.70105 523.5 10.3277 526.14 11.581C528.78 12.8344 530.833 14.581 532.3 16.821C533.793 19.061 534.54 21.6877 534.54 24.701C534.54 27.6877 533.793 30.3144 532.3 32.581C530.833 34.821 528.78 36.5677 526.14 37.821C523.5 39.0744 520.42 39.701 516.9 39.701H502.26V9.70105H516.9ZM509.78 36.621L506.1 33.021H517.46C519.38 33.021 521.046 32.6744 522.46 31.981C523.873 31.2877 524.966 30.3277 525.74 29.101C526.513 27.8477 526.9 26.381 526.9 24.701C526.9 22.9944 526.513 21.5277 525.74 20.301C524.966 19.0744 523.873 18.1144 522.46 17.421C521.046 16.7277 519.38 16.381 517.46 16.381H506.1L509.78 12.781V36.621ZM542.543 33.661V27.581H563.263V33.661H542.543ZM557.983 9.70105L571.823 39.701H563.783L551.903 12.861H554.223L542.383 39.701H534.343L548.183 9.70105H557.983ZM580.069 39.701V25.181H587.629V39.701H580.069ZM565.989 9.70105H574.349L585.549 23.941H582.069L593.269 9.70105H601.629L586.269 29.221L581.389 29.301L565.989 9.70105Z"/>
</mask>
<path d="M262.411 24.981L261.493 24.5841L260.82 26.141L262.508 25.9763L262.411 24.981ZM263.051 23.501L263.074 22.5013L262.401 22.486L262.133 23.1041L263.051 23.501ZM268.811 24.581L268.404 25.4942L268.41 25.4968L268.811 24.581ZM272.171 27.341L271.319 27.8641L271.326 27.8755L271.333 27.8867L272.171 27.341ZM272.171 35.661L273.03 36.1729L273.035 36.1649L272.171 35.661ZM268.811 38.621L268.377 37.7203L268.371 37.7234L268.811 38.621ZM241.691 39.701L240.703 39.5521L240.529 40.701H241.691V39.701ZM244.011 24.301L245 24.45L245.023 24.297L244.999 24.1441L244.011 24.301ZM241.691 9.70105V8.70105H240.52L240.704 9.85798L241.691 9.70105ZM268.971 11.661L268.319 12.4194L268.327 12.4255L268.334 12.4314L268.971 11.661ZM270.411 20.581L269.521 20.1256L270.411 20.581ZM267.611 23.501L268.128 24.357L268.135 24.3531L268.141 24.349L267.611 23.501ZM249.131 37.861L248.354 38.49L249.771 40.242L250.119 38.0155L249.131 37.861ZM246.251 34.301V33.301H244.156L245.474 34.93L246.251 34.301ZM264.531 33.381L265.18 34.1423L265.182 34.1403L264.531 33.381ZM264.411 27.981L263.756 28.7367L263.77 28.7483L263.784 28.7595L264.411 27.981ZM248.331 26.941H247.331V27.941H248.331V26.941ZM248.331 21.661V20.661H247.331V21.661H248.331ZM262.571 20.741L263.22 21.5023L263.228 21.4955L263.236 21.4885L262.571 20.741ZM262.731 15.981L262.04 16.7037L262.049 16.7117L262.057 16.7195L262.731 15.981ZM246.291 15.101L245.51 14.4774L244.214 16.101H246.291V15.101ZM249.131 11.541L250.118 11.3771L249.75 9.16223L248.35 10.9174L249.131 11.541ZM251.251 24.301L252.239 24.4555L252.264 24.2962L252.238 24.1372L251.251 24.301ZM263.329 25.378L263.969 23.898L262.133 23.1041L261.493 24.5841L263.329 25.378ZM263.029 24.5008C265.296 24.5523 267.072 24.8998 268.404 25.4942L269.219 23.6679C267.564 22.9289 265.5 22.5564 263.074 22.5013L263.029 24.5008ZM268.41 25.4968C269.782 26.0987 270.726 26.8977 271.319 27.8641L273.024 26.818C272.177 25.4377 270.881 24.3967 269.213 23.6653L268.41 25.4968ZM271.333 27.8867C271.963 28.8533 272.291 29.9925 272.291 31.341H274.291C274.291 29.6496 273.873 28.1221 273.009 26.7954L271.333 27.8867ZM272.291 31.341C272.291 32.7786 271.958 34.0422 271.308 35.1572L273.035 36.1649C273.878 34.7199 274.291 33.1035 274.291 31.341H272.291ZM271.312 35.1492C270.679 36.2118 269.719 37.0735 268.377 37.7203L269.246 39.5218C270.891 38.7286 272.17 37.6169 273.03 36.1729L271.312 35.1492ZM268.371 37.7234C267.081 38.3566 265.403 38.701 263.291 38.701V40.701C265.606 40.701 267.608 40.3255 269.252 39.5187L268.371 37.7234ZM263.291 38.701H241.691V40.701H263.291V38.701ZM242.68 39.85L245 24.45L243.023 24.1521L240.703 39.5521L242.68 39.85ZM244.999 24.1441L242.679 9.54411L240.704 9.85798L243.024 24.458L244.999 24.1441ZM241.691 10.701H262.531V8.70105H241.691V10.701ZM262.531 10.701C265.157 10.701 267.04 11.3194 268.319 12.4194L269.623 10.9027C267.863 9.38936 265.452 8.70105 262.531 8.70105V10.701ZM268.334 12.4314C269.62 13.4955 270.291 14.9691 270.291 16.981H272.291C272.291 14.4597 271.417 12.3866 269.609 10.8907L268.334 12.4314ZM270.291 16.981C270.291 18.0715 270.038 19.1159 269.521 20.1256L271.302 21.0365C271.958 19.7529 272.291 18.3972 272.291 16.981H270.291ZM269.521 20.1256C269.03 21.0854 268.235 21.9322 267.081 22.653L268.141 24.349C269.548 23.4699 270.619 22.3701 271.302 21.0365L269.521 20.1256ZM267.094 22.6451C265.988 23.3137 264.416 23.7807 262.314 23.9858L262.508 25.9763C264.78 25.7547 266.675 25.2351 268.128 24.357L267.094 22.6451ZM249.909 37.2321L247.029 33.6721L245.474 34.93L248.354 38.49L249.909 37.2321ZM246.251 35.301H261.491V33.301H246.251V35.301ZM261.491 35.301C262.945 35.301 264.22 34.9596 265.18 34.1423L263.883 32.6198C263.402 33.0291 262.651 33.301 261.491 33.301V35.301ZM265.182 34.1403C266.188 33.278 266.651 32.086 266.651 30.701H264.651C264.651 31.6095 264.368 32.2041 263.881 32.6218L265.182 34.1403ZM266.651 30.701C266.651 29.2796 266.122 28.0758 265.039 27.2026L263.784 28.7595C264.354 29.2196 264.651 29.8292 264.651 30.701H266.651ZM265.066 27.2254C264.011 26.311 262.533 25.941 260.811 25.941V27.941C262.289 27.941 263.211 28.2644 263.756 28.7367L265.066 27.2254ZM260.811 25.941H248.331V27.941H260.811V25.941ZM249.331 26.941V21.661H247.331V26.941H249.331ZM248.331 22.661H259.851V20.661H248.331V22.661ZM259.851 22.661C261.143 22.661 262.291 22.2934 263.22 21.5023L261.923 19.9798C261.412 20.4154 260.746 20.661 259.851 20.661V22.661ZM263.236 21.4885C264.199 20.632 264.651 19.4772 264.651 18.141H262.651C262.651 18.9915 262.383 19.5701 261.907 19.9936L263.236 21.4885ZM264.651 18.141C264.651 16.9989 264.24 16.0044 263.406 15.2426L262.057 16.7195C262.449 17.0777 262.651 17.5232 262.651 18.141H264.651ZM263.423 15.2584C262.562 14.435 261.382 14.101 260.051 14.101V16.101C261.067 16.101 261.674 16.3537 262.04 16.7037L263.423 15.2584ZM260.051 14.101H246.291V16.101H260.051V14.101ZM247.073 15.7247L249.913 12.1647L248.35 10.9174L245.51 14.4774L247.073 15.7247ZM248.145 11.7049L250.265 24.4649L252.238 24.1372L250.118 11.3771L248.145 11.7049ZM250.263 24.1466L248.143 37.7066L250.119 38.0155L252.239 24.4555L250.263 24.1466ZM285.132 9.70105H286.132V8.70105H285.132V9.70105ZM285.132 36.341L284.434 37.0565L286.132 38.7152V36.341H285.132ZM281.732 33.021V32.021H279.277L281.034 33.7365L281.732 33.021ZM304.212 33.021H305.212V32.021H304.212V33.021ZM304.212 39.701V40.701H305.212V39.701H304.212ZM277.572 39.701H276.572V40.701H277.572V39.701ZM277.572 9.70105V8.70105H276.572V9.70105H277.572ZM284.132 9.70105V36.341H286.132V9.70105H284.132ZM285.831 35.6256L282.431 32.3056L281.034 33.7365L284.434 37.0565L285.831 35.6256ZM281.732 34.021H304.212V32.021H281.732V34.021ZM303.212 33.021V39.701H305.212V33.021H303.212ZM304.212 38.701H277.572V40.701H304.212V38.701ZM278.572 39.701V9.70105H276.572V39.701H278.572ZM277.572 10.701H285.132V8.70105H277.572V10.701ZM313.246 33.661H312.246V34.661H313.246V33.661ZM313.246 27.581V26.581H312.246V27.581H313.246ZM333.966 27.581H334.966V26.581H333.966V27.581ZM333.966 33.661V34.661H334.966V33.661H333.966ZM328.686 9.70105L329.594 9.28214L329.326 8.70105H328.686V9.70105ZM342.526 39.701V40.701H344.088L343.434 39.2821L342.526 39.701ZM334.486 39.701L333.571 40.1058L333.835 40.701H334.486V39.701ZM322.606 12.861V11.861H321.07L321.691 13.2658L322.606 12.861ZM324.926 12.861L325.841 13.2647L326.46 11.861H324.926V12.861ZM313.086 39.701V40.701H313.738L314.001 40.1047L313.086 39.701ZM305.046 39.701L304.138 39.2821L303.483 40.701H305.046V39.701ZM318.886 9.70105V8.70105H318.246L317.978 9.28214L318.886 9.70105ZM314.246 33.661V27.581H312.246V33.661H314.246ZM313.246 28.581H333.966V26.581H313.246V28.581ZM332.966 27.581V33.661H334.966V27.581H332.966ZM333.966 32.661H313.246V34.661H333.966V32.661ZM327.778 10.12L341.618 40.12L343.434 39.2821L329.594 9.28214L327.778 10.12ZM342.526 38.701H334.486V40.701H342.526V38.701ZM335.4 39.2963L323.52 12.4563L321.691 13.2658L333.571 40.1058L335.4 39.2963ZM322.606 13.861H324.926V11.861H322.606V13.861ZM324.011 12.4574L312.171 39.2974L314.001 40.1047L325.841 13.2647L324.011 12.4574ZM313.086 38.701H305.046V40.701H313.086V38.701ZM305.954 40.12L319.794 10.12L317.978 9.28214L304.138 39.2821L305.954 40.12ZM318.886 10.701H328.686V8.70105H318.886V10.701ZM376.742 27.301L377.736 27.4137L377.862 26.301H376.742V27.301ZM374.062 34.141L374.856 34.7497L374.86 34.7445L374.062 34.141ZM368.142 38.701L367.735 37.7876L368.142 38.701ZM350.662 38.381L350.211 39.2736L350.215 39.2755L350.662 38.381ZM344.622 32.901L343.77 33.4241L344.622 32.901ZM344.622 16.501L343.77 15.978L344.622 16.501ZM350.662 11.021L350.215 10.1266L350.211 10.1285L350.662 11.021ZM374.062 15.261L373.269 15.8697V15.8697L374.062 15.261ZM376.742 22.101V23.101H377.861L377.736 21.9895L376.742 22.101ZM369.142 22.101L368.161 22.2935L368.319 23.101H369.142V22.101ZM367.502 18.621L366.734 19.2612L366.739 19.2674L366.745 19.2736L367.502 18.621ZM364.302 16.421L363.924 17.3469L363.936 17.3515L363.947 17.3558L364.302 16.421ZM354.582 16.741L355.029 17.6355L355.036 17.6322L355.043 17.6288L354.582 16.741ZM351.262 19.861L352.132 20.3553L351.262 19.861ZM351.262 29.541L350.393 30.0353V30.0354L351.262 29.541ZM354.582 32.701L354.122 33.5888L354.128 33.5922L354.135 33.5955L354.582 32.701ZM364.302 33.021L363.947 32.0862L363.941 32.0887L364.302 33.021ZM367.502 30.821L366.745 30.1685L366.739 30.1747L366.734 30.1809L367.502 30.821ZM369.142 27.301V26.301H368.316L368.16 27.1122L369.142 27.301ZM375.749 27.1884C375.474 29.6065 374.644 31.7149 373.265 33.5376L374.86 34.7445C376.467 32.6206 377.423 30.169 377.736 27.4137L375.749 27.1884ZM373.269 33.5324C371.886 35.3346 370.051 36.7556 367.735 37.7876L368.549 39.6145C371.14 38.4599 373.252 36.8408 374.856 34.7497L373.269 33.5324ZM367.735 37.7876C365.43 38.8149 362.772 39.341 359.742 39.341V41.341C363.005 41.341 365.948 40.7738 368.549 39.6145L367.735 37.7876ZM359.742 39.341C356.43 39.341 353.561 38.7126 351.109 37.4866L350.215 39.2755C352.99 40.6629 356.174 41.341 359.742 41.341V39.341ZM351.113 37.4885C348.683 36.2608 346.812 34.5582 345.475 32.378L343.77 33.4241C345.312 35.9372 347.468 37.888 350.211 39.2736L351.113 37.4885ZM345.475 32.378C344.144 30.2089 343.462 27.6616 343.462 24.701H341.462C341.462 27.9805 342.221 30.8999 343.77 33.4241L345.475 32.378ZM343.462 24.701C343.462 21.7405 344.144 19.1932 345.475 17.0241L343.77 15.978C342.221 18.5022 341.462 21.4216 341.462 24.701H343.462ZM345.475 17.0241C346.812 14.8439 348.683 13.1413 351.113 11.9136L350.211 10.1285C347.468 11.5141 345.312 13.4649 343.77 15.978L345.475 17.0241ZM351.109 11.9155C353.561 10.6895 356.43 10.061 359.742 10.061V8.06105C356.174 8.06105 352.99 8.73923 350.215 10.1266L351.109 11.9155ZM359.742 10.061C362.772 10.061 365.43 10.5872 367.735 11.6144L368.549 9.78765C365.948 8.62826 363.005 8.06105 359.742 8.06105V10.061ZM367.735 11.6144C370.051 12.6465 371.886 14.0675 373.269 15.8697L374.856 14.6524C373.252 12.5613 371.14 10.9422 368.549 9.78765L367.735 11.6144ZM373.269 15.8697C374.643 17.6616 375.474 19.7666 375.749 22.2126L377.736 21.9895C377.424 19.2088 376.468 16.7539 374.856 14.6524L373.269 15.8697ZM376.742 21.101H369.142V23.101H376.742V21.101ZM370.124 21.9086C369.827 20.3949 369.21 19.072 368.26 17.9685L366.745 19.2736C367.448 20.0901 367.924 21.0872 368.161 22.2935L370.124 21.9086ZM368.271 17.9809C367.346 16.8711 366.128 16.0452 364.657 15.4863L363.947 17.3558C365.143 17.8102 366.059 18.451 366.734 19.2612L368.271 17.9809ZM364.68 15.4952C363.23 14.9031 361.576 14.621 359.742 14.621V16.621C361.375 16.621 362.762 16.8723 363.924 17.3469L364.68 15.4952ZM359.742 14.621C357.619 14.621 355.734 15.0176 354.122 15.8533L355.043 17.6288C356.311 16.9711 357.866 16.621 359.742 16.621V14.621ZM354.135 15.8466C352.523 16.6525 351.267 17.8293 350.393 19.3667L352.132 20.3553C352.804 19.1728 353.761 18.2696 355.029 17.6355L354.135 15.8466ZM350.393 19.3667C349.519 20.9041 349.102 22.6946 349.102 24.701H351.102C351.102 22.9742 351.459 21.538 352.132 20.3553L350.393 19.3667ZM349.102 24.701C349.102 26.7075 349.519 28.498 350.393 30.0353L352.132 29.0467C351.459 27.8641 351.102 26.4279 351.102 24.701H349.102ZM350.393 30.0354C351.265 31.5696 352.517 32.7567 354.122 33.5888L355.043 31.8133C353.767 31.1521 352.806 30.2324 352.132 29.0467L350.393 30.0354ZM354.135 33.5955C355.743 34.3997 357.624 34.781 359.742 34.781V32.781C357.861 32.781 356.301 32.4424 355.029 31.8066L354.135 33.5955ZM359.742 34.781C361.571 34.781 363.218 34.514 364.664 33.9534L363.941 32.0887C362.773 32.5415 361.38 32.781 359.742 32.781V34.781ZM364.657 33.9558C366.128 33.3969 367.346 32.571 368.271 31.4612L366.734 30.1809C366.059 30.9911 365.143 31.6319 363.947 32.0863L364.657 33.9558ZM368.26 31.4736C369.213 30.3665 369.828 29.0279 370.124 27.4899L368.16 27.1122C367.923 28.3475 367.445 29.3555 366.745 30.1685L368.26 31.4736ZM369.142 28.301H376.742V26.301H369.142V28.301ZM380.971 39.701H379.971V40.701H380.971V39.701ZM380.971 9.70105V8.70105H379.971V9.70105H380.971ZM388.491 9.70105H389.491V8.70105H388.491V9.70105ZM388.491 33.661L387.883 34.4554L389.491 35.6846V33.661H388.491ZM386.451 32.101L385.667 31.4798L385.035 32.2772L385.843 32.8954L386.451 32.101ZM404.211 9.70105V8.70105H403.727L403.427 9.07977L404.211 9.70105ZM412.211 9.70105L412.986 10.3327L414.315 8.70105H412.211V9.70105ZM387.771 39.701V40.701H388.246L388.546 40.3327L387.771 39.701ZM395.331 25.181L394.679 24.423L394.039 24.9729L394.473 25.6959L395.331 25.181ZM400.771 20.501L401.622 19.9762L401.007 18.9788L400.119 19.743L400.771 20.501ZM412.611 39.701V40.701H414.402L413.462 39.1762L412.611 39.701ZM404.051 39.701L403.193 40.2159L403.485 40.701H404.051V39.701ZM381.971 39.701V9.70105H379.971V39.701H381.971ZM380.971 10.701H388.491V8.70105H380.971V10.701ZM387.491 9.70105V33.661H389.491V9.70105H387.491ZM389.098 32.8667L387.058 31.3067L385.843 32.8954L387.883 34.4554L389.098 32.8667ZM387.234 32.7223L404.994 10.3223L403.427 9.07977L385.667 31.4798L387.234 32.7223ZM404.211 10.701H412.211V8.70105H404.211V10.701ZM411.435 9.06944L386.995 39.0694L388.546 40.3327L412.986 10.3327L411.435 9.06944ZM387.771 38.701H380.971V40.701H387.771V38.701ZM395.983 25.9391L401.423 21.2591L400.119 19.743L394.679 24.423L395.983 25.9391ZM399.92 21.0259L411.76 40.2259L413.462 39.1762L401.622 19.9762L399.92 21.0259ZM412.611 38.701H404.051V40.701H412.611V38.701ZM404.908 39.1862L396.188 24.6662L394.473 25.6959L403.193 40.2159L404.908 39.1862ZM428.44 22.181V21.181H427.44V22.181H428.44ZM450.16 22.181H451.16V21.181H450.16V22.181ZM450.16 28.621V29.621H451.16V28.621H450.16ZM428.44 28.621H427.44V29.621H428.44V28.621ZM450.88 9.70105H451.88V8.70105H450.88V9.70105ZM450.88 16.141V17.141H451.88V16.141H450.88ZM428.6 16.141L427.893 15.4339L426.186 17.141H428.6V16.141ZM432.32 12.421H433.32V10.0068L431.613 11.7139L432.32 12.421ZM432.32 39.701V40.701H433.32V39.701H432.32ZM424.76 39.701H423.76V40.701H424.76V39.701ZM424.76 9.70105V8.70105H423.76V9.70105H424.76ZM428.44 23.181H450.16V21.181H428.44V23.181ZM449.16 22.181V28.621H451.16V22.181H449.16ZM450.16 27.621H428.44V29.621H450.16V27.621ZM429.44 28.621V22.181H427.44V28.621H429.44ZM449.88 9.70105V16.141H451.88V9.70105H449.88ZM450.88 15.141H428.6V17.141H450.88V15.141ZM429.307 16.8482L433.027 13.1282L431.613 11.7139L427.893 15.4339L429.307 16.8482ZM431.32 12.421V39.701H433.32V12.421H431.32ZM432.32 38.701H424.76V40.701H432.32V38.701ZM425.76 39.701V9.70105H423.76V39.701H425.76ZM424.76 10.701H450.88V8.70105H424.76V10.701ZM460.508 22.901V21.901H459.508V22.901H460.508ZM475.108 21.941L475.72 22.7318L475.728 22.7257L475.735 22.7195L475.108 21.941ZM475.108 16.461L474.48 17.2395L474.488 17.2457L474.495 17.2518L475.108 16.461ZM459.428 15.461L458.689 14.7864L457.159 16.461H459.428V15.461ZM462.828 11.741H463.828V9.16467L462.089 11.0664L462.828 11.741ZM462.828 39.701V40.701H463.828V39.701H462.828ZM455.268 39.701H454.268V40.701H455.268V39.701ZM455.268 9.70105V8.70105H454.268V9.70105H455.268ZM478.628 10.901L478.198 11.8039L478.628 10.901ZM482.548 14.221L483.382 13.67L482.548 14.221ZM482.548 24.101L483.382 24.6521L482.548 24.101ZM478.628 27.421L479.046 28.3295L479.058 28.3239L478.628 27.421ZM460.508 28.581H459.508V29.581H460.508V28.581ZM465.348 25.661V24.661H463.317L464.555 26.2708L465.348 25.661ZM473.868 25.661L474.654 25.0429L474.353 24.661H473.868V25.661ZM484.908 39.701V40.701H486.966L485.694 39.0829L484.908 39.701ZM476.148 39.701L475.355 40.3108L475.655 40.701H476.148V39.701ZM460.508 23.901H471.748V21.901H460.508V23.901ZM471.748 23.901C473.305 23.901 474.665 23.5482 475.72 22.7318L474.495 21.1503C473.897 21.6139 473.017 21.901 471.748 21.901V23.901ZM475.735 22.7195C476.824 21.8414 477.348 20.6207 477.348 19.181H475.348C475.348 20.088 475.044 20.7073 474.48 21.1626L475.735 22.7195ZM477.348 19.181C477.348 17.7415 476.823 16.5247 475.72 15.6703L474.495 17.2518C475.045 17.6774 475.348 18.2739 475.348 19.181H477.348ZM475.735 15.6826C474.68 14.8313 473.314 14.461 471.748 14.461V16.461C473.008 16.461 473.882 16.7574 474.48 17.2395L475.735 15.6826ZM471.748 14.461H459.428V16.461H471.748V14.461ZM460.166 16.1357L463.566 12.4157L462.089 11.0664L458.689 14.7864L460.166 16.1357ZM461.828 11.741V39.701H463.828V11.741H461.828ZM462.828 38.701H455.268V40.701H462.828V38.701ZM456.268 39.701V9.70105H454.268V39.701H456.268ZM455.268 10.701H472.748V8.70105H455.268V10.701ZM472.748 10.701C474.869 10.701 476.677 11.0796 478.198 11.8039L479.058 9.99819C477.219 9.12252 475.106 8.70105 472.748 8.70105V10.701ZM478.198 11.8039C479.73 12.5336 480.89 13.5254 481.713 14.7721L483.382 13.67C482.339 12.09 480.885 10.8685 479.058 9.99819L478.198 11.8039ZM481.713 14.7721C482.526 16.0031 482.948 17.4597 482.948 19.181H484.948C484.948 17.1157 484.436 15.2657 483.382 13.67L481.713 14.7721ZM482.948 19.181C482.948 20.8726 482.528 22.3167 481.713 23.55L483.382 24.6521C484.434 23.0587 484.948 21.2228 484.948 19.181H482.948ZM481.713 23.55C480.89 24.7967 479.73 25.7885 478.198 26.5182L479.058 28.3239C480.885 27.4536 482.339 26.2321 483.382 24.6521L481.713 23.55ZM478.209 26.5127C476.685 27.2143 474.873 27.581 472.748 27.581V29.581C475.102 29.581 477.21 29.1745 479.046 28.3294L478.209 26.5127ZM472.748 27.581H460.508V29.581H472.748V27.581ZM461.508 28.581V22.901H459.508V28.581H461.508ZM465.348 26.661H473.868V24.661H465.348V26.661ZM473.081 26.2792L484.121 40.3192L485.694 39.0829L474.654 25.0429L473.081 26.2792ZM484.908 38.701H476.148V40.701H484.908V38.701ZM476.94 39.0913L466.14 25.0513L464.555 26.2708L475.355 40.3108L476.94 39.0913ZM488.861 9.70105V8.70105H487.861V9.70105H488.861ZM496.421 9.70105H497.421V8.70105H496.421V9.70105ZM496.421 39.701V40.701H497.421V39.701H496.421ZM488.861 39.701H487.861V40.701H488.861V39.701ZM488.861 10.701H496.421V8.70105H488.861V10.701ZM495.421 9.70105V39.701H497.421V9.70105H495.421ZM496.421 38.701H488.861V40.701H496.421V38.701ZM489.861 39.701V9.70105H487.861V39.701H489.861ZM526.14 11.581L525.711 12.4844L526.14 11.581ZM532.3 16.821L531.463 17.3689L531.468 17.3757L532.3 16.821ZM532.3 32.581L531.465 32.0309L531.463 32.0333L532.3 32.581ZM526.14 37.821L525.711 36.9177L526.14 37.821ZM502.26 39.701H501.26V40.701H502.26V39.701ZM502.26 9.70105V8.70105H501.26V9.70105H502.26ZM509.78 36.621L509.08 37.3359L510.78 38.9982V36.621H509.78ZM506.1 33.021V32.021H503.648L505.4 33.7359L506.1 33.021ZM522.46 31.981L522.019 31.0833L522.46 31.981ZM525.74 29.101L526.586 29.6344L526.591 29.6262L525.74 29.101ZM525.74 20.301L524.894 20.8343L525.74 20.301ZM522.46 17.421L522.9 16.5233V16.5233L522.46 17.421ZM506.1 16.381L505.4 15.6662L503.648 17.381H506.1V16.381ZM509.78 12.781H510.78V10.4039L509.08 12.0662L509.78 12.781ZM516.9 10.701C520.301 10.701 523.23 11.3064 525.711 12.4844L526.569 10.6777C523.77 9.34904 520.538 8.70105 516.9 8.70105V10.701ZM525.711 12.4844C528.201 13.6664 530.106 15.2965 531.463 17.3688L533.136 16.2733C531.56 13.8656 529.359 12.0024 526.569 10.6777L525.711 12.4844ZM531.468 17.3757C532.839 19.4323 533.54 21.8607 533.54 24.701H535.54C535.54 21.5147 534.747 18.6898 533.132 16.2663L531.468 17.3757ZM533.54 24.701C533.54 27.5126 532.84 29.9438 531.465 32.0309L533.135 33.1312C534.746 30.685 535.54 27.8629 535.54 24.701H533.54ZM531.463 32.0333C530.106 34.1056 528.201 35.7357 525.711 36.9177L526.569 38.7244C529.359 37.3997 531.56 35.5365 533.136 33.1288L531.463 32.0333ZM525.711 36.9177C523.23 38.0957 520.301 38.701 516.9 38.701V40.701C520.538 40.701 523.77 40.0531 526.569 38.7244L525.711 36.9177ZM516.9 38.701H502.26V40.701H516.9V38.701ZM503.26 39.701V9.70105H501.26V39.701H503.26ZM502.26 10.701H516.9V8.70105H502.26V10.701ZM510.479 35.9062L506.799 32.3062L505.4 33.7359L509.08 37.3359L510.479 35.9062ZM506.1 34.021H517.46V32.021H506.1V34.021ZM517.46 34.021C519.499 34.021 521.323 33.6526 522.9 32.8788L522.019 31.0833C520.77 31.6962 519.26 32.021 517.46 32.021V34.021ZM522.9 32.8788C524.465 32.1112 525.705 31.0311 526.586 29.6343L524.894 28.5677C524.228 29.6243 523.281 30.4643 522.019 31.0833L522.9 32.8788ZM526.591 29.6262C527.475 28.1937 527.9 26.5398 527.9 24.701H525.9C525.9 26.2223 525.552 27.5017 524.889 28.5759L526.591 29.6262ZM527.9 24.701C527.9 22.8395 527.476 21.1805 526.586 19.7677L524.894 20.8343C525.55 21.8749 525.9 23.1492 525.9 24.701H527.9ZM526.586 19.7677C525.705 18.371 524.465 17.2909 522.9 16.5233L522.019 18.3188C523.281 18.9378 524.228 19.7777 524.894 20.8343L526.586 19.7677ZM522.9 16.5233C521.323 15.7495 519.499 15.381 517.46 15.381V17.381C519.26 17.381 520.77 17.7059 522.019 18.3188L522.9 16.5233ZM517.46 15.381H506.1V17.381H517.46V15.381ZM506.799 17.0959L510.479 13.4959L509.08 12.0662L505.4 15.6662L506.799 17.0959ZM508.78 12.781V36.621H510.78V12.781H508.78ZM542.543 33.661H541.543V34.661H542.543V33.661ZM542.543 27.581V26.581H541.543V27.581H542.543ZM563.263 27.581H564.263V26.581H563.263V27.581ZM563.263 33.661V34.661H564.263V33.661H563.263ZM557.983 9.70105L558.891 9.28214L558.623 8.70105H557.983V9.70105ZM571.823 39.701V40.701H573.385L572.731 39.2821L571.823 39.701ZM563.783 39.701L562.868 40.1058L563.132 40.701H563.783V39.701ZM551.903 12.861V11.861H550.366L550.988 13.2658L551.903 12.861ZM554.223 12.861L555.138 13.2647L555.757 11.861H554.223V12.861ZM542.383 39.701V40.701H543.034L543.297 40.1047L542.383 39.701ZM534.343 39.701L533.435 39.2821L532.78 40.701H534.343V39.701ZM548.183 9.70105V8.70105H547.543L547.275 9.28214L548.183 9.70105ZM543.543 33.661V27.581H541.543V33.661H543.543ZM542.543 28.581H563.263V26.581H542.543V28.581ZM562.263 27.581V33.661H564.263V27.581H562.263ZM563.263 32.661H542.543V34.661H563.263V32.661ZM557.075 10.12L570.915 40.12L572.731 39.2821L558.891 9.28214L557.075 10.12ZM571.823 38.701H563.783V40.701H571.823V38.701ZM564.697 39.2963L552.817 12.4563L550.988 13.2658L562.868 40.1058L564.697 39.2963ZM551.903 13.861H554.223V11.861H551.903V13.861ZM553.308 12.4574L541.468 39.2974L543.297 40.1047L555.138 13.2647L553.308 12.4574ZM542.383 38.701H534.343V40.701H542.383V38.701ZM535.251 40.12L549.091 10.12L547.275 9.28214L533.435 39.2821L535.251 40.12ZM548.183 10.701H557.983V8.70105H548.183V10.701ZM580.069 39.701H579.069V40.701H580.069V39.701ZM580.069 25.181V24.181H579.069V25.181H580.069ZM587.629 25.181H588.629V24.181H587.629V25.181ZM587.629 39.701V40.701H588.629V39.701H587.629ZM565.989 9.70105V8.70105H563.931L565.202 10.3189L565.989 9.70105ZM574.349 9.70105L575.135 9.08284L574.835 8.70105H574.349V9.70105ZM585.549 23.941V24.941H587.608L586.335 23.3228L585.549 23.941ZM582.069 23.941L581.283 23.3228L580.01 24.941H582.069V23.941ZM593.269 9.70105V8.70105H592.783L592.483 9.08284L593.269 9.70105ZM601.629 9.70105L602.415 10.3194L603.688 8.70105H601.629V9.70105ZM586.269 29.221L586.285 30.2209L586.761 30.2131L587.055 29.8394L586.269 29.221ZM581.389 29.301L580.603 29.9189L580.909 30.309L581.405 30.3009L581.389 29.301ZM581.069 39.701V25.181H579.069V39.701H581.069ZM580.069 26.181H587.629V24.181H580.069V26.181ZM586.629 25.181V39.701H588.629V25.181H586.629ZM587.629 38.701H580.069V40.701H587.629V38.701ZM565.989 10.701H574.349V8.70105H565.989V10.701ZM573.563 10.3193L584.763 24.5593L586.335 23.3228L575.135 9.08284L573.563 10.3193ZM585.549 22.941H582.069V24.941H585.549V22.941ZM582.855 24.5593L594.055 10.3193L592.483 9.08284L581.283 23.3228L582.855 24.5593ZM593.269 10.701H601.629V8.70105H593.269V10.701ZM600.843 9.08266L585.483 28.6027L587.055 29.8394L602.415 10.3194L600.843 9.08266ZM586.252 28.2212L581.372 28.3012L581.405 30.3009L586.285 30.2209L586.252 28.2212ZM582.175 28.6832L566.775 9.08323L565.202 10.3189L580.603 29.9189L582.175 28.6832Z" fill="#FFEB1C" mask="url(#path-4-outside-2_2201_125)"/>
</svg>
