<svg width="604" height="99" viewBox="0 0 604 99" fill="none" xmlns="http://www.w3.org/2000/svg">
<mask id="path-1-outside-1_2217_127" maskUnits="userSpaceOnUse" x="1.00066" y="46.0252" width="137.372" height="45.1783" fill="black">
<rect fill="white" x="1.00066" y="46.0252" width="137.372" height="45.1783"/>
<path d="M3.49675 69.8379C3.46203 67.5126 4.05199 65.456 5.26663 63.6681C6.47904 61.8536 8.16337 60.4009 10.3196 59.31C12.5002 58.1902 15.0122 57.5109 17.8555 57.2722C20.566 57.0445 22.9656 57.2578 25.0543 57.912C27.1431 58.5661 28.8212 59.5893 30.0889 60.9814C31.3565 62.3735 32.0717 64.0395 32.2347 65.9794C32.3619 67.494 32.0815 68.9359 31.3937 70.3049C30.7036 71.6474 29.5485 73.0289 27.9284 74.4495C26.3082 75.87 24.15 77.4161 21.4538 79.0876L13.1859 84.358L12.6232 82.4383L34.3069 80.6173L34.809 86.5963L5.63174 89.0466L5.18987 83.7851L17.4054 75.3332C19.3534 73.9921 20.8641 72.8617 21.9375 71.942C23.0353 70.9935 23.7933 70.1404 24.2113 69.3828C24.6294 68.6251 24.8038 67.8344 24.7346 67.0106C24.6632 66.1603 24.3605 65.423 23.8264 64.7989C23.3188 64.1725 22.5844 63.7123 21.6231 63.4184C20.6618 63.1245 19.477 63.0367 18.0686 63.155C16.3945 63.2956 15.0339 63.664 13.9868 64.2604C12.9375 64.8302 12.1817 65.5494 11.7194 66.4178C11.2571 67.2862 11.0141 68.2164 10.9904 69.2086L3.49675 69.8379ZM54.8419 85.5561C51.4672 85.8395 48.4894 85.434 45.9088 84.3394C43.3281 83.2449 41.2631 81.5986 39.7137 79.4006C38.1621 77.1759 37.2547 74.4958 36.9913 71.3602C36.7302 68.2511 37.1791 65.4705 38.3379 63.0182C39.4968 60.566 41.2572 58.585 43.6191 57.0754C45.9811 55.5658 48.8495 54.6693 52.2242 54.3859C55.5725 54.1047 58.5369 54.5113 61.1175 55.6059C63.6982 56.7004 65.7643 58.36 67.3159 60.5846C68.8653 62.7827 69.7717 65.4495 70.035 68.5852C70.2961 71.6942 69.8472 74.4749 68.6884 76.9271C67.5295 79.3794 65.7691 81.3603 63.4072 82.8699C61.0452 84.3795 58.1902 85.2749 54.8419 85.5561ZM54.3264 79.4177C57.1698 79.179 59.3061 78.17 60.7356 76.3908C62.1916 74.6093 62.7936 72.2172 62.5414 69.2145C62.2892 66.2117 61.2967 63.9535 59.564 62.4399C57.8578 60.924 55.5831 60.2855 52.7397 60.5242C49.8964 60.763 47.7467 61.7731 46.2907 63.5546C44.8347 65.336 44.2328 67.7281 44.4849 70.7309C44.7371 73.7336 45.7296 75.9918 47.4623 77.5055C49.1951 79.0191 51.4831 79.6565 54.3264 79.4177ZM72.8619 64.0125C72.8272 61.6873 73.4172 59.6307 74.6318 57.8428C75.8442 56.0283 77.5286 54.5756 79.6848 53.4846C81.8654 52.3649 84.3774 51.6856 87.2207 51.4468C89.9312 51.2192 92.3308 51.4325 94.4195 52.0866C96.5083 52.7408 98.1864 53.7639 99.4541 55.1561C100.722 56.5482 101.437 58.2142 101.6 60.154C101.727 61.6687 101.447 63.1106 100.759 64.4796C100.069 65.8221 98.9137 67.2036 97.2936 68.6241C95.6734 70.0447 93.5152 71.5907 90.819 73.2622L82.5511 78.5326L81.9884 76.613L103.672 74.792L104.174 80.7709L74.9969 83.2213L74.5551 77.9598L86.7706 69.5079C88.7186 68.1668 90.2293 67.0364 91.3027 66.1167C92.4005 65.1682 93.1585 64.3151 93.5765 63.5574C93.9946 62.7998 94.169 62.0091 94.0998 61.1853C94.0284 60.335 93.7257 59.5977 93.1916 58.9736C92.684 58.3472 91.9496 57.887 90.9883 57.5931C90.027 57.2992 88.8422 57.2114 87.4338 57.3296C85.7597 57.4702 84.3991 57.8387 83.352 58.4351C82.3027 59.0049 81.5469 59.724 81.0846 60.5924C80.6223 61.4608 80.3793 62.3911 80.3556 63.3832L72.8619 64.0125ZM106.144 60.1337C106.118 58.2359 106.639 56.4661 107.705 54.8244C108.771 53.1828 110.369 51.8176 112.499 50.7289C114.653 49.6114 117.298 48.9209 120.434 48.6576C123.171 48.4277 125.566 48.5879 127.619 49.138C129.696 49.6593 131.346 50.4975 132.567 51.6527C133.785 52.7814 134.465 54.1827 134.606 55.8568C134.72 57.2121 134.411 58.4823 133.681 59.6676C132.976 60.824 131.787 61.8069 130.116 62.6163C128.442 63.3991 126.262 63.8899 123.576 64.0888L123.509 63.2916C126.049 62.9445 128.257 62.9464 130.133 63.2973C132.009 63.6482 133.484 64.3271 134.559 65.334C135.633 66.341 136.24 67.6682 136.378 69.3157C136.53 71.1227 136.094 72.7783 135.069 74.2827C134.043 75.7604 132.461 77.0038 130.325 78.0128C128.213 78.993 125.589 79.6148 122.453 79.8781C119.397 80.1347 116.691 79.9338 114.334 79.2754C112.002 78.5882 110.133 77.5275 108.728 76.0934C107.348 74.6305 106.516 72.8538 106.234 70.7635L113.727 70.1342C114.063 71.5778 114.901 72.6447 116.244 73.3348C117.611 73.996 119.517 74.224 121.961 74.0187C124.273 73.8246 125.998 73.3318 127.136 72.5405C128.298 71.7204 128.825 70.6726 128.718 69.397C128.656 68.653 128.405 68.0585 127.966 67.6137C127.525 67.1423 126.815 66.8139 125.836 66.6285C124.857 66.4431 123.518 66.4218 121.817 66.5646L116.635 66.9998L116.203 61.8579L121.385 61.4227C123.591 61.2375 125.12 60.8014 125.972 60.1143C126.822 59.4007 127.204 58.539 127.119 57.5292C127.026 56.4131 126.422 55.5941 125.307 55.0722C124.22 54.5481 122.626 54.3742 120.527 54.5504C118.348 54.7334 116.679 55.2483 115.519 56.095C114.385 56.9395 113.758 58.0759 113.637 59.5044L106.144 60.1337Z"/>
</mask>
<path d="M3.49675 69.8379L2.49686 69.8528L2.51285 70.924L3.58043 70.8344L3.49675 69.8379ZM5.26663 63.6681L6.09383 64.2301L6.0981 64.2237L5.26663 63.6681ZM10.3196 59.31L10.7711 60.2023L10.7764 60.1995L10.3196 59.31ZM25.0543 57.912L24.7555 58.8663L25.0543 57.912ZM30.0889 60.9814L29.3495 61.6547L29.3495 61.6547L30.0889 60.9814ZM31.3937 70.3049L32.2831 70.7621L32.2872 70.7539L31.3937 70.3049ZM27.9284 74.4495L28.5877 75.2014L27.9284 74.4495ZM21.4538 79.0876L20.9269 78.2376L20.9163 78.2443L21.4538 79.0876ZM13.1859 84.358L12.2262 84.6392L12.6007 85.9169L13.7234 85.2012L13.1859 84.358ZM12.6232 82.4383L12.5396 81.4418L11.3192 81.5443L11.6636 82.7196L12.6232 82.4383ZM34.3069 80.6173L35.3034 80.5336L35.2197 79.5371L34.2232 79.6208L34.3069 80.6173ZM34.809 86.5963L34.8927 87.5927L35.8892 87.5091L35.8055 86.5126L34.809 86.5963ZM5.63173 89.0466L4.63524 89.1303L4.71893 90.1268L5.71542 90.0431L5.63173 89.0466ZM5.18987 83.7851L4.62089 82.9628L4.14495 83.2921L4.19338 83.8688L5.18987 83.7851ZM17.4054 75.3332L16.8384 74.5095L16.8364 74.5108L17.4054 75.3332ZM21.9375 71.942L22.5882 72.7014L22.5913 72.6987L21.9375 71.942ZM24.2113 69.3828L23.3358 68.8996L24.2113 69.3828ZM23.8264 64.7989L23.0494 65.4284L23.0578 65.4389L23.0666 65.4491L23.8264 64.7989ZM21.6231 63.4184L21.9155 62.4621L21.6231 63.4184ZM13.9868 64.2604L14.464 65.1392L14.4729 65.1344L14.4817 65.1294L13.9868 64.2604ZM11.7194 66.4178L12.6021 66.8877L11.7194 66.4178ZM10.9904 69.2086L11.0741 70.205L11.9686 70.1299L11.9901 69.2325L10.9904 69.2086ZM4.49663 69.8229C4.46474 67.6867 5.00355 65.8349 6.0938 64.2301L4.43946 63.1062C3.10044 65.0772 2.45932 67.3385 2.49686 69.8528L4.49663 69.8229ZM6.0981 64.2237C7.20493 62.5672 8.75149 61.2241 10.7711 60.2023L9.86819 58.4177C7.57525 59.5778 5.75314 61.14 4.43516 63.1125L6.0981 64.2237ZM10.7764 60.1995C12.8234 59.1484 15.205 58.4983 17.9392 58.2687L17.7719 56.2757C14.8194 56.5236 12.1771 57.232 9.86284 58.4204L10.7764 60.1995ZM17.9392 58.2687C20.5509 58.0493 22.8163 58.259 24.7555 58.8663L25.3532 56.9577C23.1149 56.2567 20.5811 56.0397 17.7719 56.2757L17.9392 58.2687ZM24.7555 58.8663C26.7029 59.4762 28.2194 60.4136 29.3495 61.6547L30.8283 60.3081C29.4231 58.765 27.5833 57.6561 25.3532 56.9577L24.7555 58.8663ZM29.3495 61.6547C30.4635 62.8781 31.093 64.3347 31.2382 66.0631L33.2311 65.8957C33.0505 63.7444 32.2495 61.869 30.8283 60.3081L29.3495 61.6547ZM31.2382 66.0631C31.3498 67.3925 31.1059 68.6502 30.5001 69.856L32.2872 70.7539C33.0571 69.2216 33.3739 67.5955 33.2311 65.8957L31.2382 66.0631ZM30.5043 69.8477C29.8907 71.0415 28.8319 72.3273 27.2691 73.6976L28.5877 75.2014C30.2651 73.7305 31.5165 72.2533 32.2831 70.7621L30.5043 69.8477ZM27.2691 73.6976C25.7047 75.0693 23.5961 76.5829 20.9269 78.2376L21.9807 79.9375C24.704 78.2492 26.9118 76.6708 28.5877 75.2014L27.2691 73.6976ZM20.9163 78.2443L12.6483 83.5147L13.7234 85.2012L21.9913 79.9308L20.9163 78.2443ZM14.1455 84.0767L13.5829 82.1571L11.6636 82.7196L12.2262 84.6392L14.1455 84.0767ZM12.7069 83.4348L34.3906 81.6138L34.2232 79.6208L12.5396 81.4418L12.7069 83.4348ZM33.3104 80.701L33.8125 86.6799L35.8055 86.5126L35.3034 80.5336L33.3104 80.701ZM34.7253 85.5998L5.54805 88.0501L5.71542 90.0431L34.8927 87.5927L34.7253 85.5998ZM6.62823 88.9629L6.18637 83.7014L4.19338 83.8688L4.63524 89.1303L6.62823 88.9629ZM5.75886 84.6075L17.9744 76.1555L16.8364 74.5108L4.62089 82.9628L5.75886 84.6075ZM17.9725 76.1569C19.9329 74.8072 21.4762 73.6541 22.5882 72.7014L21.2869 71.1826C20.2519 72.0694 18.7738 73.1771 16.8384 74.5095L17.9725 76.1569ZM22.5913 72.6987C23.7265 71.7179 24.5858 70.7739 25.0869 69.8659L23.3358 68.8996C23.0007 69.5069 22.3442 70.2691 21.2837 71.1853L22.5913 72.6987ZM25.0869 69.8659C25.5956 68.9439 25.8176 67.9569 25.7311 66.927L23.7382 67.0943C23.79 67.7119 23.6632 68.3063 23.3358 68.8996L25.0869 69.8659ZM25.7311 66.927C25.6429 65.8763 25.2621 64.9387 24.5862 64.1487L23.0666 65.4491C23.4588 65.9074 23.6836 66.4443 23.7382 67.0943L25.7311 66.927ZM24.6033 64.1693C23.9426 63.3539 23.0201 62.7998 21.9155 62.4621L21.3307 64.3747C22.1488 64.6248 22.6951 64.9911 23.0494 65.4284L24.6033 64.1693ZM21.9155 62.4621C20.7939 62.1192 19.4724 62.0336 17.9849 62.1585L18.1523 64.1515C19.4815 64.0398 20.5297 64.1298 21.3307 64.3747L21.9155 62.4621ZM17.9849 62.1585C16.2195 62.3067 14.7046 62.7007 13.4919 63.3915L14.4817 65.1294C15.3631 64.6274 16.5695 64.2844 18.1523 64.1515L17.9849 62.1585ZM13.5096 63.3816C12.3251 64.0248 11.4092 64.8724 10.8367 65.9478L12.6021 66.8877C12.9542 66.2263 13.5498 65.6357 14.464 65.1392L13.5096 63.3816ZM10.8367 65.9478C10.3005 66.955 10.0181 68.0382 9.99065 69.1846L11.9901 69.2325C12.0101 68.3946 12.2137 67.6173 12.6021 66.8877L10.8367 65.9478ZM10.9067 68.2121L3.41306 68.8414L3.58043 70.8344L11.0741 70.205L10.9067 68.2121ZM45.9088 84.3394L45.5183 85.2601L45.9088 84.3394ZM39.7137 79.4006L38.8935 79.9726L38.8964 79.9767L39.7137 79.4006ZM38.3379 63.0182L37.4338 62.591L38.3379 63.0182ZM43.6191 57.0754L44.1577 57.918L44.1577 57.918L43.6191 57.0754ZM61.1175 55.6059L60.7271 56.5265L60.7271 56.5265L61.1175 55.6059ZM67.3159 60.5846L66.4957 61.1567L66.4986 61.1608L67.3159 60.5846ZM68.6884 76.9271L69.5925 77.3544L68.6884 76.9271ZM63.4072 82.8699L63.9457 83.7125L63.4072 82.8699ZM60.7356 76.3908L59.9613 75.7579L59.956 75.7644L60.7356 76.3908ZM59.564 62.4399L58.8998 63.1875L58.9061 63.193L59.564 62.4399ZM46.2907 63.5546L47.065 64.1874L46.2907 63.5546ZM47.4623 77.5055L46.8044 78.2586L47.4623 77.5055ZM54.7583 84.5596C51.5119 84.8323 48.7023 84.438 46.2992 83.4188L45.5183 85.2601C48.2766 86.4299 51.4224 86.8468 54.9256 86.5526L54.7583 84.5596ZM46.2992 83.4188C43.8826 82.3938 41.9684 80.8635 40.5311 78.8244L38.8964 79.9767C40.5578 82.3338 42.7737 84.096 45.5183 85.2601L46.2992 83.4188ZM40.5339 78.8285C39.0982 76.77 38.2388 74.2651 37.9878 71.2765L35.9948 71.4439C36.2705 74.7265 37.226 77.5818 38.8935 79.9726L40.5339 78.8285ZM37.9878 71.2765C37.7392 68.3162 38.1692 65.7159 39.2421 63.4455L37.4338 62.591C36.189 65.2251 35.7212 68.1861 35.9948 71.4439L37.9878 71.2765ZM39.2421 63.4455C40.3178 61.1692 41.9486 59.3299 44.1577 57.918L43.0806 56.2328C40.5657 57.8402 38.6758 59.9627 37.4338 62.591L39.2421 63.4455ZM44.1577 57.918C46.3571 56.5123 49.0616 55.655 52.3079 55.3823L52.1406 53.3894C48.6373 53.6836 45.6051 54.6193 43.0806 56.2328L44.1577 57.918ZM52.3079 55.3823C55.5262 55.1121 58.3229 55.5068 60.7271 56.5265L61.508 54.6853C58.7508 53.5159 55.6187 53.0973 52.1406 53.3894L52.3079 55.3823ZM60.7271 56.5265C63.1407 57.5502 65.0555 59.0917 66.4957 61.1567L68.1361 60.0126C66.4732 57.6283 64.2557 55.8507 61.508 54.6853L60.7271 56.5265ZM66.4986 61.1608C67.9293 63.1904 68.7875 65.6799 69.0385 68.6688L71.0315 68.5015C70.7558 65.2191 69.8014 62.3749 68.1333 60.0085L66.4986 61.1608ZM69.0385 68.6688C69.2871 71.6292 68.8572 74.2294 67.7843 76.4998L69.5925 77.3544C70.8373 74.7203 71.3051 71.7592 71.0315 68.5015L69.0385 68.6688ZM67.7843 76.4998C66.7086 78.7761 65.0777 80.6154 62.8686 82.0273L63.9457 83.7125C66.4606 82.1052 68.3505 79.9826 69.5925 77.3544L67.7843 76.4998ZM62.8686 82.0273C60.6683 83.4337 57.9766 84.2894 54.7583 84.5596L54.9256 86.5526C58.4038 86.2605 61.4222 85.3254 63.9457 83.7125L62.8686 82.0273ZM54.4101 80.4142C57.4536 80.1586 59.8733 79.0606 61.5152 77.0171L59.956 75.7644C58.7389 77.2793 56.8859 78.1993 54.2427 78.4212L54.4101 80.4142ZM61.5099 77.0236C63.1762 74.9849 63.8048 72.3093 63.5379 69.1308L61.5449 69.2982C61.7823 72.1251 61.2071 74.2337 59.9613 75.7579L61.5099 77.0236ZM63.5379 69.1308C63.2709 65.9522 62.2049 63.419 60.2219 61.6868L58.9061 63.193C60.3886 64.488 61.3075 66.4712 61.5449 69.2982L63.5379 69.1308ZM60.2282 61.6923C58.2685 59.9512 55.6996 59.2722 52.6561 59.5278L52.8234 61.5207C55.4666 61.2988 57.4471 61.8968 58.8998 63.1874L60.2282 61.6923ZM52.6561 59.5278C49.6118 59.7834 47.1833 60.8824 45.5164 62.9217L47.065 64.1874C48.3102 62.6639 50.181 61.7426 52.8234 61.5207L52.6561 59.5278ZM45.5164 62.9217C43.8502 64.9604 43.2215 67.636 43.4884 70.8145L45.4814 70.6472C45.244 67.8202 45.8192 65.7116 47.065 64.1874L45.5164 62.9217ZM43.4884 70.8145C43.7554 73.9931 44.8215 76.5264 46.8044 78.2586L48.1202 76.7523C46.6377 75.4573 45.7188 73.4742 45.4814 70.6472L43.4884 70.8145ZM46.8044 78.2586C48.7881 79.9914 51.3659 80.6699 54.4101 80.4142L54.2427 78.4212C51.6004 78.6432 49.6021 78.0468 48.1202 76.7523L46.8044 78.2586ZM72.8619 64.0125L71.8621 64.0275L71.878 65.0987L72.9456 65.009L72.8619 64.0125ZM74.6318 57.8428L75.459 58.4047L75.4633 58.3984L74.6318 57.8428ZM79.6848 53.4846L80.1363 54.3769L80.1416 54.3742L79.6848 53.4846ZM94.4195 52.0866L94.1207 53.0409L94.4195 52.0866ZM99.4541 55.1561L98.7147 55.8293L98.7147 55.8294L99.4541 55.1561ZM100.759 64.4796L101.648 64.9368L101.652 64.9285L100.759 64.4796ZM97.2936 68.6241L97.9528 69.376L97.2936 68.6241ZM90.819 73.2622L90.2921 72.4122L90.2815 72.419L90.819 73.2622ZM82.5511 78.5326L81.5914 78.8139L81.9659 80.0915L83.0886 79.3759L82.5511 78.5326ZM81.9884 76.613L81.9048 75.6165L80.6844 75.719L81.0288 76.8942L81.9884 76.613ZM103.672 74.792L104.669 74.7083L104.585 73.7118L103.588 73.7955L103.672 74.792ZM104.174 80.7709L104.258 81.7674L105.254 81.6837L105.171 80.6872L104.174 80.7709ZM74.9969 83.2213L74.0004 83.3049L74.0841 84.3014L75.0806 84.2177L74.9969 83.2213ZM74.5551 77.9598L73.9861 77.1374L73.5101 77.4667L73.5586 78.0435L74.5551 77.9598ZM86.7706 69.5079L86.2035 68.6842L86.2016 68.6855L86.7706 69.5079ZM91.3027 66.1167L91.9534 66.8761L91.9565 66.8734L91.3027 66.1167ZM93.5765 63.5574L92.701 63.0743L93.5765 63.5574ZM93.1916 58.9736L92.4146 59.6031L92.423 59.6135L92.4318 59.6237L93.1916 58.9736ZM90.9883 57.5931L91.2807 56.6368L90.9883 57.5931ZM83.352 58.4351L83.8292 59.3139L83.8381 59.3091L83.8469 59.304L83.352 58.4351ZM81.0846 60.5924L81.9673 61.0623L81.0846 60.5924ZM80.3556 63.3832L80.4392 64.3797L81.3338 64.3046L81.3553 63.4071L80.3556 63.3832ZM73.8618 63.9976C73.8299 61.8614 74.3687 60.0096 75.459 58.4047L73.8047 57.2808C72.4656 59.2518 71.8245 61.5132 71.8621 64.0275L73.8618 63.9976ZM75.4633 58.3984C76.5701 56.7419 78.1167 55.3987 80.1363 54.3769L79.2334 52.5923C76.9405 53.7524 75.1183 55.3147 73.8004 57.2872L75.4633 58.3984ZM80.1416 54.3742C82.1886 53.3231 84.5702 52.6729 87.3044 52.4433L87.1371 50.4503C84.1846 50.6983 81.5423 51.4067 79.228 52.5951L80.1416 54.3742ZM87.3044 52.4433C89.9161 52.224 92.1815 52.4336 94.1207 53.0409L94.7184 51.1323C92.4801 50.4313 89.9463 50.2144 87.1371 50.4503L87.3044 52.4433ZM94.1207 53.0409C96.0681 53.6508 97.5846 54.5883 98.7147 55.8293L100.193 54.4828C98.7883 52.9396 96.9485 51.8308 94.7184 51.1323L94.1207 53.0409ZM98.7147 55.8294C99.8287 57.0528 100.458 58.5094 100.603 60.2377L102.596 60.0704C102.416 57.9191 101.615 56.0437 100.193 54.4828L98.7147 55.8294ZM100.603 60.2377C100.715 61.5672 100.471 62.8249 99.8653 64.0306L101.652 64.9285C102.422 63.3962 102.739 61.7702 102.596 60.0704L100.603 60.2377ZM99.8695 64.0224C99.2559 65.2162 98.1971 66.502 96.6343 67.8722L97.9528 69.376C99.6303 67.9052 100.882 66.4279 101.648 64.9368L99.8695 64.0224ZM96.6343 67.8722C95.0699 69.2439 92.9613 70.7576 90.2921 72.4123L91.3459 74.1122C94.0692 72.4239 96.277 70.8454 97.9528 69.376L96.6343 67.8722ZM90.2815 72.419L82.0135 77.6894L83.0886 79.3759L91.3565 74.1055L90.2815 72.419ZM83.5107 78.2514L82.9481 76.3317L81.0288 76.8942L81.5914 78.8139L83.5107 78.2514ZM82.0721 77.6095L103.756 75.7885L103.588 73.7955L81.9048 75.6165L82.0721 77.6095ZM102.676 74.8757L103.178 80.8546L105.171 80.6872L104.669 74.7083L102.676 74.8757ZM104.091 79.7744L74.9132 82.2248L75.0806 84.2177L104.258 81.7674L104.091 79.7744ZM75.9934 83.1376L75.5516 77.8761L73.5586 78.0435L74.0004 83.3049L75.9934 83.1376ZM75.1241 78.7821L87.3396 70.3302L86.2016 68.6855L73.9861 77.1374L75.1241 78.7821ZM87.3377 70.3315C89.2981 68.9819 90.8414 67.8288 91.9533 66.8761L90.6521 65.3573C89.6171 66.244 88.139 67.3517 86.2036 68.6842L87.3377 70.3315ZM91.9565 66.8734C93.0917 65.8925 93.951 64.9486 94.4521 64.0405L92.701 63.0743C92.3659 63.6816 91.7094 64.4438 90.6489 65.36L91.9565 66.8734ZM94.4521 64.0405C94.9608 63.1186 95.1828 62.1316 95.0963 61.1016L93.1034 61.269C93.1552 61.8865 93.0284 62.481 92.701 63.0743L94.4521 64.0405ZM95.0963 61.1016C95.0081 60.0509 94.6273 59.1133 93.9513 58.3234L92.4318 59.6237C92.824 60.0821 93.0488 60.619 93.1034 61.269L95.0963 61.1016ZM93.9685 58.344C93.3078 57.5285 92.3853 56.9745 91.2807 56.6368L90.6959 58.5494C91.514 58.7995 92.0603 59.1658 92.4146 59.6031L93.9685 58.344ZM91.2807 56.6368C90.1591 56.2939 88.8376 56.2082 87.3501 56.3331L87.5175 58.3261C88.8467 58.2145 89.8949 58.3045 90.6959 58.5494L91.2807 56.6368ZM87.3501 56.3331C85.5847 56.4814 84.0698 56.8754 82.8571 57.5662L83.8469 59.304C84.7283 58.802 85.9347 58.4591 87.5175 58.3261L87.3501 56.3331ZM82.8748 57.5563C81.6903 58.1995 80.7744 59.0471 80.2019 60.1225L81.9673 61.0623C82.3193 60.401 82.915 59.8103 83.8292 59.3139L82.8748 57.5563ZM80.2019 60.1225C79.6657 61.1297 79.3833 62.2129 79.3558 63.3593L81.3553 63.4071C81.3753 62.5693 81.5789 61.792 81.9673 61.0623L80.2019 60.1225ZM80.2719 62.3867L72.7783 63.016L72.9456 65.009L80.4392 64.3797L80.2719 62.3867ZM106.144 60.1337L105.144 60.1472L105.158 61.22L106.227 61.1302L106.144 60.1337ZM107.705 54.8244L106.866 54.2797L107.705 54.8244ZM112.499 50.7289L112.954 51.6193L112.96 51.6165L112.499 50.7289ZM127.619 49.138L127.36 50.1039L127.368 50.106L127.376 50.1079L127.619 49.138ZM132.567 51.6527L131.879 52.3792L131.887 52.3864L132.567 51.6527ZM133.681 59.6676L132.83 59.1431L132.828 59.1467L133.681 59.6676ZM130.116 62.6163L130.539 63.5222L130.551 63.5163L130.116 62.6163ZM123.576 64.0888L122.579 64.1724L122.662 65.1591L123.65 65.086L123.576 64.0888ZM123.509 63.2916L123.374 62.3008L122.433 62.4293L122.512 63.3752L123.509 63.2916ZM135.069 74.2827L135.891 74.8532L135.896 74.8455L135.069 74.2827ZM130.325 78.0128L130.746 78.9199L130.752 78.917L130.325 78.0128ZM114.334 79.2754L114.052 80.2347L114.065 80.2385L114.334 79.2754ZM108.728 76.0934L108.001 76.7797L108.008 76.7865L108.014 76.7932L108.728 76.0934ZM106.234 70.7635L106.15 69.767L105.102 69.855L105.243 70.8974L106.234 70.7635ZM113.727 70.1342L114.701 69.9079L114.506 69.0653L113.644 69.1377L113.727 70.1342ZM116.244 73.3348L115.787 74.2241L115.798 74.2297L115.808 74.235L116.244 73.3348ZM127.136 72.5405L127.707 73.3615L127.712 73.3575L127.136 72.5405ZM127.966 67.6137L127.236 68.2969L127.245 68.3065L127.254 68.3159L127.966 67.6137ZM125.836 66.6285L125.65 67.611L125.836 66.6285ZM116.635 66.9998L115.639 67.0835L115.722 68.08L116.719 67.9963L116.635 66.9998ZM116.203 61.8579L116.12 60.8614L115.123 60.9451L115.207 61.9416L116.203 61.8579ZM125.972 60.1143L126.599 60.8928L126.607 60.8866L126.615 60.8802L125.972 60.1143ZM125.307 55.0722L124.873 55.9731L124.883 55.9778L125.307 55.0722ZM115.519 56.095L114.929 55.2873L114.921 55.2931L115.519 56.095ZM113.637 59.5044L113.721 60.5009L114.563 60.4302L114.634 59.5887L113.637 59.5044ZM107.144 60.1202C107.121 58.4268 107.581 56.8503 108.544 55.3692L106.866 54.2797C105.696 56.0819 105.116 58.0449 105.144 60.1472L107.144 60.1202ZM108.544 55.3692C109.496 53.9036 110.946 52.6459 112.954 51.6193L112.044 49.8385C109.793 50.9893 108.047 52.4619 106.866 54.2797L108.544 55.3692ZM112.96 51.6165C114.967 50.5749 117.476 49.9095 120.517 49.6541L120.35 47.6611C117.12 47.9324 114.339 48.6478 112.038 49.8412L112.96 51.6165ZM120.517 49.6541C123.171 49.4312 125.446 49.591 127.36 50.1039L127.878 48.172C125.686 47.5848 123.17 47.4243 120.35 47.6611L120.517 49.6541ZM127.376 50.1079C129.331 50.5987 130.813 51.3699 131.879 52.3791L133.254 50.9263C131.879 49.6251 130.062 48.7199 127.862 48.168L127.376 50.1079ZM131.887 52.3864C132.921 53.3434 133.489 54.5119 133.609 55.9405L135.602 55.7732C135.441 53.8536 134.65 52.2193 133.246 50.919L131.887 52.3864ZM133.609 55.9405C133.705 57.0774 133.451 58.1353 132.83 59.1431L134.533 60.192C135.372 58.8294 135.734 57.3467 135.602 55.7732L133.609 55.9405ZM132.828 59.1467C132.253 60.089 131.24 60.9606 129.68 61.7163L130.551 63.5163C132.334 62.6533 133.699 61.559 134.535 60.1885L132.828 59.1467ZM129.692 61.7105C128.166 62.424 126.118 62.8979 123.502 63.0915L123.65 65.086C126.406 64.882 128.717 64.3743 130.539 63.5221L129.692 61.7105ZM124.572 64.0051L124.505 63.2079L122.512 63.3752L122.579 64.1724L124.572 64.0051ZM123.644 64.2824C126.112 63.9451 128.207 63.9545 129.949 64.2802L130.317 62.3143C128.306 61.9383 125.986 61.9438 123.374 62.3008L123.644 64.2824ZM129.949 64.2802C131.692 64.6063 132.975 65.2205 133.875 66.0638L135.242 64.6043C133.993 63.4336 132.325 62.6901 130.317 62.3143L129.949 64.2802ZM133.875 66.0638C134.747 66.8804 135.261 67.966 135.382 69.3994L137.375 69.232C137.218 67.3704 136.52 65.8015 135.242 64.6043L133.875 66.0638ZM135.382 69.3994C135.514 70.9768 135.138 72.4044 134.243 73.7198L135.896 74.8455C137.049 73.1523 137.546 71.2685 137.375 69.232L135.382 69.3994ZM134.248 73.7121C133.348 75.0079 131.924 76.1516 129.898 77.1086L130.752 78.917C132.998 77.856 134.738 76.513 135.891 74.8532L134.248 73.7121ZM129.904 77.1057C127.928 78.0226 125.427 78.6248 122.37 78.8816L122.537 80.8746C125.751 80.6047 128.497 79.9634 130.746 78.9199L129.904 77.1057ZM122.37 78.8816C119.404 79.1307 116.821 78.9317 114.603 78.3123L114.065 80.2385C116.562 80.9359 119.391 81.1388 122.537 80.8746L122.37 78.8816ZM114.617 78.3162C112.414 77.6671 110.706 76.6825 109.443 75.3936L108.014 76.7932C109.561 78.3725 111.59 79.5093 114.052 80.2346L114.617 78.3162ZM109.456 75.407C108.226 74.1038 107.481 72.5234 107.225 70.6295L105.243 70.8974C105.552 73.1842 106.47 75.1571 108.001 76.7797L109.456 75.407ZM106.317 71.76L113.811 71.1306L113.644 69.1377L106.15 69.767L106.317 71.76ZM112.753 70.3604C113.156 72.0964 114.189 73.4026 115.787 74.2241L116.701 72.4454C115.614 71.8868 114.969 71.0593 114.701 69.9079L112.753 70.3604ZM115.808 74.235C117.407 75.0084 119.521 75.2272 122.045 75.0152L121.878 73.0222C119.512 73.2208 117.814 72.9837 116.679 72.4346L115.808 74.235ZM122.045 75.0152C124.427 74.8151 126.358 74.2995 127.707 73.3615L126.565 71.7195C125.638 72.3641 124.119 72.834 121.878 73.0222L122.045 75.0152ZM127.712 73.3575C129.125 72.3603 129.855 70.9873 129.715 69.3134L127.722 69.4807C127.795 70.3578 127.47 71.0804 126.559 71.7235L127.712 73.3575ZM129.715 69.3134C129.637 68.3836 129.312 67.5539 128.678 66.9115L127.254 68.3159C127.498 68.5632 127.675 68.9223 127.722 69.4807L129.715 69.3134ZM128.697 66.9306C128.051 66.2404 127.104 65.8507 126.022 65.646L125.65 67.611C126.527 67.777 127 68.0442 127.236 68.2969L128.697 66.9306ZM126.022 65.646C124.914 65.436 123.47 65.4223 121.733 65.5682L121.901 67.5611C123.565 67.4213 124.801 67.4503 125.65 67.611L126.022 65.646ZM121.733 65.5682L116.551 66.0033L116.719 67.9963L121.901 67.5611L121.733 65.5682ZM117.632 66.9161L117.2 61.7742L115.207 61.9416L115.639 67.0835L117.632 66.9161ZM116.287 62.8544L121.469 62.4192L121.301 60.4263L116.12 60.8614L116.287 62.8544ZM121.469 62.4192C123.706 62.2314 125.499 61.7802 126.599 60.8928L125.344 59.3358C124.74 59.8225 123.475 60.2437 121.301 60.4263L121.469 62.4192ZM126.615 60.8802C127.686 59.9808 128.231 58.8135 128.116 57.4455L126.123 57.6129C126.178 58.2645 125.957 58.8205 125.329 59.3485L126.615 60.8802ZM128.116 57.4455C127.989 55.9321 127.131 54.8222 125.732 54.1666L124.883 55.9778C125.712 56.3661 126.063 56.8942 126.123 57.6129L128.116 57.4455ZM125.742 54.1714C124.413 53.5313 122.605 53.3724 120.443 53.554L120.611 55.5469C122.647 55.3759 124.026 55.5648 124.873 55.9731L125.742 54.1714ZM120.443 53.554C118.17 53.7449 116.295 54.29 114.929 55.2873L116.108 56.9027C117.062 56.2066 118.526 55.722 120.611 55.5469L120.443 53.554ZM114.921 55.2931C113.555 56.3114 112.786 57.711 112.641 59.4201L114.634 59.5887C114.731 58.4408 115.216 57.5675 116.116 56.8969L114.921 55.2931ZM113.554 58.5079L106.06 59.1372L106.227 61.1302L113.721 60.5009L113.554 58.5079Z" fill="#FFEB1C" mask="url(#path-1-outside-1_2217_127)"/>
<mask id="path-3-outside-2_2217_127" maskUnits="userSpaceOnUse" x="160.439" y="13.4714" width="365.568" height="64.3424" fill="black">
<rect fill="white" x="160.439" y="13.4714" width="365.568" height="64.3424"/>
<path d="M184.526 59.2511L185.04 57.7228C187.383 57.5795 189.326 57.7776 190.87 58.3169C192.44 58.8541 193.633 59.6771 194.449 60.7861C195.289 61.8662 195.773 63.1636 195.9 64.6783C196.034 66.2727 195.782 67.7389 195.145 69.0769C194.506 70.3883 193.473 71.4652 192.045 72.3077C190.644 73.1479 188.84 73.6606 186.635 73.8458L165.11 75.6535L166.133 60.1133L162.6 45.7587L183.367 44.0147C186.13 43.7826 188.324 44.254 189.948 45.4289C191.596 46.5749 192.515 48.2773 192.705 50.5361C192.81 51.785 192.618 53.0053 192.129 54.1971C191.641 55.3888 190.792 56.4368 189.584 57.3411C188.373 58.2189 186.687 58.8555 184.526 59.2511ZM172.37 73.1973L169.202 69.8908L184.389 68.6154C185.691 68.5061 186.675 68.1157 187.341 67.4442C188.032 66.744 188.329 65.8226 188.233 64.6799C188.137 63.5373 187.649 62.6684 186.77 62.0732C185.915 61.4493 184.69 61.2042 183.095 61.3381L170.659 62.3825L170.217 57.1211L181.697 56.157C182.786 56.0655 183.664 55.684 184.33 55.0126C184.994 54.3146 185.281 53.4208 185.189 52.3313C185.115 51.4544 184.75 50.7626 184.091 50.2559C183.431 49.7226 182.516 49.5051 181.347 49.6033L167.636 50.7548L170.168 46.9696L173.348 59.5074L172.37 73.1973ZM205.888 42.1233L208.118 68.6699L204.452 65.646L226.853 63.7648L227.412 70.4213L200.865 72.6507L198.355 42.756L205.888 42.1233ZM235.908 63.6466L235.399 57.5879L256.047 55.8539L256.556 61.9126L235.908 63.6466ZM249.289 38.4785L265.591 67.215L257.579 67.8879L243.495 42.1362L245.807 41.9421L236.254 69.6788L228.242 70.3516L239.523 39.2986L249.289 38.4785ZM298.65 51.9951C298.574 54.5972 297.875 56.944 296.552 59.0354C295.226 61.1002 293.387 62.78 291.034 64.0748C288.681 65.3696 285.936 66.1487 282.801 66.412C279.373 66.6999 276.302 66.3021 273.589 65.2188C270.902 64.1331 268.742 62.4814 267.111 60.2634C265.48 58.0455 264.534 55.382 264.272 52.273C264.011 49.1639 264.5 46.3799 265.739 43.921C266.977 41.462 268.831 39.4733 271.299 37.9547C273.794 36.4339 276.755 35.5296 280.183 35.2417C283.319 34.9784 286.155 35.2888 288.691 36.173C291.227 37.0572 293.321 38.4067 294.972 40.2216C296.623 42.0365 297.704 44.2337 298.215 46.8133L290.641 47.4493C290.262 46.1164 289.62 45.0062 288.716 44.1188C287.838 43.2291 286.714 42.5876 285.343 42.1943C283.996 41.7722 282.459 41.6337 280.732 41.7787C278.739 41.9461 277.056 42.4621 275.684 43.3266C274.309 44.1646 273.293 45.2936 272.637 46.7135C271.98 48.1335 271.729 49.7735 271.886 51.6336C272.042 53.4937 272.562 55.069 273.447 56.3595C274.331 57.6501 275.522 58.6071 277.019 59.2306C278.515 59.8276 280.259 60.0424 282.252 59.875C283.979 59.73 285.472 59.3503 286.732 58.7361C288.018 58.1196 289.02 57.2996 289.737 56.276C290.48 55.2502 290.927 54.0352 291.076 52.6311L298.65 51.9951ZM303.901 63.9977L301.391 34.103L308.884 33.4736L310.889 57.3496L308.726 55.9658L324.549 32.1581L332.521 31.4886L310.677 63.4287L303.901 63.9977ZM316.996 48.3269L322.025 43.2081L335.43 61.3499L326.9 62.0663L316.996 48.3269ZM349.737 42.5667L371.381 40.749L371.92 47.1664L350.276 48.9841L349.737 42.5667ZM371.054 28.2526L371.593 34.67L349.391 36.5345L352.787 32.5162L355.07 59.7005L347.537 60.3332L345.026 30.4384L371.054 28.2526ZM381.753 40.6005L392.954 39.6599C394.362 39.5416 395.451 39.129 396.222 38.4221C396.989 37.6886 397.324 36.7372 397.226 35.568C397.128 34.3988 396.64 33.5299 395.763 32.9613C394.883 32.3662 393.739 32.1277 392.331 32.246L380.054 33.277L383.131 29.2855L385.471 57.1475L377.937 57.7801L375.427 27.8854L392.845 26.4225C395.078 26.2351 397.064 26.4696 398.805 27.1262C400.546 27.7828 401.941 28.7763 402.989 30.1065C404.038 31.4368 404.641 33.0453 404.8 34.932C404.956 36.7921 404.628 38.4654 403.816 39.9519C403.004 41.4384 401.795 42.6505 400.188 43.5883C398.578 44.4995 396.658 45.0488 394.425 45.2363L382.228 46.2606L381.753 40.6005ZM386.807 42.9458L395.297 42.2328L407.473 55.2997L398.744 56.0328L386.807 42.9458ZM408.903 25.074L416.436 24.4414L418.947 54.3361L411.413 54.9688L408.903 25.074ZM436.843 22.7276C440.35 22.433 443.472 22.7997 446.208 23.8277C448.943 24.8558 451.136 26.4245 452.785 28.5339C454.46 30.641 455.424 33.196 455.676 36.1988C455.926 39.175 455.402 41.8549 454.103 44.2386C452.829 46.5935 450.929 48.5058 448.404 49.9757C445.878 51.4456 442.861 52.3278 439.353 52.6224L424.765 53.8475L422.254 23.9528L436.843 22.7276ZM432.001 50.149L428.032 46.8696L439.352 45.9189C441.266 45.7583 442.897 45.2733 444.248 44.4642C445.598 43.655 446.607 42.6068 447.275 41.3198C447.941 40.0061 448.204 38.5122 448.063 36.8381C447.92 35.1374 447.412 33.7083 446.539 32.5506C445.666 31.393 444.496 30.5279 443.029 29.9552C441.563 29.3826 439.873 29.1766 437.96 29.3373L426.64 30.288L430.006 26.3926L432.001 50.149ZM464.401 44.4576L463.892 38.3989L484.539 36.665L485.048 42.7236L464.401 44.4576ZM477.781 19.2895L494.084 48.0261L486.072 48.6989L471.987 22.9473L474.299 22.7531L464.747 50.4898L456.735 51.1626L468.016 20.1097L477.781 19.2895ZM502.301 47.336L501.086 32.8669L508.619 32.2343L509.834 46.7033L502.301 47.336ZM485.76 18.6195L494.09 17.9199L506.443 31.1727L502.975 31.4639L512.944 16.3366L521.275 15.637L507.602 36.3739L502.746 36.862L485.76 18.6195Z"/>
</mask>
<path d="M184.526 59.2511L183.578 58.9324L183.037 60.5402L184.706 60.2348L184.526 59.2511ZM185.04 57.7228L184.979 56.7246L184.306 56.7657L184.092 57.404L185.04 57.7228ZM190.87 58.3169L190.54 59.261L190.546 59.2631L190.87 58.3169ZM194.449 60.7861L193.643 61.3786L193.651 61.3894L193.66 61.4L194.449 60.7861ZM195.145 69.0769L196.044 69.515L196.048 69.5067L195.145 69.0769ZM192.045 72.3077L191.537 71.4464L191.531 71.45L192.045 72.3077ZM165.11 75.6535L164.112 75.5878L164.036 76.7472L165.194 76.65L165.11 75.6535ZM166.133 60.1133L167.131 60.179L167.141 60.0246L167.104 59.8743L166.133 60.1133ZM162.6 45.7587L162.516 44.7622L161.349 44.8602L161.629 45.9977L162.6 45.7587ZM189.948 45.4289L189.362 46.2391L189.37 46.2446L189.377 46.2499L189.948 45.4289ZM192.129 54.1971L191.204 53.8177L192.129 54.1971ZM189.584 57.3411L190.171 58.1508L190.177 58.1463L190.183 58.1418L189.584 57.3411ZM172.37 73.1973L171.648 73.8891L173.207 75.5163L173.368 73.2685L172.37 73.1973ZM169.202 69.8908L169.119 68.8943L167.031 69.0696L168.48 70.5826L169.202 69.8908ZM187.341 67.4442L188.051 68.1486L188.053 68.1464L187.341 67.4442ZM186.77 62.0732L186.18 62.8811L186.195 62.8915L186.209 62.9014L186.77 62.0732ZM170.659 62.3825L169.663 62.4662L169.746 63.4627L170.743 63.379L170.659 62.3825ZM170.217 57.1211L170.134 56.1246L169.137 56.2083L169.221 57.2048L170.217 57.1211ZM184.33 55.0126L185.04 55.7169L185.048 55.7094L185.055 55.7018L184.33 55.0126ZM184.091 50.2559L183.463 51.0339L183.472 51.0412L183.481 51.0482L184.091 50.2559ZM167.636 50.7548L166.804 50.1988L165.65 51.9251L167.719 51.7513L167.636 50.7548ZM170.168 46.9696L171.137 46.7237L170.585 44.5474L169.336 46.4136L170.168 46.9696ZM173.348 59.5074L174.345 59.5787L174.357 59.4179L174.317 59.2616L173.348 59.5074ZM185.474 59.5698L185.988 58.0415L184.092 57.404L183.578 58.9324L185.474 59.5698ZM185.101 58.7209C187.364 58.5825 189.164 58.7801 190.54 59.261L191.2 57.3729C189.488 56.775 187.401 56.5765 184.979 56.7246L185.101 58.7209ZM190.546 59.2631C191.964 59.7481 192.972 60.4652 193.643 61.3786L195.255 60.1936C194.295 58.889 192.916 57.9601 191.193 57.3707L190.546 59.2631ZM193.66 61.4C194.368 62.3105 194.791 63.4182 194.903 64.762L196.896 64.5946C196.755 62.9091 196.21 61.4219 195.238 60.1722L193.66 61.4ZM194.903 64.762C195.024 66.1945 194.797 67.4816 194.242 68.6471L196.048 69.5067C196.767 67.9962 197.044 66.3509 196.896 64.5946L194.903 64.762ZM194.246 68.6388C193.704 69.7506 192.819 70.6896 191.537 71.4464L192.553 73.169C194.126 72.2408 195.308 71.026 196.044 69.515L194.246 68.6388ZM191.531 71.45C190.298 72.1889 188.655 72.6726 186.551 72.8494L186.718 74.8423C189.025 74.6486 190.989 74.1069 192.559 73.1653L191.531 71.45ZM186.551 72.8494L165.027 74.657L165.194 76.65L186.718 74.8423L186.551 72.8494ZM166.108 75.7192L167.131 60.179L165.136 60.0476L164.112 75.5878L166.108 75.7192ZM167.104 59.8743L163.571 45.5197L161.629 45.9977L165.162 60.3524L167.104 59.8743ZM162.683 46.7552L183.45 45.0112L183.283 43.0182L162.516 44.7622L162.683 46.7552ZM183.45 45.0112C186.067 44.7914 187.995 45.2501 189.362 46.2391L190.534 44.6187C188.653 43.2579 186.194 42.7737 183.283 43.0182L183.45 45.0112ZM189.377 46.2499C190.747 47.2026 191.54 48.6148 191.709 50.6197L193.702 50.4524C193.491 47.9398 192.445 45.9472 190.519 44.6078L189.377 46.2499ZM191.709 50.6197C191.8 51.7064 191.635 52.7683 191.204 53.8177L193.055 54.5764C193.602 53.2424 193.82 51.8636 193.702 50.4524L191.709 50.6197ZM191.204 53.8177C190.795 54.8152 190.074 55.7257 188.985 56.5405L190.183 58.1418C191.511 57.148 192.486 55.9624 193.055 54.5764L191.204 53.8177ZM188.997 56.5315C187.95 57.2903 186.423 57.8872 184.346 58.2675L184.706 60.2348C186.95 59.8239 188.796 59.1475 190.171 58.1508L188.997 56.5315ZM173.092 72.5055L169.925 69.199L168.48 70.5826L171.648 73.8891L173.092 72.5055ZM169.286 70.8873L184.473 69.6119L184.305 67.6189L169.119 68.8943L169.286 70.8873ZM184.473 69.6119C185.922 69.4902 187.163 69.0433 188.051 68.1485L186.631 66.7399C186.187 67.188 185.461 67.5219 184.305 67.6189L184.473 69.6119ZM188.053 68.1464C188.984 67.2029 189.345 65.9763 189.23 64.5962L187.237 64.7636C187.313 65.6688 187.08 66.2851 186.629 66.7421L188.053 68.1464ZM189.23 64.5962C189.111 63.1798 188.482 62.0245 187.33 61.245L186.209 62.9014C186.816 63.3122 187.164 63.8948 187.237 64.7636L189.23 64.5962ZM187.359 61.2654C186.231 60.4426 184.728 60.1976 183.012 60.3417L183.179 62.3346C184.652 62.2109 185.598 62.456 186.18 62.8811L187.359 61.2654ZM183.012 60.3417L170.576 61.3861L170.743 63.379L183.179 62.3346L183.012 60.3417ZM171.656 62.2989L171.214 57.0374L169.221 57.2048L169.663 62.4662L171.656 62.2989ZM170.301 58.1176L181.781 57.1535L181.613 55.1605L170.134 56.1246L170.301 58.1176ZM181.781 57.1535C183.068 57.0454 184.181 56.5829 185.04 55.7169L183.62 54.3083C183.147 54.7851 182.505 55.0856 181.613 55.1605L181.781 57.1535ZM185.055 55.7018C185.943 54.7677 186.297 53.5792 186.186 52.2477L184.193 52.415C184.264 53.2625 184.045 53.8615 183.606 54.3234L185.055 55.7018ZM186.186 52.2477C186.09 51.1095 185.597 50.1529 184.702 49.4636L183.481 51.0482C183.902 51.3723 184.141 51.7993 184.193 52.415L186.186 52.2477ZM184.72 49.478C183.793 48.7295 182.59 48.4954 181.264 48.6068L181.431 50.5998C182.443 50.5148 183.069 50.7158 183.463 51.0339L184.72 49.478ZM181.264 48.6068L167.552 49.7583L167.719 51.7513L181.431 50.5998L181.264 48.6068ZM168.467 51.3108L170.999 47.5256L169.336 46.4136L166.804 50.1988L168.467 51.3108ZM169.198 47.2155L172.379 59.7533L174.317 59.2616L171.137 46.7237L169.198 47.2155ZM172.351 59.4362L171.373 73.1261L173.368 73.2685L174.345 59.5787L172.351 59.4362ZM205.888 42.1233L206.885 42.0396L206.801 41.0431L205.805 41.1268L205.888 42.1233ZM208.118 68.6699L207.481 69.4413L209.313 70.952L209.114 68.5862L208.118 68.6699ZM204.452 65.646L204.368 64.6495L201.921 64.855L203.815 66.4175L204.452 65.646ZM226.853 63.7648L227.849 63.6811L227.766 62.6846L226.769 62.7683L226.853 63.7648ZM227.412 70.4213L227.496 71.4178L228.492 71.3341L228.408 70.3376L227.412 70.4213ZM200.865 72.6507L199.869 72.7344L199.953 73.7309L200.949 73.6472L200.865 72.6507ZM198.355 42.756L198.271 41.7595L197.275 41.8432L197.358 42.8397L198.355 42.756ZM204.892 42.207L207.121 68.7535L209.114 68.5862L206.885 42.0396L204.892 42.207ZM208.754 67.8984L205.088 64.8746L203.815 66.4175L207.481 69.4413L208.754 67.8984ZM204.535 66.6425L226.937 64.7613L226.769 62.7683L204.368 64.6495L204.535 66.6425ZM225.856 63.8485L226.415 70.505L228.408 70.3376L227.849 63.6811L225.856 63.8485ZM227.328 69.4248L200.782 71.6542L200.949 73.6472L227.496 71.4178L227.328 69.4248ZM201.862 72.567L199.351 42.6723L197.358 42.8397L199.869 72.7344L201.862 72.567ZM198.438 43.7525L205.972 43.1198L205.805 41.1268L198.271 41.7595L198.438 43.7525ZM235.908 63.6465L234.912 63.7302L234.995 64.7267L235.992 64.643L235.908 63.6465ZM235.399 57.5879L235.316 56.5914L234.319 56.6751L234.403 57.6716L235.399 57.5879ZM256.047 55.8539L257.043 55.7702L256.96 54.7737L255.963 54.8574L256.047 55.8539ZM256.556 61.9126L256.639 62.9091L257.636 62.8254L257.552 61.8289L256.556 61.9126ZM249.289 38.4785L250.159 37.9851L249.843 37.4284L249.205 37.482L249.289 38.4785ZM265.591 67.215L265.675 68.2115L267.232 68.0808L266.461 66.7216L265.591 67.215ZM257.579 67.8879L256.702 68.3677L257.014 68.9388L257.663 68.8844L257.579 67.8879ZM243.495 42.1362L243.411 41.1397L241.88 41.2683L242.617 42.6161L243.495 42.1362ZM245.807 41.9421L246.752 42.2677L247.252 40.8172L245.723 40.9456L245.807 41.9421ZM236.254 69.6788L236.338 70.6752L236.987 70.6207L237.2 70.0044L236.254 69.6788ZM228.242 70.3516L227.303 70.0101L226.769 71.4789L228.326 71.3481L228.242 70.3516ZM239.523 39.2986L239.44 38.3021L238.802 38.3557L238.583 38.9572L239.523 39.2986ZM236.905 63.5629L236.396 57.5042L234.403 57.6716L234.912 63.7302L236.905 63.5629ZM235.483 58.5844L256.13 56.8504L255.963 54.8574L235.316 56.5914L235.483 58.5844ZM255.05 55.9376L255.559 61.9963L257.552 61.8289L257.043 55.7702L255.05 55.9376ZM256.472 60.9161L235.825 62.6501L235.992 64.643L256.639 62.9091L256.472 60.9161ZM248.419 38.9719L264.721 67.7085L266.461 66.7216L250.159 37.9851L248.419 38.9719ZM265.507 66.2185L257.495 66.8914L257.663 68.8844L265.675 68.2115L265.507 66.2185ZM258.457 67.408L244.372 41.6564L242.617 42.6161L256.702 68.3677L258.457 67.408ZM243.578 43.1327L245.89 42.9386L245.723 40.9456L243.411 41.1397L243.578 43.1327ZM244.861 41.6164L235.309 69.3531L237.2 70.0044L246.752 42.2677L244.861 41.6164ZM236.171 68.6823L228.159 69.3551L228.326 71.3481L236.338 70.6752L236.171 68.6823ZM229.182 70.693L240.463 39.6401L238.583 38.9572L227.303 70.0101L229.182 70.693ZM239.607 40.2951L249.373 39.475L249.205 37.482L239.44 38.3021L239.607 40.2951ZM298.65 51.9951L299.649 52.0242L299.682 50.9049L298.566 50.9986L298.65 51.9951ZM296.552 59.0354L297.393 59.5755L297.397 59.57L296.552 59.0354ZM291.034 64.0748L290.552 63.1987L291.034 64.0748ZM273.589 65.2188L273.214 66.1459L273.218 66.1475L273.589 65.2188ZM267.111 60.2634L266.306 60.8559L267.111 60.2634ZM265.739 43.921L264.846 43.4711L265.739 43.921ZM271.299 37.9547L270.778 37.1009L270.775 37.103L271.299 37.9547ZM294.972 40.2216L294.232 40.8945L294.232 40.8945L294.972 40.2216ZM298.215 46.8133L298.298 47.8098L299.413 47.7162L299.196 46.619L298.215 46.8133ZM290.641 47.4493L289.68 47.7232L289.905 48.5147L290.725 48.4458L290.641 47.4493ZM288.716 44.1188L288.004 44.821L288.01 44.8268L288.015 44.8324L288.716 44.1188ZM285.343 42.1943L285.044 43.1485L285.055 43.1522L285.067 43.1555L285.343 42.1943ZM275.684 43.3266L276.204 44.1805L276.211 44.1766L276.217 44.1727L275.684 43.3266ZM272.637 46.7135L273.544 47.1333L272.637 46.7135ZM273.447 56.3595L272.622 56.9249L272.622 56.9249L273.447 56.3595ZM277.019 59.2306L276.635 60.1538L276.642 60.1566L276.649 60.1593L277.019 59.2306ZM286.732 58.7361L286.3 57.8343L286.294 57.8372L286.732 58.7361ZM289.737 56.276L288.927 55.6892L288.922 55.6957L288.918 55.7023L289.737 56.276ZM291.076 52.6311L290.993 51.6346L290.17 51.7037L290.082 52.5251L291.076 52.6311ZM297.65 51.966C297.579 54.3985 296.929 56.569 295.707 58.5008L297.397 59.57C298.821 57.319 299.569 54.7959 299.649 52.0242L297.65 51.966ZM295.71 58.4952C294.483 60.4069 292.773 61.9764 290.552 63.1987L291.516 64.9509C294.001 63.5836 295.97 61.7935 297.393 59.5755L295.71 58.4952ZM290.552 63.1987C288.341 64.4153 285.737 65.1619 282.717 65.4155L282.884 67.4085C286.136 67.1354 289.021 66.324 291.516 64.9509L290.552 63.1987ZM282.717 65.4155C279.416 65.6927 276.505 65.3065 273.959 64.29L273.218 66.1475C276.099 67.2978 279.329 67.7071 282.884 67.4085L282.717 65.4155ZM273.963 64.2916C271.439 63.2716 269.432 61.7315 267.917 59.6709L266.306 60.8559C268.053 63.2312 270.365 64.9947 273.214 66.1459L273.963 64.2916ZM267.917 59.6709C266.409 57.6208 265.517 55.1394 265.269 52.1893L263.276 52.3566C263.55 55.6246 264.551 58.4702 266.306 60.8559L267.917 59.6709ZM265.269 52.1893C265.021 49.2391 265.487 46.6437 266.632 44.3708L264.846 43.4711C263.513 46.1161 263.002 49.0887 263.276 52.3566L265.269 52.1893ZM266.632 44.3708C267.782 42.0863 269.504 40.2332 271.823 38.8064L270.775 37.103C268.157 38.7134 266.172 40.8377 264.846 43.4711L266.632 44.3708ZM271.819 38.8086C274.16 37.3818 276.966 36.5154 280.267 36.2382L280.099 34.2452C276.544 34.5438 273.427 35.4861 270.778 37.1009L271.819 38.8086ZM280.267 36.2382C283.286 35.9846 285.979 36.2865 288.362 37.1173L289.02 35.2288C286.331 34.2911 283.351 33.9722 280.099 34.2452L280.267 36.2382ZM288.362 37.1173C290.756 37.9519 292.703 39.2143 294.232 40.8945L295.711 39.5487C293.938 37.5992 291.698 36.1625 289.02 35.2288L288.362 37.1173ZM294.232 40.8945C295.752 42.5651 296.755 44.5932 297.234 47.0076L299.196 46.619C298.652 43.8742 297.494 41.5079 295.711 39.5487L294.232 40.8945ZM298.131 45.8168L290.558 46.4528L290.725 48.4458L298.298 47.8098L298.131 45.8168ZM291.603 47.1755C291.181 45.6919 290.456 44.4253 289.416 43.4051L288.015 44.8324C288.784 45.5872 289.343 46.541 289.68 47.7232L291.603 47.1755ZM289.428 43.4166C288.413 42.3881 287.131 41.667 285.619 41.2331L285.067 43.1555C286.297 43.5082 287.263 44.0702 288.004 44.821L289.428 43.4166ZM285.642 41.2401C284.147 40.7715 282.476 40.6287 280.648 40.7822L280.816 42.7752C282.442 42.6386 283.846 42.7729 285.044 43.1485L285.642 41.2401ZM280.648 40.7822C278.532 40.9599 276.687 41.5129 275.151 42.4805L276.217 44.1727C277.426 43.4112 278.946 42.9322 280.816 42.7752L280.648 40.7822ZM275.163 42.4727C273.625 43.4107 272.471 44.6884 271.729 46.2937L273.544 47.1333C274.115 45.8987 274.994 44.9185 276.204 44.1805L275.163 42.4727ZM271.729 46.2937C270.987 47.8988 270.721 49.7179 270.889 51.7173L272.882 51.5499C272.738 49.8291 272.973 48.3681 273.544 47.1333L271.729 46.2937ZM270.889 51.7173C271.057 53.7167 271.622 55.4661 272.622 56.9249L274.272 55.7942C273.502 54.672 273.027 53.2707 272.882 51.5499L270.889 51.7173ZM272.622 56.9249C273.62 58.3808 274.966 59.4589 276.635 60.1538L277.404 58.3075C276.078 57.7553 275.043 56.9194 274.272 55.7942L272.622 56.9249ZM276.649 60.1593C278.319 60.8261 280.224 61.0488 282.335 60.8715L282.168 58.8785C280.293 59.036 278.711 58.8291 277.39 58.3019L276.649 60.1593ZM282.335 60.8715C284.158 60.7185 285.777 60.3145 287.17 59.6349L286.294 57.8372C285.168 58.3861 283.8 58.7415 282.168 58.8785L282.335 60.8715ZM287.164 59.6379C288.583 58.9577 289.727 58.0329 290.556 56.8496L288.918 55.7023C288.313 56.5662 287.453 57.2815 286.3 57.8343L287.164 59.6379ZM290.547 56.8628C291.404 55.6799 291.905 54.2945 292.071 52.7371L290.082 52.5251C289.949 53.7759 289.557 54.8205 288.927 55.6892L290.547 56.8628ZM291.16 53.6276L298.733 52.9916L298.566 50.9986L290.993 51.6346L291.16 53.6276ZM303.901 63.9977L302.905 64.0814L302.988 65.0779L303.985 64.9942L303.901 63.9977ZM301.391 34.103L301.307 33.1065L300.31 33.1902L300.394 34.1866L301.391 34.103ZM308.884 33.4736L309.881 33.39L309.797 32.3935L308.8 32.4772L308.884 33.4736ZM310.889 57.3496L310.35 58.192L312.055 59.2824L311.886 57.2659L310.889 57.3496ZM308.726 55.9658L307.893 55.4123L307.33 56.2598L308.187 56.8082L308.726 55.9658ZM324.549 32.1581L324.465 31.1616L323.984 31.2021L323.716 31.6046L324.549 32.1581ZM332.521 31.4886L333.346 32.0531L334.534 30.316L332.437 30.4921L332.521 31.4886ZM310.677 63.4287L310.761 64.4252L311.234 64.3854L311.503 63.9932L310.677 63.4287ZM316.996 48.3269L316.282 47.6261L315.691 48.2276L316.184 48.9117L316.996 48.3269ZM322.025 43.2081L322.829 42.6138L322.133 41.6714L321.312 42.5073L322.025 43.2081ZM335.43 61.3499L335.514 62.3464L337.299 62.1965L336.234 60.7556L335.43 61.3499ZM326.9 62.0663L326.089 62.651L326.42 63.1101L326.984 63.0627L326.9 62.0663ZM304.898 63.914L302.387 34.0193L300.394 34.1866L302.905 64.0814L304.898 63.914ZM301.474 35.0995L308.968 34.4701L308.8 32.4772L301.307 33.1065L301.474 35.0995ZM307.888 33.5573L309.893 57.4333L311.886 57.2659L309.881 33.39L307.888 33.5573ZM311.428 56.5072L309.265 55.1234L308.187 56.8082L310.35 58.192L311.428 56.5072ZM309.559 56.5193L325.382 32.7116L323.716 31.6046L307.893 55.4123L309.559 56.5193ZM324.633 33.1546L332.605 32.4851L332.437 30.4921L324.465 31.1616L324.633 33.1546ZM331.696 30.9241L309.852 62.8642L311.503 63.9932L333.346 32.0531L331.696 30.9241ZM310.594 62.4322L303.817 63.0012L303.985 64.9942L310.761 64.4252L310.594 62.4322ZM317.709 49.0278L322.738 43.9089L321.312 42.5073L316.282 47.6261L317.709 49.0278ZM321.221 43.8024L334.626 61.9442L336.234 60.7556L322.829 42.6138L321.221 43.8024ZM335.346 60.3534L326.816 61.0698L326.984 63.0627L335.514 62.3464L335.346 60.3534ZM327.711 61.4815L317.807 47.7422L316.184 48.9117L326.089 62.651L327.711 61.4815ZM349.737 42.5667L349.654 41.5702L348.657 41.6539L348.741 42.6504L349.737 42.5667ZM371.381 40.749L372.378 40.6653L372.294 39.6689L371.298 39.7525L371.381 40.749ZM371.92 47.1664L372.004 48.1629L373 48.0792L372.917 47.0828L371.92 47.1664ZM350.276 48.9841L349.28 49.0678L349.364 50.0643L350.36 49.9806L350.276 48.9841ZM371.054 28.2526L372.051 28.1689L371.967 27.1724L370.971 27.2561L371.054 28.2526ZM371.593 34.67L371.677 35.6665L372.673 35.5828L372.59 34.5863L371.593 34.67ZM349.391 36.5345L348.628 35.889L347.069 37.733L349.475 37.531L349.391 36.5345ZM352.787 32.5162L353.784 32.4325L353.582 30.0268L352.023 31.8708L352.787 32.5162ZM355.07 59.7005L355.154 60.697L356.15 60.6133L356.067 59.6168L355.07 59.7005ZM347.537 60.3332L346.54 60.4169L346.624 61.4134L347.62 61.3297L347.537 60.3332ZM345.026 30.4384L344.942 29.4419L343.946 29.5256L344.03 30.5221L345.026 30.4384ZM349.821 43.5632L371.465 41.7455L371.298 39.7525L349.654 41.5702L349.821 43.5632ZM370.385 40.8327L370.924 47.2501L372.917 47.0828L372.378 40.6653L370.385 40.8327ZM371.837 46.1699L350.193 47.9876L350.36 49.9806L372.004 48.1629L371.837 46.1699ZM351.273 48.9004L350.734 42.483L348.741 42.6504L349.28 49.0678L351.273 48.9004ZM370.058 28.3362L370.597 34.7536L372.59 34.5863L372.051 28.1689L370.058 28.3362ZM371.51 33.6735L349.308 35.538L349.475 37.531L371.677 35.6665L371.51 33.6735ZM350.155 37.1799L353.551 33.1617L352.023 31.8708L348.628 35.889L350.155 37.1799ZM351.791 32.5999L354.074 59.7842L356.067 59.6168L353.784 32.4325L351.791 32.5999ZM354.986 58.704L347.453 59.3367L347.62 61.3297L355.154 60.697L354.986 58.704ZM348.533 60.2495L346.022 30.3547L344.03 30.5221L346.54 60.4169L348.533 60.2495ZM345.11 31.4349L371.138 29.249L370.971 27.2561L344.942 29.4419L345.11 31.4349ZM381.753 40.6005L381.669 39.604L380.673 39.6877L380.757 40.6842L381.753 40.6005ZM396.222 38.4221L396.898 39.1588L396.905 39.1521L396.912 39.1452L396.222 38.4221ZM395.763 32.9613L395.203 33.7895L395.211 33.7951L395.219 33.8005L395.763 32.9613ZM380.054 33.277L379.262 32.6665L377.877 34.4634L380.138 34.2735L380.054 33.277ZM383.131 29.2855L384.127 29.2018L383.912 26.6345L382.339 28.675L383.131 29.2855ZM385.471 57.1475L385.555 58.1439L386.551 58.0603L386.467 57.0638L385.471 57.1475ZM377.937 57.7801L376.941 57.8638L377.025 58.8603L378.021 58.7766L377.937 57.7801ZM375.427 27.8854L375.343 26.8889L374.347 26.9725L374.43 27.969L375.427 27.8854ZM398.805 27.1262L398.452 28.0619L398.805 27.1262ZM402.989 30.1065L403.775 29.4876L402.989 30.1065ZM403.816 39.9519L404.694 40.4312L403.816 39.9519ZM400.188 43.5883L400.681 44.4586L400.692 44.452L400.188 43.5883ZM382.228 46.2606L381.232 46.3443L381.316 47.3408L382.312 47.2571L382.228 46.2606ZM386.807 42.9458L386.723 41.9493L384.7 42.1193L386.068 43.6197L386.807 42.9458ZM395.297 42.2328L396.029 41.5511L395.698 41.1957L395.213 41.2363L395.297 42.2328ZM407.473 55.2997L407.557 56.2962L409.608 56.1239L408.205 54.6179L407.473 55.2997ZM398.744 56.0328L398.005 56.7067L398.337 57.0705L398.828 57.0292L398.744 56.0328ZM381.837 41.597L393.037 40.6564L392.87 38.6634L381.669 39.604L381.837 41.597ZM393.037 40.6564C394.589 40.526 395.915 40.0606 396.898 39.1588L395.545 37.6854C394.987 38.1974 394.135 38.5572 392.87 38.6634L393.037 40.6564ZM396.912 39.1452C397.924 38.1792 398.343 36.9189 398.223 35.4843L396.23 35.6517C396.306 36.5555 396.055 37.198 395.531 37.6989L396.912 39.1452ZM398.223 35.4843C398.102 34.0498 397.478 32.8811 396.307 32.1221L395.219 33.8005C395.803 34.1786 396.154 34.7477 396.23 35.6517L398.223 35.4843ZM396.323 32.1331C395.2 31.3731 393.808 31.1185 392.247 31.2495L392.415 33.2425C393.671 33.137 394.567 33.3592 395.203 33.7895L396.323 32.1331ZM392.247 31.2495L379.971 32.2805L380.138 34.2735L392.415 33.2425L392.247 31.2495ZM380.846 33.8875L383.923 29.896L382.339 28.675L379.262 32.6665L380.846 33.8875ZM382.134 29.3692L384.474 57.2311L386.467 57.0638L384.127 29.2018L382.134 29.3692ZM385.387 56.151L377.854 56.7836L378.021 58.7766L385.555 58.1439L385.387 56.151ZM378.934 57.6964L376.423 27.8017L374.43 27.969L376.941 57.8638L378.934 57.6964ZM375.51 28.8818L392.929 27.419L392.762 25.426L375.343 26.8889L375.51 28.8818ZM392.929 27.419C395.043 27.2415 396.876 27.4674 398.452 28.0619L399.158 26.1906C397.252 25.4719 395.112 25.2286 392.762 25.426L392.929 27.419ZM398.452 28.0619C400.04 28.6608 401.279 29.5521 402.204 30.7255L403.775 29.4876C402.603 28.0005 401.052 26.9049 399.158 26.1906L398.452 28.0619ZM402.204 30.7255C403.117 31.8841 403.659 33.3004 403.803 35.0157L405.796 34.8483C405.623 32.7902 404.958 30.9895 403.775 29.4876L402.204 30.7255ZM403.803 35.0157C403.945 36.7013 403.647 38.1755 402.939 39.4726L404.694 40.4312C405.609 38.7553 405.967 36.8829 405.796 34.8483L403.803 35.0157ZM402.939 39.4726C402.222 40.7838 401.15 41.8692 399.684 42.7246L400.692 44.452C402.44 43.4318 403.786 42.0929 404.694 40.4312L402.939 39.4726ZM399.695 42.7181C398.235 43.5448 396.46 44.0619 394.342 44.2398L394.509 46.2328C396.855 46.0358 398.922 45.4542 400.68 44.4585L399.695 42.7181ZM394.342 44.2398L382.145 45.2641L382.312 47.2571L394.509 46.2328L394.342 44.2398ZM383.225 46.1769L382.75 40.5168L380.757 40.6842L381.232 46.3443L383.225 46.1769ZM386.891 43.9423L395.381 43.2293L395.213 41.2363L386.723 41.9493L386.891 43.9423ZM394.566 42.9145L406.742 55.9814L408.205 54.6179L396.029 41.5511L394.566 42.9145ZM407.39 54.3032L398.66 55.0363L398.828 57.0292L407.557 56.2962L407.39 54.3032ZM399.483 55.3589L387.546 42.2719L386.068 43.6197L398.005 56.7067L399.483 55.3589ZM408.903 25.074L408.819 24.0775L407.823 24.1612L407.906 25.1577L408.903 25.074ZM416.436 24.4414L417.433 24.3577L417.349 23.3612L416.353 23.4449L416.436 24.4414ZM418.947 54.3361L419.03 55.3326L420.027 55.2489L419.943 54.2524L418.947 54.3361ZM411.413 54.9688L410.417 55.0525L410.5 56.049L411.497 55.9653L411.413 54.9688ZM408.986 26.0705L416.52 25.4379L416.353 23.4449L408.819 24.0775L408.986 26.0705ZM415.44 24.525L417.95 54.4198L419.943 54.2524L417.433 24.3577L415.44 24.525ZM418.863 53.3396L411.33 53.9723L411.497 55.9653L419.03 55.3326L418.863 53.3396ZM412.41 54.8851L409.899 24.9903L407.906 25.1577L410.417 55.0525L412.41 54.8851ZM446.208 23.8277L445.856 24.7638L446.208 23.8277ZM452.785 28.5339L451.997 29.1498L452.002 29.1562L452.785 28.5339ZM454.103 44.2386L453.225 43.7602L453.224 43.7627L454.103 44.2386ZM448.404 49.9757L447.901 49.1114L448.404 49.9757ZM424.765 53.8475L423.768 53.9312L423.852 54.9277L424.848 54.844L424.765 53.8475ZM422.254 23.9528L422.17 22.9563L421.174 23.04L421.258 24.0364L422.254 23.9528ZM432.001 50.149L431.364 50.9199L433.196 52.4342L432.997 50.0653L432.001 50.149ZM428.032 46.8696L427.949 45.8731L425.505 46.0783L427.395 47.6405L428.032 46.8696ZM444.248 44.4642L443.734 43.6064L444.248 44.4642ZM447.275 41.3198L448.163 41.7804L448.167 41.7718L447.275 41.3198ZM446.539 32.5506L445.741 33.1529L446.539 32.5506ZM443.029 29.9552L443.393 29.0237L443.393 29.0237L443.029 29.9552ZM426.64 30.288L425.883 29.6342L424.28 31.4897L426.723 31.2845L426.64 30.288ZM430.006 26.3926L431.002 26.309L430.803 23.9401L429.249 25.7388L430.006 26.3926ZM436.926 23.7241C440.316 23.4394 443.285 23.7976 445.856 24.7638L446.559 22.8917C443.659 21.8019 440.385 21.4266 436.759 21.7311L436.926 23.7241ZM445.856 24.7638C448.436 25.7333 450.471 27.1982 451.997 29.1497L453.572 27.918C451.8 25.6507 449.451 23.9782 446.559 22.8917L445.856 24.7638ZM452.002 29.1562C453.54 31.0908 454.442 33.4521 454.68 36.2824L456.673 36.1151C456.406 32.9399 455.38 30.1912 453.567 27.9115L452.002 29.1562ZM454.68 36.2824C454.915 39.0841 454.421 41.5654 453.225 43.7602L454.982 44.7169C456.383 42.1444 456.937 39.2658 456.673 36.1151L454.68 36.2824ZM453.224 43.7627C452.045 45.9413 450.283 47.7252 447.901 49.1114L448.907 50.84C451.576 49.2865 453.614 47.2456 454.983 44.7144L453.224 43.7627ZM447.901 49.1114C445.527 50.4929 442.659 51.3412 439.27 51.6259L439.437 53.6189C443.063 53.3144 446.229 52.3982 448.907 50.84L447.901 49.1114ZM439.27 51.6259L424.681 52.851L424.848 54.844L439.437 53.6189L439.27 51.6259ZM425.761 53.7638L423.251 23.8691L421.258 24.0364L423.768 53.9312L425.761 53.7638ZM422.338 24.9493L436.926 23.7241L436.759 21.7311L422.17 22.9563L422.338 24.9493ZM432.638 49.3782L428.669 46.0988L427.395 47.6405L431.364 50.9199L432.638 49.3782ZM428.116 47.8661L439.436 46.9154L439.269 44.9224L427.949 45.8731L428.116 47.8661ZM439.436 46.9154C441.469 46.7447 443.255 46.2249 444.762 45.3219L443.734 43.6064C442.54 44.3217 441.063 44.7718 439.269 44.9224L439.436 46.9154ZM444.762 45.3219C446.257 44.426 447.402 43.2459 448.163 41.7804L446.388 40.8591C445.812 41.9678 444.939 42.884 443.734 43.6064L444.762 45.3219ZM448.167 41.7718C448.928 40.2704 449.213 38.5868 449.059 36.7544L447.066 36.9218C447.194 38.4377 446.954 39.7418 446.383 40.8677L448.167 41.7718ZM449.059 36.7544C448.904 34.8995 448.343 33.2817 447.337 31.9484L445.741 33.1529C446.481 34.1349 446.937 35.3754 447.066 36.9218L449.059 36.7544ZM447.337 31.9484C446.343 30.6303 445.017 29.6578 443.393 29.0237L442.666 30.8867C443.975 31.3979 444.988 32.1557 445.741 33.1529L447.337 31.9484ZM443.393 29.0237C441.757 28.3847 439.909 28.1701 437.876 28.3408L438.044 30.3338C439.837 30.1831 441.369 30.3805 442.666 30.8867L443.393 29.0237ZM437.876 28.3408L426.556 29.2915L426.723 31.2845L438.044 30.3338L437.876 28.3408ZM427.396 30.9418L430.762 27.0464L429.249 25.7388L425.883 29.6342L427.396 30.9418ZM429.009 26.4763L431.004 50.2327L432.997 50.0653L431.002 26.309L429.009 26.4763ZM464.401 44.4576L463.404 44.5413L463.488 45.5378L464.484 45.4541L464.401 44.4576ZM463.892 38.3989L463.808 37.4024L462.812 37.4861L462.895 38.4826L463.892 38.3989ZM484.539 36.665L485.536 36.5813L485.452 35.5848L484.456 35.6685L484.539 36.665ZM485.048 42.7236L485.132 43.7201L486.128 43.6364L486.045 42.6399L485.048 42.7236ZM477.781 19.2895L478.651 18.7961L478.336 18.2395L477.698 18.2931L477.781 19.2895ZM494.084 48.0261L494.167 49.0226L495.724 48.8918L494.953 47.5327L494.084 48.0261ZM486.072 48.6989L485.194 49.1788L485.507 49.7499L486.155 49.6954L486.072 48.6989ZM471.987 22.9473L471.904 21.9508L470.373 22.0793L471.11 23.4271L471.987 22.9473ZM474.299 22.7531L475.245 23.0787L475.744 21.6282L474.215 21.7566L474.299 22.7531ZM464.747 50.4898L464.83 51.4863L465.48 51.4318L465.692 50.8154L464.747 50.4898ZM456.735 51.1626L455.795 50.8212L455.262 52.2899L456.819 52.1591L456.735 51.1626ZM468.016 20.1097L467.932 19.1132L467.294 19.1667L467.076 19.7682L468.016 20.1097ZM465.397 44.3739L464.888 38.3153L462.895 38.4826L463.404 44.5413L465.397 44.3739ZM463.976 39.3954L484.623 37.6615L484.456 35.6685L463.808 37.4024L463.976 39.3954ZM483.543 36.7486L484.052 42.8073L486.045 42.6399L485.536 36.5813L483.543 36.7486ZM484.964 41.7271L464.317 43.4611L464.484 45.4541L485.132 43.7201L484.964 41.7271ZM476.912 19.783L493.214 48.5195L494.953 47.5327L478.651 18.7961L476.912 19.783ZM494 47.0296L485.988 47.7024L486.155 49.6954L494.167 49.0226L494 47.0296ZM486.949 48.2191L472.865 22.4674L471.11 23.4271L485.194 49.1788L486.949 48.2191ZM472.071 23.9438L474.383 23.7496L474.215 21.7566L471.904 21.9508L472.071 23.9438ZM473.354 22.4275L463.801 50.1642L465.692 50.8154L475.245 23.0787L473.354 22.4275ZM464.663 49.4933L456.651 50.1662L456.819 52.1591L464.83 51.4863L464.663 49.4933ZM457.675 51.5041L468.956 20.4511L467.076 19.7682L455.795 50.8212L457.675 51.5041ZM468.1 21.1062L477.865 20.286L477.698 18.2931L467.932 19.1132L468.1 21.1062ZM502.301 47.336L501.304 47.4197L501.388 48.4162L502.385 48.3325L502.301 47.336ZM501.086 32.8669L501.002 31.8704L500.006 31.9541L500.089 32.9506L501.086 32.8669ZM508.619 32.2343L509.616 32.1506L509.532 31.1541L508.536 31.2378L508.619 32.2343ZM509.834 46.7033L509.918 47.6998L510.914 47.6161L510.831 46.6196L509.834 46.7033ZM485.76 18.6195L485.676 17.623L483.626 17.7952L485.028 19.301L485.76 18.6195ZM494.09 17.9199L494.822 17.2381L494.491 16.8828L494.007 16.9234L494.09 17.9199ZM506.443 31.1727L506.526 32.1692L508.578 31.9969L507.174 30.4909L506.443 31.1727ZM502.975 31.4639L502.14 30.9136L501.007 32.6327L503.059 32.4604L502.975 31.4639ZM512.944 16.3366L512.86 15.3401L512.376 15.3807L512.109 15.7863L512.944 16.3366ZM521.275 15.637L522.109 16.1874L523.243 14.4681L521.191 14.6405L521.275 15.637ZM507.602 36.3739L507.702 37.3689L508.175 37.3213L508.437 36.9244L507.602 36.3739ZM502.746 36.862L502.014 37.5435L502.352 37.9066L502.846 37.857L502.746 36.862ZM503.297 47.2523L502.082 32.7832L500.089 32.9506L501.304 47.4197L503.297 47.2523ZM501.169 33.8634L508.703 33.2308L508.536 31.2378L501.002 31.8704L501.169 33.8634ZM507.623 32.318L508.838 46.787L510.831 46.6196L509.616 32.1506L507.623 32.318ZM509.751 45.7068L502.217 46.3395L502.385 48.3325L509.918 47.6998L509.751 45.7068ZM485.843 19.616L494.174 18.9164L494.007 16.9234L485.676 17.623L485.843 19.616ZM493.359 18.6017L505.711 31.8545L507.174 30.4909L494.822 17.2381L493.359 18.6017ZM506.359 30.1762L502.891 30.4674L503.059 32.4604L506.526 32.1692L506.359 30.1762ZM503.81 32.0142L513.779 16.8868L512.109 15.7863L502.14 30.9136L503.81 32.0142ZM513.028 17.3331L521.358 16.6335L521.191 14.6405L512.86 15.3401L513.028 17.3331ZM520.44 15.0865L506.767 35.8235L508.437 36.9244L522.109 16.1874L520.44 15.0865ZM507.502 35.3789L502.646 35.867L502.846 37.857L507.702 37.3689L507.502 35.3789ZM503.478 36.1806L486.492 17.9381L485.028 19.301L502.014 37.5435L503.478 36.1806Z" fill="#FFEB1C" mask="url(#path-3-outside-2_2217_127)"/>
<path d="M567.761 12.2655L575.369 29.4509M575.369 29.4509L576.384 46.8421M575.369 29.4509L556.876 44.4808M575.369 29.4509L594.57 29.0556M575.369 29.4509L583.704 1.36236M575.369 29.4509L602.812 41.4056M575.369 29.4509L566.529 48.8869M575.369 29.4509L555.326 14.5271M575.369 29.4509L592.216 15.1678M575.369 29.4509L559.095 29.3395M575.369 29.4509L587.721 49.194" stroke="#8F8FFF" stroke-width="2.4"/>
</svg>
